<svg xmlns="http://www.w3.org/2000/svg" xmlns:xlink="http://www.w3.org/1999/xlink" xmlns:lucid="lucid" width="1400.95" height="769.33"><g transform="translate(0 0)" lucid:page-tab-id="0_0"><path d="M0 0h1400.95v769.33H0z" fill="#fff"/><path d="M848 185.16c39.76 0 72 43.77 72 97.75 0 54-32.24 97.76-72 97.76H632c-39.76 0-72-43.76-72-97.75 0-53.97 32.24-97.74 72-97.74z" stroke="#000" stroke-opacity="0" fill="#ff741d"/><use xlink:href="#a" transform="matrix(1,0,0,1,564.9999749999997,190.16447340289164) translate(25.13086419753094 86.6888888888889)"/><use xlink:href="#b" transform="matrix(1,0,0,1,564.9999749999997,190.16447340289164) translate(199.94506172839507 86.6888888888889)"/><use xlink:href="#c" transform="matrix(1,0,0,1,564.9999749999997,190.16447340289164) translate(47.378395061728554 118.95555555555555)"/><use xlink:href="#d" transform="matrix(1,0,0,1,564.9999749999997,190.16447340289164) translate(103.4895061728396 118.95555555555555)"/><use xlink:href="#e" transform="matrix(1,0,0,1,564.9999749999997,190.16447340289164) translate(199.31481481481478 118.95555555555555)"/><use xlink:href="#f" transform="matrix(1,0,0,1,564.9999749999997,190.16447340289164) translate(224.25308641975303 118.95555555555555)"/><path d="M0 17.73a16 16 0 0 1 16-16h508a16 16 0 0 1 16 16v196.05a16 16 0 0 1-16 16H16a16 16 0 0 1-16-16z" stroke="#dfe3e8" stroke-width="2" fill="#fff"/><use xlink:href="#g" transform="matrix(1,0,0,1,43.91975605841758,34.66793162205969) translate(124.84969135802478 37.51111111111107)"/><use xlink:href="#h" transform="matrix(1,0,0,1,43.91975605841758,34.66793162205969) translate(14.530555555555765 99.40444444444435)"/><use xlink:href="#i" transform="matrix(1,0,0,1,43.91975605841758,34.66793162205969) translate(305.37191358024677 99.40444444444435)"/><use xlink:href="#j" transform="matrix(1,0,0,1,43.91975605841758,34.66793162205969) translate(32.56975308641995 161.2977777777776)"/><use xlink:href="#k" transform="matrix(1,0,0,1,43.91975605841758,34.66793162205969) translate(188.47530864197532 161.2977777777776)"/><path d="M790 475.58a8 8 0 0 1 8-8h204a8 8 0 0 1 8 8v104a8 8 0 0 1-8 8H798a8 8 0 0 1-8-8z" stroke="#000" stroke-opacity="0" stroke-width="2" fill="#ff8839"/><use xlink:href="#l" transform="matrix(1,0,0,1,795.0000499999999,472.5764645437696) translate(7.806481481481512 38.33333333333333)"/><use xlink:href="#m" transform="matrix(1,0,0,1,795.0000499999999,472.5764645437696) translate(28.362037037037062 38.33333333333333)"/><use xlink:href="#n" transform="matrix(1,0,0,1,795.0000499999999,472.5764645437696) translate(120.0398148148148 38.33333333333333)"/><use xlink:href="#o" transform="matrix(1,0,0,1,795.0000499999999,472.5764645437696) translate(13.5 62.599999999999994)"/><use xlink:href="#p" transform="matrix(1,0,0,1,795.0000499999999,472.5764645437696) translate(28.5 62.599999999999994)"/><use xlink:href="#q" transform="matrix(1,0,0,1,795.0000499999999,472.5764645437696) translate(44 62.599999999999994)"/><use xlink:href="#r" transform="matrix(1,0,0,1,795.0000499999999,472.5764645437696) translate(82.95 62.599999999999994)"/><use xlink:href="#s" transform="matrix(1,0,0,1,795.0000499999999,472.5764645437696) translate(124.85 62.599999999999994)"/><use xlink:href="#t" transform="matrix(1,0,0,1,795.0000499999999,472.5764645437696) translate(161.5 62.599999999999994)"/><use xlink:href="#u" transform="matrix(1,0,0,1,795.0000499999999,472.5764645437696) translate(73.05 84.2)"/><path d="M400 474a8 8 0 0 1 8-8h204a8 8 0 0 1 8 8v104a8 8 0 0 1-8 8H408a8 8 0 0 1-8-8z" stroke="#000" stroke-opacity="0" stroke-width="2" fill="#ff8839"/><use xlink:href="#l" transform="matrix(1,0,0,1,405.0000250000001,471.0003173735595) translate(24.216666666666683 38.33333333333333)"/><use xlink:href="#v" transform="matrix(1,0,0,1,405.0000250000001,471.0003173735595) translate(44.77222222222223 38.33333333333333)"/><use xlink:href="#n" transform="matrix(1,0,0,1,405.0000250000001,471.0003173735595) translate(103.62962962962963 38.33333333333333)"/><use xlink:href="#o" transform="matrix(1,0,0,1,405.0000250000001,471.0003173735595) translate(13.5 62.599999999999994)"/><use xlink:href="#p" transform="matrix(1,0,0,1,405.0000250000001,471.0003173735595) translate(28.5 62.599999999999994)"/><use xlink:href="#q" transform="matrix(1,0,0,1,405.0000250000001,471.0003173735595) translate(44 62.599999999999994)"/><use xlink:href="#r" transform="matrix(1,0,0,1,405.0000250000001,471.0003173735595) translate(82.95 62.599999999999994)"/><use xlink:href="#s" transform="matrix(1,0,0,1,405.0000250000001,471.0003173735595) translate(124.85 62.599999999999994)"/><use xlink:href="#t" transform="matrix(1,0,0,1,405.0000250000001,471.0003173735595) translate(161.5 62.599999999999994)"/><use xlink:href="#u" transform="matrix(1,0,0,1,405.0000250000001,471.0003173735595) translate(73.05 84.2)"/><path d="M740 381.16v30.17a12 12 0 0 1-12 12H522a12 12 0 0 0-12 12v14.3" stroke="#3a414a" fill="none"/><path d="M740.5 381.18h-1v-.52h1z" stroke="#3a414a" stroke-width=".05" fill="#3a414a"/><path d="M510 464.38l-4.63-14.26h9.26z" stroke="#3a414a" fill="#3a414a"/><path d="M740 381.16v30.96a12 12 0 0 0 12 12h136a12 12 0 0 1 12 12v15.07" stroke="#3a414a" fill="none"/><path d="M740.5 381.18h-1v-.52h1z" stroke="#3a414a" stroke-width=".05" fill="#3a414a"/><path d="M900 465.96l-4.63-14.27h9.26z" stroke="#3a414a" fill="#3a414a"/><path d="M580 27.92a8.48 8.48 0 0 1 8-8.47L912 .47A7.54 7.54 0 0 1 920 8v104a8 8 0 0 1-8 8H588a8 8 0 0 1-8-8z" stroke="#000" stroke-opacity="0" stroke-width="2" fill="#ff8839"/><use xlink:href="#w" transform="matrix(1,0,0,1,584.9999999999995,25.000000000000007) translate(5.079320987654512 26.555555555555586)"/><use xlink:href="#x" transform="matrix(1,0,0,1,584.9999999999995,25.000000000000007) translate(57.01759259259276 26.555555555555586)"/><use xlink:href="#y" transform="matrix(1,0,0,1,584.9999999999995,25.000000000000007) translate(181.3058641975309 26.555555555555586)"/><use xlink:href="#z" transform="matrix(1,0,0,1,584.9999999999995,25.000000000000007) translate(223.27438271604936 26.555555555555586)"/><use xlink:href="#A" transform="matrix(1,0,0,1,584.9999999999995,25.000000000000007) translate(22.01203703703723 54.37777777777777)"/><use xlink:href="#B" transform="matrix(1,0,0,1,584.9999999999995,25.000000000000007) translate(89.36327160493838 54.37777777777777)"/><use xlink:href="#C" transform="matrix(1,0,0,1,584.9999999999995,25.000000000000007) translate(154.35524691358026 54.37777777777777)"/><use xlink:href="#D" transform="matrix(1,0,0,1,584.9999999999995,25.000000000000007) translate(236.25524691358015 54.37777777777777)"/><use xlink:href="#E" transform="matrix(1,0,0,1,584.9999999999995,25.000000000000007) translate(2.9132716049384726 78.64444444444442)"/><use xlink:href="#F" transform="matrix(1,0,0,1,584.9999999999995,25.000000000000007) translate(91.44166666666675 78.64444444444442)"/><use xlink:href="#G" transform="matrix(1,0,0,1,584.9999999999995,25.000000000000007) translate(159.91635802469136 78.64444444444442)"/><use xlink:href="#H" transform="matrix(1,0,0,1,584.9999999999995,25.000000000000007) translate(253.0509259259258 78.64444444444442)"/><path d="M750 120.5v48.28" stroke="#3a414a" fill="none"/><path d="M750.5 120.5h-1v-.5h1z" stroke="#3a414a" stroke-width=".05" fill="#3a414a"/><path d="M750 183.54l-4.63-14.26h9.26z" stroke="#3a414a" fill="#3a414a"/><path d="M1160 487.23a8 8 0 0 1 8-8h204a8 8 0 0 1 8 8v104a8 8 0 0 1-8 8h-204a8 8 0 0 1-8-8z" stroke="#000" stroke-opacity="0" stroke-width="2" fill="#ff8839"/><use xlink:href="#I" transform="matrix(1,0,0,1,1165.000025,484.2333801195027) translate(16.1314814814815 38.33333333333336)"/><use xlink:href="#J" transform="matrix(1,0,0,1,1165.000025,484.2333801195027) translate(124.04814814814813 38.33333333333336)"/><use xlink:href="#K" transform="matrix(1,0,0,1,1165.000025,484.2333801195027) translate(5.775000000000091 62.60000000000001)"/><use xlink:href="#L" transform="matrix(1,0,0,1,1165.000025,484.2333801195027) translate(59.27500000000005 62.60000000000001)"/><use xlink:href="#M" transform="matrix(1,0,0,1,1165.000025,484.2333801195027) translate(94.27500000000002 62.60000000000001)"/><use xlink:href="#N" transform="matrix(1,0,0,1,1165.000025,484.2333801195027) translate(137.27499999999998 62.60000000000001)"/><use xlink:href="#O" transform="matrix(1,0,0,1,1165.000025,484.2333801195027) translate(65.75000000000003 84.2)"/><use xlink:href="#P" transform="matrix(1,0,0,1,1165.000025,484.2333801195027) translate(95.35000000000001 84.2)"/><path d="M60 456.36a8 8 0 0 1 8-8h204a8 8 0 0 1 8 8v131.6a8 8 0 0 1-8 8H68a8 8 0 0 1-8-8z" stroke="#000" stroke-opacity="0" stroke-width="2" fill="#ff8839"/><use xlink:href="#Q" transform="matrix(1,0,0,1,65.00002500000005,453.3576046133837) translate(28.396296296296327 19.933333333333376)"/><use xlink:href="#J" transform="matrix(1,0,0,1,65.00002500000005,453.3576046133837) translate(111.78333333333333 19.933333333333376)"/><use xlink:href="#R" transform="matrix(1,0,0,1,65.00002500000005,453.3576046133837) translate(25.95000000000006 44.20000000000003)"/><use xlink:href="#S" transform="matrix(1,0,0,1,65.00002500000005,453.3576046133837) translate(75.50000000000001 44.20000000000003)"/><use xlink:href="#T" transform="matrix(1,0,0,1,65.00002500000005,453.3576046133837) translate(100.5 44.20000000000003)"/><use xlink:href="#U" transform="matrix(1,0,0,1,65.00002500000005,453.3576046133837) translate(152.39999999999998 44.20000000000003)"/><use xlink:href="#V" transform="matrix(1,0,0,1,65.00002500000005,453.3576046133837) translate(13.625000000000057 65.80000000000001)"/><use xlink:href="#W" transform="matrix(1,0,0,1,65.00002500000005,453.3576046133837) translate(74.47500000000001 65.80000000000001)"/><use xlink:href="#X" transform="matrix(1,0,0,1,65.00002500000005,453.3576046133837) translate(139.37499999999997 65.80000000000001)"/><use xlink:href="#Y" transform="matrix(1,0,0,1,65.00002500000005,453.3576046133837) translate(25.07500000000006 87.4)"/><use xlink:href="#Z" transform="matrix(1,0,0,1,65.00002500000005,453.3576046133837) translate(94.92500000000001 87.4)"/><use xlink:href="#aa" transform="matrix(1,0,0,1,65.00002500000005,453.3576046133837) translate(114.925 87.4)"/><use xlink:href="#ab" transform="matrix(1,0,0,1,65.00002500000005,453.3576046133837) translate(154.92499999999995 87.4)"/><use xlink:href="#ac" transform="matrix(1,0,0,1,65.00002500000005,453.3576046133837) translate(11.600000000000065 108.99999999999999)"/><use xlink:href="#ad" transform="matrix(1,0,0,1,65.00002500000005,453.3576046133837) translate(62.550000000000026 108.99999999999999)"/><use xlink:href="#Z" transform="matrix(1,0,0,1,65.00002500000005,453.3576046133837) translate(127.49999999999999 108.99999999999999)"/><use xlink:href="#ae" transform="matrix(1,0,0,1,65.00002500000005,453.3576046133837) translate(147.5 108.99999999999999)"/><use xlink:href="#af" transform="matrix(1,0,0,1,65.00002500000005,453.3576046133837) translate(26.07500000000006 130.59999999999997)"/><use xlink:href="#aa" transform="matrix(1,0,0,1,65.00002500000005,453.3576046133837) translate(89.92500000000001 130.59999999999997)"/><use xlink:href="#ag" transform="matrix(1,0,0,1,65.00002500000005,453.3576046133837) translate(129.92499999999998 130.59999999999997)"/><path d="M790 525a8 8 0 0 1 8-8h204a8 8 0 0 1 8 8v104a8 8 0 0 1-8 8H798a8 8 0 0 1-8-8z" stroke="#000" stroke-opacity="0" stroke-width="2" fill="#ff8839"/><g><use xlink:href="#ah" transform="matrix(1,0,0,1,795.0000499999999,522.0000000000002) translate(7.806481481481512 38.33333333333333)"/><use xlink:href="#m" transform="matrix(1,0,0,1,795.0000499999999,522.0000000000002) translate(28.362037037037062 38.33333333333333)"/><use xlink:href="#n" transform="matrix(1,0,0,1,795.0000499999999,522.0000000000002) translate(120.0398148148148 38.33333333333333)"/><use xlink:href="#o" transform="matrix(1,0,0,1,795.0000499999999,522.0000000000002) translate(13.5 62.599999999999994)"/><use xlink:href="#p" transform="matrix(1,0,0,1,795.0000499999999,522.0000000000002) translate(28.5 62.599999999999994)"/><use xlink:href="#q" transform="matrix(1,0,0,1,795.0000499999999,522.0000000000002) translate(44 62.599999999999994)"/><use xlink:href="#r" transform="matrix(1,0,0,1,795.0000499999999,522.0000000000002) translate(82.95 62.599999999999994)"/><use xlink:href="#s" transform="matrix(1,0,0,1,795.0000499999999,522.0000000000002) translate(124.85 62.599999999999994)"/><use xlink:href="#t" transform="matrix(1,0,0,1,795.0000499999999,522.0000000000002) translate(161.5 62.599999999999994)"/><use xlink:href="#u" transform="matrix(1,0,0,1,795.0000499999999,522.0000000000002) translate(73.05 84.2)"/></g><path d="M790 574.2a8 8 0 0 1 8-8h204a8 8 0 0 1 8 8v104a8 8 0 0 1-8 8H798a8 8 0 0 1-8-8z" stroke="#000" stroke-opacity="0" stroke-width="2" fill="#ff8839"/><g><use xlink:href="#ai" transform="matrix(1,0,0,1,795.0000499999999,571.1954653655068) translate(4.380555555555588 38.33333333333333)"/><use xlink:href="#m" transform="matrix(1,0,0,1,795.0000499999999,571.1954653655068) translate(31.78796296296299 38.33333333333333)"/><use xlink:href="#n" transform="matrix(1,0,0,1,795.0000499999999,571.1954653655068) translate(123.46574074074074 38.33333333333333)"/><use xlink:href="#o" transform="matrix(1,0,0,1,795.0000499999999,571.1954653655068) translate(13.5 62.599999999999994)"/><use xlink:href="#p" transform="matrix(1,0,0,1,795.0000499999999,571.1954653655068) translate(28.5 62.599999999999994)"/><use xlink:href="#q" transform="matrix(1,0,0,1,795.0000499999999,571.1954653655068) translate(44 62.599999999999994)"/><use xlink:href="#r" transform="matrix(1,0,0,1,795.0000499999999,571.1954653655068) translate(82.95 62.599999999999994)"/><use xlink:href="#s" transform="matrix(1,0,0,1,795.0000499999999,571.1954653655068) translate(124.85 62.599999999999994)"/><use xlink:href="#t" transform="matrix(1,0,0,1,795.0000499999999,571.1954653655068) translate(161.5 62.599999999999994)"/><use xlink:href="#u" transform="matrix(1,0,0,1,795.0000499999999,571.1954653655068) translate(73.05 84.2)"/></g><path d="M790 625.67a8 8 0 0 1 8-8h204a8 8 0 0 1 8 8v104a8 8 0 0 1-8 8H798a8 8 0 0 1-8-8z" stroke="#000" stroke-opacity="0" stroke-width="2" fill="#ff8839"/><g><use xlink:href="#aj" transform="matrix(1,0,0,1,795.0000499999999,622.6657287215785) translate(7.806481481481512 27.533333333333328)"/><use xlink:href="#m" transform="matrix(1,0,0,1,795.0000499999999,622.6657287215785) translate(28.362037037037062 27.533333333333328)"/><use xlink:href="#n" transform="matrix(1,0,0,1,795.0000499999999,622.6657287215785) translate(120.0398148148148 27.533333333333328)"/><use xlink:href="#o" transform="matrix(1,0,0,1,795.0000499999999,622.6657287215785) translate(13.5 51.79999999999999)"/><use xlink:href="#p" transform="matrix(1,0,0,1,795.0000499999999,622.6657287215785) translate(28.5 51.79999999999999)"/><use xlink:href="#q" transform="matrix(1,0,0,1,795.0000499999999,622.6657287215785) translate(44 51.79999999999999)"/><use xlink:href="#r" transform="matrix(1,0,0,1,795.0000499999999,622.6657287215785) translate(82.95 51.79999999999999)"/><use xlink:href="#s" transform="matrix(1,0,0,1,795.0000499999999,622.6657287215785) translate(124.85 51.79999999999999)"/><use xlink:href="#t" transform="matrix(1,0,0,1,795.0000499999999,622.6657287215785) translate(161.5 51.79999999999999)"/><use xlink:href="#ak" transform="matrix(1,0,0,1,795.0000499999999,622.6657287215785) translate(4.1499999999999915 73.39999999999999)"/><use xlink:href="#al" transform="matrix(1,0,0,1,795.0000499999999,622.6657287215785) translate(78.05 73.39999999999999)"/><use xlink:href="#am" transform="matrix(1,0,0,1,795.0000499999999,622.6657287215785) translate(148 73.39999999999999)"/><use xlink:href="#an" transform="matrix(1,0,0,1,795.0000499999999,622.6657287215785) translate(7.075000000000003 95)"/><use xlink:href="#ao" transform="matrix(1,0,0,1,795.0000499999999,622.6657287215785) translate(68.025 95)"/><use xlink:href="#ap" transform="matrix(1,0,0,1,795.0000499999999,622.6657287215785) translate(108.025 95)"/><use xlink:href="#aq" transform="matrix(1,0,0,1,795.0000499999999,622.6657287215785) translate(148.925 95)"/></g><path d="M400 519.58a8 8 0 0 1 8-8h204a8 8 0 0 1 8 8v104a8 8 0 0 1-8 8H408a8 8 0 0 1-8-8z" stroke="#000" stroke-opacity="0" stroke-width="2" fill="#ff8839"/><g><use xlink:href="#ah" transform="matrix(1,0,0,1,405.0000250000001,516.5811400696141) translate(24.216666666666683 38.33333333333333)"/><use xlink:href="#v" transform="matrix(1,0,0,1,405.0000250000001,516.5811400696141) translate(44.77222222222223 38.33333333333333)"/><use xlink:href="#n" transform="matrix(1,0,0,1,405.0000250000001,516.5811400696141) translate(103.62962962962963 38.33333333333333)"/><use xlink:href="#o" transform="matrix(1,0,0,1,405.0000250000001,516.5811400696141) translate(13.5 62.599999999999994)"/><use xlink:href="#p" transform="matrix(1,0,0,1,405.0000250000001,516.5811400696141) translate(28.5 62.599999999999994)"/><use xlink:href="#q" transform="matrix(1,0,0,1,405.0000250000001,516.5811400696141) translate(44 62.599999999999994)"/><use xlink:href="#r" transform="matrix(1,0,0,1,405.0000250000001,516.5811400696141) translate(82.95 62.599999999999994)"/><use xlink:href="#s" transform="matrix(1,0,0,1,405.0000250000001,516.5811400696141) translate(124.85 62.599999999999994)"/><use xlink:href="#t" transform="matrix(1,0,0,1,405.0000250000001,516.5811400696141) translate(161.5 62.599999999999994)"/><use xlink:href="#u" transform="matrix(1,0,0,1,405.0000250000001,516.5811400696141) translate(73.05 84.2)"/></g><path d="M400 574.25a8 8 0 0 1 8-8h204a8 8 0 0 1 8 8v104a8 8 0 0 1-8 8H408a8 8 0 0 1-8-8z" stroke="#000" stroke-opacity="0" stroke-width="2" fill="#ff8839"/><g><use xlink:href="#ai" transform="matrix(1,0,0,1,405.0000250000001,571.2468687910757) translate(20.79074074074076 38.33333333333333)"/><use xlink:href="#v" transform="matrix(1,0,0,1,405.0000250000001,571.2468687910757) translate(48.198148148148164 38.33333333333333)"/><use xlink:href="#n" transform="matrix(1,0,0,1,405.0000250000001,571.2468687910757) translate(107.05555555555556 38.33333333333333)"/><use xlink:href="#o" transform="matrix(1,0,0,1,405.0000250000001,571.2468687910757) translate(13.5 62.599999999999994)"/><use xlink:href="#p" transform="matrix(1,0,0,1,405.0000250000001,571.2468687910757) translate(28.5 62.599999999999994)"/><use xlink:href="#q" transform="matrix(1,0,0,1,405.0000250000001,571.2468687910757) translate(44 62.599999999999994)"/><use xlink:href="#r" transform="matrix(1,0,0,1,405.0000250000001,571.2468687910757) translate(82.95 62.599999999999994)"/><use xlink:href="#s" transform="matrix(1,0,0,1,405.0000250000001,571.2468687910757) translate(124.85 62.599999999999994)"/><use xlink:href="#t" transform="matrix(1,0,0,1,405.0000250000001,571.2468687910757) translate(161.5 62.599999999999994)"/><use xlink:href="#u" transform="matrix(1,0,0,1,405.0000250000001,571.2468687910757) translate(73.05 84.2)"/></g><path d="M400 622.67a8 8 0 0 1 8-8h204a8 8 0 0 1 8 8v110a8 8 0 0 1-8 8H408a8 8 0 0 1-8-8z" stroke="#000" stroke-opacity="0" stroke-width="2" fill="#ff8839"/><g><use xlink:href="#aj" transform="matrix(1,0,0,1,405.0000250000001,619.6657287215785) translate(24.216666666666683 20.233333333333324)"/><use xlink:href="#v" transform="matrix(1,0,0,1,405.0000250000001,619.6657287215785) translate(44.77222222222223 20.233333333333324)"/><use xlink:href="#n" transform="matrix(1,0,0,1,405.0000250000001,619.6657287215785) translate(103.62962962962963 20.233333333333324)"/><use xlink:href="#o" transform="matrix(1,0,0,1,405.0000250000001,619.6657287215785) translate(13.5 44.499999999999986)"/><use xlink:href="#p" transform="matrix(1,0,0,1,405.0000250000001,619.6657287215785) translate(28.5 44.499999999999986)"/><use xlink:href="#q" transform="matrix(1,0,0,1,405.0000250000001,619.6657287215785) translate(44 44.499999999999986)"/><use xlink:href="#r" transform="matrix(1,0,0,1,405.0000250000001,619.6657287215785) translate(82.95 44.499999999999986)"/><use xlink:href="#s" transform="matrix(1,0,0,1,405.0000250000001,619.6657287215785) translate(124.85 44.499999999999986)"/><use xlink:href="#t" transform="matrix(1,0,0,1,405.0000250000001,619.6657287215785) translate(161.5 44.499999999999986)"/><use xlink:href="#ak" transform="matrix(1,0,0,1,405.0000250000001,619.6657287215785) translate(11.599999999999994 66.1)"/><use xlink:href="#ar" transform="matrix(1,0,0,1,405.0000250000001,619.6657287215785) translate(85.5 66.1)"/><use xlink:href="#t" transform="matrix(1,0,0,1,405.0000250000001,619.6657287215785) translate(163.4 66.1)"/><use xlink:href="#as" transform="matrix(1,0,0,1,405.0000250000001,619.6657287215785) translate(21.549999999999997 87.69999999999999)"/><use xlink:href="#at" transform="matrix(1,0,0,1,405.0000250000001,619.6657287215785) translate(75.55 87.69999999999999)"/><use xlink:href="#au" transform="matrix(1,0,0,1,405.0000250000001,619.6657287215785) translate(100.55 87.69999999999999)"/><use xlink:href="#av" transform="matrix(1,0,0,1,405.0000250000001,619.6657287215785) translate(154.55 87.69999999999999)"/><use xlink:href="#aw" transform="matrix(1,0,0,1,405.0000250000001,619.6657287215785) translate(71.525 109.30000000000001)"/></g><path d="M280.5 522.16h103.12" stroke="#3a414a" fill="none"/><path d="M280.5 522.66h-.5v-1h.5z" stroke="#3a414a" stroke-width=".05" fill="#3a414a"/><path d="M398.38 522.16l-14.26 4.63v-9.28z" stroke="#3a414a" fill="#3a414a"/><path d="M559.5 282.9H182a12 12 0 0 0-12 12v137.07" stroke="#3a414a" fill="none"/><path d="M560 282.9v.5h-.5v-1h.5z" stroke="#3a414a" stroke-width=".05" fill="#3a414a"/><path d="M170 446.74l-4.63-14.27h9.26z" stroke="#3a414a" fill="#3a414a"/><path d="M280.5 522.16H338a12 12 0 0 0 12-12v-66.58a12 12 0 0 1 12-12h381a12 12 0 0 1 12 12v28a12 12 0 0 0 12 12h6.62" stroke="#3a414a" fill="none"/><path d="M280.5 522.66h-.5v-1h.5z" stroke="#3a414a" stroke-width=".05" fill="#3a414a"/><path d="M788.38 483.58l-14.26 4.64v-9.27z" stroke="#3a414a" fill="#3a414a"/><path d="M620.5 498.25h153.12" stroke="#3a414a" fill="none"/><path d="M620.5 498.75h-.5v-1h.5z" stroke="#3a414a" stroke-width=".05" fill="#3a414a"/><path d="M788.38 498.25l-14.26 4.63v-9.27z" stroke="#3a414a" fill="#3a414a"/><path d="M620.5 544.9h153.12" stroke="#3a414a" fill="none"/><path d="M620.5 545.4h-.5v-1h.5z" stroke="#3a414a" stroke-width=".05" fill="#3a414a"/><path d="M788.38 544.9l-14.26 4.65v-9.27z" stroke="#3a414a" fill="#3a414a"/><path d="M620.5 594.25h153.12" stroke="#3a414a" fill="none"/><path d="M620.5 594.75h-.5v-1h.5z" stroke="#3a414a" stroke-width=".05" fill="#3a414a"/><path d="M788.38 594.25l-14.26 4.63v-9.27z" stroke="#3a414a" fill="#3a414a"/><path d="M620.5 654.48h83.95a.55.55 0 0 1 .55.55.55.55 0 0 0 .55.55h68.07" stroke="#3a414a" fill="none"/><path d="M620.5 654.98h-.5v-1h.5z" stroke="#3a414a" stroke-width=".05" fill="#3a414a"/><path d="M788.38 655.58l-14.26 4.64v-9.27z" stroke="#3a414a" fill="#3a414a"/><path d="M1010.5 502.25h62.5a12 12 0 0 1 12 12v12.98a12 12 0 0 0 12 12h46.62" stroke="#3a414a" fill="none"/><path d="M1010.5 502.75h-.5v-1h.5z" stroke="#3a414a" stroke-width=".05" fill="#3a414a"/><path d="M1158.38 539.23l-14.26 4.64v-9.27z" stroke="#3a414a" fill="#3a414a"/><path d="M1010.5 555.58h66.33a8.17 8.17 0 0 0 8.17-8.17 8.17 8.17 0 0 1 8.17-8.17h50.45" stroke="#3a414a" fill="none"/><path d="M1010.5 556.08h-.5v-1h.5z" stroke="#3a414a" stroke-width=".05" fill="#3a414a"/><path d="M1158.38 539.23l-14.26 4.64v-9.27z" stroke="#3a414a" fill="#3a414a"/><path d="M1010.5 599.58h62.5a12 12 0 0 0 12-12v-36.35a12 12 0 0 1 12-12h46.62" stroke="#3a414a" fill="none"/><path d="M1010.5 600.08h-.5v-1h.5z" stroke="#3a414a" stroke-width=".05" fill="#3a414a"/><path d="M1158.38 539.23l-14.26 4.64v-9.27z" stroke="#3a414a" fill="#3a414a"/><path d="M1010.5 656.9h62.5a12 12 0 0 0 12-12v-93.67a12 12 0 0 1 12-12h46.62" stroke="#3a414a" fill="none"/><path d="M1010.5 657.4h-.5v-1h.5z" stroke="#3a414a" stroke-width=".05" fill="#3a414a"/><path d="M1158.38 539.23l-14.26 4.64v-9.27z" stroke="#3a414a" fill="#3a414a"/><path d="M920.5 282.9H1258a12 12 0 0 1 12 12v167.95" stroke="#3a414a" fill="none"/><path d="M920.5 283.4h-.5v-1h.5z" stroke="#3a414a" stroke-width=".05" fill="#3a414a"/><path d="M1270 477.6l-4.63-14.25h9.27z" stroke="#3a414a" fill="#3a414a"/><path d="M290 536.82a8 8 0 0 1 8-8h84a8 8 0 0 1 8 8v54.4a8 8 0 0 1-8 8h-84a8 8 0 0 1-8-8z" stroke="#3a414a" fill="#fff"/><g><use xlink:href="#ax" transform="matrix(1,0,0,1,294.99997499999984,533.8189067165946) translate(9.824999999999996 23.299999999999997)"/><use xlink:href="#ay" transform="matrix(1,0,0,1,294.99997499999984,533.8189067165946) translate(70.67500000000001 23.299999999999997)"/><use xlink:href="#az" transform="matrix(1,0,0,1,294.99997499999984,533.8189067165946) translate(1.4249999999999972 44.9)"/></g><path d="M660 676.08a8 8 0 0 1 8-8h64a8 8 0 0 1 8 8v47.5a8 8 0 0 1-8 8h-64a8 8 0 0 1-8-8z" stroke="#3a414a" fill="#fff"/><g><use xlink:href="#aA" transform="matrix(1,0,0,1,665.000025,673.0802021244865) translate(-0.5 19.799999999999997)"/><use xlink:href="#aB" transform="matrix(1,0,0,1,665.000025,673.0802021244865) translate(16.025 41.4)"/></g><path d="M1060 676.08a8 8 0 0 1 8-8h64a8 8 0 0 1 8 8v47.5a8 8 0 0 1-8 8h-64a8 8 0 0 1-8-8z" stroke="#3a414a" fill="#fff"/><g><use xlink:href="#aC" transform="matrix(1,0,0,1,1065.0000249999996,673.0802021244865) translate(4.049999999999997 19.799999999999997)"/><use xlink:href="#aD" transform="matrix(1,0,0,1,1065.0000249999996,673.0802021244865) translate(16.025 41.4)"/></g><defs><path fill="#fff" d="M14 0l48-248h34L48 0H14" id="aE"/><path fill="#fff" d="M67-158c22-48 132-52 116 29L158 0h-32l25-140c3-38-53-32-70-12C52-117 51-52 38 0H6l36-190h30" id="aF"/><path fill="#fff" d="M55-144c13 50 104 24 104 88C159 21 15 23 1-39l26-10c6 40 102 42 102-4-13-50-104-23-104-87 0-71 143-71 148-8l-29 4c-5-35-85-37-89 0" id="aG"/><path fill="#fff" d="M51-54c-9 22 5 41 31 30L79-1C43 14 10-4 19-52l22-115H19l5-23h22l19-43h21l-9 43h35l-4 23H73" id="aH"/><path fill="#fff" d="M165-48c-4 18 1 34 23 27l-3 20c-29 8-62 0-52-35h-2C116-14 99 4 63 4 30 4 8-16 8-49c0-68 71-67 138-67 10-26 0-56-31-54-26 1-42 9-47 31l-32-5c8-67 160-71 144 15-5 28-9 54-15 81zM42-50c3 52 80 24 89-6 7-12 7-24 11-38-47 1-103-4-100 44" id="aI"/><path fill="#fff" d="M50-231l6-30h32l-6 30H50zM6 0l37-190h31L37 0H6" id="aJ"/><path fill="#fff" d="M111-194c62-3 86 47 72 106H45c-7 38 6 69 45 68 27-1 43-14 53-32l24 11C152-15 129 4 87 4 38 3 12-23 12-71c0-70 32-119 99-123zm44 81c14-66-71-72-95-28-4 8-8 17-11 28h106" id="aK"/><g id="a"><use transform="matrix(0.09938271604938267,0,0,0.09938271604938267,0,0)" xlink:href="#aE"/><use transform="matrix(0.09938271604938267,0,0,0.09938271604938267,9.938271604938267,0)" xlink:href="#aF"/><use transform="matrix(0.09938271604938267,0,0,0.09938271604938267,29.814814814814802,0)" xlink:href="#aG"/><use transform="matrix(0.09938271604938267,0,0,0.09938271604938267,47.70370370370368,0)" xlink:href="#aH"/><use transform="matrix(0.09938271604938267,0,0,0.09938271604938267,57.64197530864195,0)" xlink:href="#aI"/><use transform="matrix(0.09938271604938267,0,0,0.09938271604938267,77.51851851851848,0)" xlink:href="#aF"/><use transform="matrix(0.09938271604938267,0,0,0.09938271604938267,97.395061728395,0)" xlink:href="#aH"/><use transform="matrix(0.09938271604938267,0,0,0.09938271604938267,107.33333333333327,0)" xlink:href="#aJ"/><use transform="matrix(0.09938271604938267,0,0,0.09938271604938267,115.1845679012345,0)" xlink:href="#aI"/><use transform="matrix(0.09938271604938267,0,0,0.09938271604938267,135.06111111111105,0)" xlink:href="#aH"/><use transform="matrix(0.09938271604938267,0,0,0.09938271604938267,144.99938271604933,0)" xlink:href="#aK"/></g><path fill="#fff" d="M238-179c0 84-86 86-175 82L45 0H11l48-248c82 0 179-12 179 69zm-34 1c0-53-64-42-116-43l-19 98c63 0 135 9 135-55" id="aL"/><path fill="#fff" d="M198-190L69 30C53 58 25 83-20 72c4-11-1-27 19-22 33-1 43-29 59-52L20-190h32L79-34l84-156h35" id="aM"/><path fill="#fff" d="M219-77C219 17 104-2 11 0l48-248c73 2 169-15 169 57 0 38-24 54-60 60 29 5 51 21 51 54zm-26-111c0-44-62-31-105-33l-16 79c55 0 121 9 121-46zm-7 110c-1-49-69-36-119-38L50-27c61-1 137 12 136-51" id="aN"/><path fill="#fff" d="M125-24c46 0 70-25 89-51l25 16C214-24 183 4 123 4 8 4-5-146 60-208c32-50 158-61 191-5 5 7 9 14 11 22l-32 10c-9-28-33-43-69-43-74 0-108 51-108 125 0 46 24 75 72 75" id="aO"/><path fill="#fff" d="M17-49c1-102 45-165 103-212h30C92-210 49-145 49-46 49 4 63 43 85 75H54C30 43 18 2 17-49" id="aP"/><path fill="#fff" d="M98-137C97-35 54 29-4 75h-31C23 23 67-41 67-140c0-50-15-89-37-121h31c24 32 36 73 37 124" id="aQ"/><g id="b"><use transform="matrix(0.09938271604938267,0,0,0.09938271604938267,0,0)" xlink:href="#aL"/><use transform="matrix(0.09938271604938267,0,0,0.09938271604938267,23.85185185185184,0)" xlink:href="#aM"/><use transform="matrix(0.09938271604938267,0,0,0.09938271604938267,41.74074074074072,0)" xlink:href="#aN"/><use transform="matrix(0.09938271604938267,0,0,0.09938271604938267,65.59259259259255,0)" xlink:href="#aO"/><use transform="matrix(0.09938271604938267,0,0,0.09938271604938267,91.33271604938267,0)" xlink:href="#aE"/><use transform="matrix(0.09938271604938267,0,0,0.09938271604938267,101.27098765432093,0)" xlink:href="#aP"/><use transform="matrix(0.09938271604938267,0,0,0.09938271604938267,113.09753086419747,0)" xlink:href="#aQ"/></g><g id="c"><use transform="matrix(0.062345679012345605,0,0,0.062345679012345605,0,0)" xlink:href="#aL"/><use transform="matrix(0.062345679012345605,0,0,0.062345679012345605,14.962962962962946,0)" xlink:href="#aI"/><use transform="matrix(0.062345679012345605,0,0,0.062345679012345605,27.432098765432066,0)" xlink:href="#aG"/><use transform="matrix(0.062345679012345605,0,0,0.062345679012345605,38.65432098765427,0)" xlink:href="#aG"/></g><path fill="#fff" d="M89 0H52L20-190h33L74-25l89-165h34" id="aR"/><path fill="#fff" d="M66-151c12-25 30-51 66-40l-6 26C45-176 58-65 38 0H6l36-190h30" id="aS"/><path fill="#fff" d="M68-162c25-46 127-43 121 31C183-60 169 1 98 4 69 5 53-11 43-31L36 0H5l52-261h31zm88 36c2-27-9-43-34-43-55 0-70 51-70 103 0 29 15 45 43 46 52 0 58-58 61-106" id="aT"/><path fill="#fff" d="M6 0l50-261h32L37 0H6" id="aU"/><g id="d"><use transform="matrix(0.062345679012345605,0,0,0.062345679012345605,0,0)" xlink:href="#aR"/><use transform="matrix(0.062345679012345605,0,0,0.062345679012345605,11.222222222222209,0)" xlink:href="#aI"/><use transform="matrix(0.062345679012345605,0,0,0.062345679012345605,23.69135802469133,0)" xlink:href="#aS"/><use transform="matrix(0.062345679012345605,0,0,0.062345679012345605,31.110493827160457,0)" xlink:href="#aJ"/><use transform="matrix(0.062345679012345605,0,0,0.062345679012345605,36.03580246913576,0)" xlink:href="#aI"/><use transform="matrix(0.062345679012345605,0,0,0.062345679012345605,48.50493827160488,0)" xlink:href="#aT"/><use transform="matrix(0.062345679012345605,0,0,0.062345679012345605,60.974074074074,0)" xlink:href="#aU"/><use transform="matrix(0.062345679012345605,0,0,0.062345679012345605,65.8993827160493,0)" xlink:href="#aK"/><use transform="matrix(0.062345679012345605,0,0,0.062345679012345605,78.36851851851843,0)" xlink:href="#aG"/></g><path fill="#fff" d="M30-147c31-64 166-65 159 27C183-49 158 1 86 4 9 8 1-88 30-147zM88-20c53 0 68-48 68-100 0-31-11-51-44-50-52 1-68 46-68 97 0 32 13 53 44 53" id="aV"/><g id="e"><use transform="matrix(0.062345679012345605,0,0,0.062345679012345605,0,0)" xlink:href="#aH"/><use transform="matrix(0.062345679012345605,0,0,0.062345679012345605,6.23456790123456,0)" xlink:href="#aV"/></g><g id="f"><use transform="matrix(0.062345679012345605,0,0,0.062345679012345605,0,0)" xlink:href="#aL"/><use transform="matrix(0.062345679012345605,0,0,0.062345679012345605,14.962962962962946,0)" xlink:href="#aM"/><use transform="matrix(0.062345679012345605,0,0,0.062345679012345605,26.185185185185155,0)" xlink:href="#aN"/><use transform="matrix(0.062345679012345605,0,0,0.062345679012345605,41.1481481481481,0)" xlink:href="#aO"/><use transform="matrix(0.062345679012345605,0,0,0.062345679012345605,57.295679012345616,0)" xlink:href="#aE"/><use transform="matrix(0.062345679012345605,0,0,0.062345679012345605,63.53024691358018,0)" xlink:href="#aP"/><use transform="matrix(0.062345679012345605,0,0,0.062345679012345605,70.9493827160493,0)" xlink:href="#aQ"/></g><path d="M24-248c93 1 206-16 204 79-1 75-69 88-152 82V0H24v-248zm52 121c47 0 100 7 100-41 0-47-54-39-100-39v80" id="aW"/><path d="M123 10C108 53 80 86 19 72V37c35 8 53-11 59-39L3-190h52l48 148c12-52 28-100 44-148h51" id="aX"/><path d="M182-130c37 4 62 22 62 59C244 23 116-4 24 0v-248c84 5 203-23 205 63 0 31-19 50-47 55zM76-148c40-3 101 13 101-30 0-44-60-28-101-31v61zm0 110c48-3 116 14 116-37 0-48-69-32-116-35v72" id="aY"/><path d="M67-125c0 53 21 87 73 88 37 1 54-22 65-47l45 17C233-25 199 4 140 4 58 4 20-42 15-125 8-235 124-281 211-232c18 10 29 29 36 50l-46 12c-8-25-30-41-62-41-52 0-71 34-72 86" id="aZ"/><path d="M24 0v-248h52V0H24" id="ba"/><path d="M35-132v-50h50v50H35zM35 0v-49h50V0H35" id="bb"/><g id="g"><use transform="matrix(0.13024691358024676,0,0,0.13024691358024676,0,0)" xlink:href="#aW"/><use transform="matrix(0.13024691358024676,0,0,0.13024691358024676,31.259259259259224,0)" xlink:href="#aX"/><use transform="matrix(0.13024691358024676,0,0,0.13024691358024676,57.308641975308575,0)" xlink:href="#aY"/><use transform="matrix(0.13024691358024676,0,0,0.13024691358024676,91.04259259259248,0)" xlink:href="#aZ"/><use transform="matrix(0.13024691358024676,0,0,0.13024691358024676,124.7765432098764,0)" xlink:href="#ba"/><use transform="matrix(0.13024691358024676,0,0,0.13024691358024676,137.80123456790108,0)" xlink:href="#bb"/><path d="M-2.34 2.52h158v4.92h-158z"/></g><path d="M135-194c87-1 58 113 63 194h-50c-7-57 23-157-34-157-59 0-34 97-39 157H25l-1-190h47c2 12-1 28 3 38 12-26 28-41 61-42" id="bc"/><path d="M137-138c1-29-70-34-71-4 15 46 118 7 119 86 1 83-164 76-172 9l43-7c4 19 20 25 44 25 33 8 57-30 24-41C81-84 22-81 20-136c-2-80 154-74 161-7" id="bd"/><path d="M115-3C79 11 28 4 28-45v-112H4v-33h27l15-45h31v45h36v33H77v99c-1 23 16 31 38 25v30" id="be"/><path d="M133-34C117-15 103 5 69 4 32 3 11-16 11-54c-1-60 55-63 116-61 1-26-3-47-28-47-18 1-26 9-28 27l-52-2c7-38 36-58 82-57s74 22 75 68l1 82c-1 14 12 18 25 15v27c-30 8-71 5-69-32zm-48 3c29 0 43-24 42-57-32 0-66-3-65 30 0 17 8 27 23 27" id="bf"/><path d="M25-224v-37h50v37H25zM25 0v-190h50V0H25" id="bg"/><path d="M110-194c64 0 96 36 96 99 0 64-35 99-97 99-61 0-95-36-95-99 0-62 34-99 96-99zm-1 164c35 0 45-28 45-65 0-40-10-65-43-65-34 0-45 26-45 65 0 36 10 65 43 65" id="bh"/><g id="h"><use transform="matrix(0.13024691358024676,0,0,0.13024691358024676,0,0)" xlink:href="#ba"/><use transform="matrix(0.13024691358024676,0,0,0.13024691358024676,13.024691358024675,0)" xlink:href="#bc"/><use transform="matrix(0.13024691358024676,0,0,0.13024691358024676,41.54876543209872,0)" xlink:href="#bd"/><use transform="matrix(0.13024691358024676,0,0,0.13024691358024676,67.59814814814807,0)" xlink:href="#be"/><use transform="matrix(0.13024691358024676,0,0,0.13024691358024676,83.09753086419744,0)" xlink:href="#bf"/><use transform="matrix(0.13024691358024676,0,0,0.13024691358024676,109.14691358024679,0)" xlink:href="#bc"/><use transform="matrix(0.13024691358024676,0,0,0.13024691358024676,137.67098765432087,0)" xlink:href="#be"/><use transform="matrix(0.13024691358024676,0,0,0.13024691358024676,153.1703703703702,0)" xlink:href="#bg"/><use transform="matrix(0.13024691358024676,0,0,0.13024691358024676,166.19506172839488,0)" xlink:href="#bf"/><use transform="matrix(0.13024691358024676,0,0,0.13024691358024676,192.24444444444424,0)" xlink:href="#be"/><use transform="matrix(0.13024691358024676,0,0,0.13024691358024676,207.7438271604936,0)" xlink:href="#bg"/><use transform="matrix(0.13024691358024676,0,0,0.13024691358024676,220.76851851851828,0)" xlink:href="#bh"/><use transform="matrix(0.13024691358024676,0,0,0.13024691358024676,249.2925925925923,0)" xlink:href="#bc"/></g><path d="M88-194c31-1 46 15 58 34l-1-101h50l1 261h-48c-2-10 0-23-3-31C134-8 116 4 84 4 32 4 16-41 15-95c0-56 19-97 73-99zm17 164c33 0 40-30 41-66 1-37-9-64-41-64s-38 30-39 65c0 43 13 65 39 65" id="bi"/><g id="i"><use transform="matrix(0.13024691358024676,0,0,0.13024691358024676,0,0)" xlink:href="#bf"/><use transform="matrix(0.13024691358024676,0,0,0.13024691358024676,26.04938271604935,0)" xlink:href="#bc"/><use transform="matrix(0.13024691358024676,0,0,0.13024691358024676,54.57345679012339,0)" xlink:href="#bi"/></g><path d="M114-157C55-157 80-60 75 0H25v-261h50l-1 109c12-26 28-41 61-42 86-1 58 113 63 194h-50c-7-57 23-157-34-157" id="bj"/><path d="M135-150c-39-12-60 13-60 57V0H25l-1-190h47c2 13-1 29 3 40 6-28 27-53 61-41v41" id="bk"/><path d="M185-48c-13 30-37 53-82 52C43 2 14-33 14-96s30-98 90-98c62 0 83 45 84 108H66c0 31 8 55 39 56 18 0 30-7 34-22zm-45-69c5-46-57-63-70-21-2 6-4 13-4 21h74" id="bl"/><g id="j"><use transform="matrix(0.13024691358024676,0,0,0.13024691358024676,0,0)" xlink:href="#be"/><use transform="matrix(0.13024691358024676,0,0,0.13024691358024676,15.499382716049364,0)" xlink:href="#bj"/><use transform="matrix(0.13024691358024676,0,0,0.13024691358024676,44.023456790123404,0)" xlink:href="#bk"/><use transform="matrix(0.13024691358024676,0,0,0.13024691358024676,62.258024691357946,0)" xlink:href="#bl"/><use transform="matrix(0.13024691358024676,0,0,0.13024691358024676,88.3074074074073,0)" xlink:href="#bf"/><use transform="matrix(0.13024691358024676,0,0,0.13024691358024676,114.35679012345665,0)" xlink:href="#bi"/></g><path d="M190-63c-7 42-38 67-86 67-59 0-84-38-90-98-12-110 154-137 174-36l-49 2c-2-19-15-32-35-32-30 0-35 28-38 64-6 74 65 87 74 30" id="bm"/><g id="k"><use transform="matrix(0.13024691358024676,0,0,0.13024691358024676,0,0)" xlink:href="#bm"/><use transform="matrix(0.13024691358024676,0,0,0.13024691358024676,26.04938271604935,0)" xlink:href="#bk"/><use transform="matrix(0.13024691358024676,0,0,0.13024691358024676,44.28395061728389,0)" xlink:href="#bl"/><use transform="matrix(0.13024691358024676,0,0,0.13024691358024676,70.33333333333324,0)" xlink:href="#bf"/><use transform="matrix(0.13024691358024676,0,0,0.13024691358024676,96.38271604938258,0)" xlink:href="#be"/><use transform="matrix(0.13024691358024676,0,0,0.13024691358024676,111.88209876543196,0)" xlink:href="#bg"/><use transform="matrix(0.13024691358024676,0,0,0.13024691358024676,124.90679012345663,0)" xlink:href="#bh"/><use transform="matrix(0.13024691358024676,0,0,0.13024691358024676,153.43086419753064,0)" xlink:href="#bc"/></g><path fill="#fff" d="M9 0l6-27h63l36-188-63 39 6-31 66-41h29L110-27h60l-5 27H9" id="bn"/><use transform="matrix(0.0685185185185185,0,0,0.0685185185185185,0,0)" xlink:href="#bn" id="l"/><path fill="#fff" d="M87-220l-18 92h140l-5 28H64L45 0H11l48-248h178l-5 28H87" id="bo"/><path fill="#fff" d="M67 3c-93-2-31-127-26-193h32L48-50c-3 39 53 32 70 12 30-34 30-101 43-152h32L157 0h-30c1-10 6-24 4-33-14 20-29 37-64 36" id="bp"/><g id="m"><use transform="matrix(0.0685185185185185,0,0,0.0685185185185185,0,0)" xlink:href="#bo"/><use transform="matrix(0.0685185185185185,0,0,0.0685185185185185,15.005555555555553,0)" xlink:href="#aK"/><use transform="matrix(0.0685185185185185,0,0,0.0685185185185185,28.709259259259255,0)" xlink:href="#aI"/><use transform="matrix(0.0685185185185185,0,0,0.0685185185185185,42.41296296296296,0)" xlink:href="#aH"/><use transform="matrix(0.0685185185185185,0,0,0.0685185185185185,49.264814814814805,0)" xlink:href="#bp"/><use transform="matrix(0.0685185185185185,0,0,0.0685185185185185,62.96851851851851,0)" xlink:href="#aS"/><use transform="matrix(0.0685185185185185,0,0,0.0685185185185185,71.1222222222222,0)" xlink:href="#aK"/></g><path fill="#fff" d="M67-158c15-20 31-36 64-36 94 0 33 127 27 194h-32l25-140c3-38-53-32-70-12C52-117 51-51 37 0H6l51-261h31" id="bq"/><path fill="#fff" d="M133-28C103 26-5 8 13-77c13-62 24-115 90-117 29-1 46 15 56 35l19-102h32L160 0h-30zM45-64c-2 27 10 43 35 43 54-1 69-50 69-103 0-29-15-46-42-46-53-1-58 58-62 106" id="br"/><g id="n"><use transform="matrix(0.0685185185185185,0,0,0.0685185185185185,0,0)" xlink:href="#aH"/><use transform="matrix(0.0685185185185185,0,0,0.0685185185185185,6.85185185185185,0)" xlink:href="#bq"/><use transform="matrix(0.0685185185185185,0,0,0.0685185185185185,20.555555555555554,0)" xlink:href="#aS"/><use transform="matrix(0.0685185185185185,0,0,0.0685185185185185,28.70925925925925,0)" xlink:href="#aK"/><use transform="matrix(0.0685185185185185,0,0,0.0685185185185185,42.41296296296295,0)" xlink:href="#aI"/><use transform="matrix(0.0685185185185185,0,0,0.0685185185185185,56.11666666666666,0)" xlink:href="#br"/><use transform="matrix(0.0685185185185185,0,0,0.0685185185185185,69.82037037037036,0)" xlink:href="#aG"/></g><use transform="matrix(0.05,0,0,0.05,0,0)" xlink:href="#aF" id="o"/><path fill="#fff" d="M23-150v-26h175v26H23zm0 90v-26h175v26H23" id="bs"/><use transform="matrix(0.05,0,0,0.05,0,0)" xlink:href="#bs" id="p"/><g id="q"><use transform="matrix(0.05,0,0,0.05,0,0)" xlink:href="#aH"/><use transform="matrix(0.05,0,0,0.05,5,0)" xlink:href="#aV"/><use transform="matrix(0.05,0,0,0.05,15,0)" xlink:href="#aH"/><use transform="matrix(0.05,0,0,0.05,20,0)" xlink:href="#aI"/><use transform="matrix(0.05,0,0,0.05,30,0)" xlink:href="#aU"/></g><g id="r"><use transform="matrix(0.05,0,0,0.05,0,0)" xlink:href="#aR"/><use transform="matrix(0.05,0,0,0.05,9,0)" xlink:href="#aI"/><use transform="matrix(0.05,0,0,0.05,19,0)" xlink:href="#aU"/><use transform="matrix(0.05,0,0,0.05,22.95,0)" xlink:href="#aJ"/><use transform="matrix(0.05,0,0,0.05,26.899999999999995,0)" xlink:href="#br"/></g><path fill="#fff" d="M11 0l48-248h34L50-27h125l-5 27H11" id="bt"/><path fill="#fff" d="M194-120c59 52 2 134-86 124-53-6-90-18-98-63l31-7c8 30 29 43 70 43 46 0 84-17 71-62-32-43-135-20-137-98-3-89 178-90 191-16l-30 9c-8-48-127-53-127 5 0 53 81 35 115 65" id="bu"/><g id="s"><use transform="matrix(0.05,0,0,0.05,0,0)" xlink:href="#bt"/><use transform="matrix(0.05,0,0,0.05,10,0)" xlink:href="#bu"/><use transform="matrix(0.05,0,0,0.05,22,0)" xlink:href="#bt"/></g><g id="t"><use transform="matrix(0.05,0,0,0.05,0,0)" xlink:href="#br"/><use transform="matrix(0.05,0,0,0.05,10,0)" xlink:href="#aI"/><use transform="matrix(0.05,0,0,0.05,20,0)" xlink:href="#aH"/><use transform="matrix(0.05,0,0,0.05,25,0)" xlink:href="#aI"/></g><path fill="#fff" d="M248-111c6-24 9-61-24-58-72 9-57 108-77 169h-31l26-142c3-37-50-30-64-10C52-115 50-51 37 0H6l36-190h30c-1 10-6 24-4 32 13-43 101-52 105 5 13-22 29-41 61-41 90 0 28 129 23 194h-31" id="bv"/><g id="u"><use transform="matrix(0.05,0,0,0.05,0,0)" xlink:href="#aG"/><use transform="matrix(0.05,0,0,0.05,9,0)" xlink:href="#aH"/><use transform="matrix(0.05,0,0,0.05,14,0)" xlink:href="#aS"/><use transform="matrix(0.05,0,0,0.05,19.95,0)" xlink:href="#aK"/><use transform="matrix(0.05,0,0,0.05,29.950000000000003,0)" xlink:href="#aI"/><use transform="matrix(0.05,0,0,0.05,39.95,0)" xlink:href="#bv"/><use transform="matrix(0.05,0,0,0.05,54.900000000000006,0)" xlink:href="#aG"/></g><path fill="#fff" d="M248-139C247-14 144 9 11 0l48-248c105-6 190 8 189 109zm-34 0c1-70-52-87-126-82L50-27c98 7 163-21 164-112" id="bw"/><g id="v"><use transform="matrix(0.0685185185185185,0,0,0.0685185185185185,0,0)" xlink:href="#bw"/><use transform="matrix(0.0685185185185185,0,0,0.0685185185185185,17.746296296296293,0)" xlink:href="#aI"/><use transform="matrix(0.0685185185185185,0,0,0.0685185185185185,31.449999999999996,0)" xlink:href="#aH"/><use transform="matrix(0.0685185185185185,0,0,0.0685185185185185,38.30185185185184,0)" xlink:href="#aI"/></g><g id="w"><use transform="matrix(0.0685185185185185,0,0,0.0685185185185185,0,0)" xlink:href="#bu"/><use transform="matrix(0.0685185185185185,0,0,0.0685185185185185,16.444444444444443,0)" xlink:href="#aK"/><use transform="matrix(0.0685185185185185,0,0,0.0685185185185185,30.148148148148145,0)" xlink:href="#aH"/></g><g id="x"><use transform="matrix(0.0808641975308641,0,0,0.0808641975308641,0,0)" xlink:href="#aR"/><use transform="matrix(0.0808641975308641,0,0,0.0808641975308641,14.555555555555538,0)" xlink:href="#aI"/><use transform="matrix(0.0808641975308641,0,0,0.0808641975308641,30.72839506172836,0)" xlink:href="#aS"/><use transform="matrix(0.0808641975308641,0,0,0.0808641975308641,40.35123456790119,0)" xlink:href="#aJ"/><use transform="matrix(0.0808641975308641,0,0,0.0808641975308641,46.73950617283945,0)" xlink:href="#aI"/><use transform="matrix(0.0808641975308641,0,0,0.0808641975308641,62.91234567901228,0)" xlink:href="#aT"/><use transform="matrix(0.0808641975308641,0,0,0.0808641975308641,79.0851851851851,0)" xlink:href="#aU"/><use transform="matrix(0.0808641975308641,0,0,0.0808641975308641,85.47345679012338,0)" xlink:href="#aK"/><use transform="matrix(0.0808641975308641,0,0,0.0808641975308641,101.6462962962962,0)" xlink:href="#aG"/></g><path fill="#fff" d="M76-167L44 0H12l33-167H18l4-23h27c3-47 25-81 82-69l-4 24c-35-8-44 15-46 45h37l-5 23H76" id="bx"/><g id="y"><use transform="matrix(0.0808641975308641,0,0,0.0808641975308641,0,0)" xlink:href="#bx"/><use transform="matrix(0.0808641975308641,0,0,0.0808641975308641,8.08641975308641,0)" xlink:href="#aV"/><use transform="matrix(0.0808641975308641,0,0,0.0808641975308641,24.25925925925923,0)" xlink:href="#aS"/></g><g id="z"><use transform="matrix(0.0808641975308641,0,0,0.0808641975308641,0,0)" xlink:href="#aL"/><use transform="matrix(0.0808641975308641,0,0,0.0808641975308641,19.407407407407383,0)" xlink:href="#aM"/><use transform="matrix(0.0808641975308641,0,0,0.0808641975308641,33.96296296296292,0)" xlink:href="#aN"/><use transform="matrix(0.0808641975308641,0,0,0.0808641975308641,53.37037037037031,0)" xlink:href="#aO"/><use transform="matrix(0.0808641975308641,0,0,0.0808641975308641,74.3141975308641,0)" xlink:href="#aE"/><use transform="matrix(0.0808641975308641,0,0,0.0808641975308641,82.40061728395051,0)" xlink:href="#aP"/><use transform="matrix(0.0808641975308641,0,0,0.0808641975308641,92.02345679012333,0)" xlink:href="#aQ"/></g><path fill="#fff" d="M67-162c32-53 139-36 121 50C175-51 163 2 97 4 68 4 52-11 42-31 38 6 28 39 22 75H-9l50-265h29c-1 10 0 20-3 28zm89 36c0-26-10-43-35-43-54 0-67 50-69 103-1 29 14 45 42 46 53 0 62-58 62-106" id="by"/><path fill="#fff" d="M44-68c0 29 11 47 38 47 30 0 42-19 51-41l28 9C148-21 126 4 82 4 31 4 10-29 12-85c3-77 74-140 146-93 12 8 15 23 18 40l-31 5c-1-22-13-36-36-36-52 0-65 49-65 101" id="bz"/><g id="A"><use transform="matrix(0.05617283950617276,0,0,0.05617283950617276,0,0)" xlink:href="#aP"/><use transform="matrix(0.05617283950617276,0,0,0.05617283950617276,6.6845679012345585,0)" xlink:href="#aK"/><use transform="matrix(0.05617283950617276,0,0,0.05617283950617276,17.91913580246911,0)" xlink:href="#by"/><use transform="matrix(0.05617283950617276,0,0,0.05617283950617276,29.153703703703663,0)" xlink:href="#aV"/><use transform="matrix(0.05617283950617276,0,0,0.05617283950617276,40.38827160493821,0)" xlink:href="#bz"/><use transform="matrix(0.05617283950617276,0,0,0.05617283950617276,50.49938271604931,0)" xlink:href="#bq"/></g><path fill="#fff" d="M103-194c29 0 47 14 56 36 2-11 5-23 8-32h30L160-5C157 61 82 97 21 62 9 55 4 45 1 30l28-7c7 42 83 31 92-3 4-16 9-38 13-55-13 20-29 36-62 36-40 0-60-25-60-64 0-71 23-131 91-131zm4 24c-53 0-58 54-61 104-2 27 10 44 36 44 49 0 65-50 67-102 1-29-15-46-42-46" id="bA"/><path fill="#fff" d="M58-38C53-5 46 26 28 46H7C19 32 27 18 32 0H17l7-38h34" id="bB"/><g id="B"><use transform="matrix(0.05617283950617276,0,0,0.05617283950617276,0,0)" xlink:href="#aH"/><use transform="matrix(0.05617283950617276,0,0,0.05617283950617276,5.617283950617276,0)" xlink:href="#aJ"/><use transform="matrix(0.05617283950617276,0,0,0.05617283950617276,10.054938271604925,0)" xlink:href="#bv"/><use transform="matrix(0.05617283950617276,0,0,0.05617283950617276,26.85061728395058,0)" xlink:href="#aJ"/><use transform="matrix(0.05617283950617276,0,0,0.05617283950617276,31.288271604938227,0)" xlink:href="#aF"/><use transform="matrix(0.05617283950617276,0,0,0.05617283950617276,42.52283950617278,0)" xlink:href="#bA"/><use transform="matrix(0.05617283950617276,0,0,0.05617283950617276,53.75740740740733,0)" xlink:href="#bB"/></g><g id="C"><use transform="matrix(0.05617283950617276,0,0,0.05617283950617276,0,0)" xlink:href="#bv"/><use transform="matrix(0.05617283950617276,0,0,0.05617283950617276,16.795679012345655,0)" xlink:href="#aI"/><use transform="matrix(0.05617283950617276,0,0,0.05617283950617276,28.030246913580207,0)" xlink:href="#bz"/><use transform="matrix(0.05617283950617276,0,0,0.05617283950617276,38.1413580246913,0)" xlink:href="#bq"/><use transform="matrix(0.05617283950617276,0,0,0.05617283950617276,49.375925925925856,0)" xlink:href="#aJ"/><use transform="matrix(0.05617283950617276,0,0,0.05617283950617276,53.8135802469135,0)" xlink:href="#aF"/><use transform="matrix(0.05617283950617276,0,0,0.05617283950617276,65.04814814814806,0)" xlink:href="#aK"/></g><g id="D"><use transform="matrix(0.05617283950617276,0,0,0.05617283950617276,0,0)" xlink:href="#aU"/><use transform="matrix(0.05617283950617276,0,0,0.05617283950617276,4.437654320987648,0)" xlink:href="#aK"/><use transform="matrix(0.05617283950617276,0,0,0.05617283950617276,15.6722222222222,0)" xlink:href="#aI"/><use transform="matrix(0.05617283950617276,0,0,0.05617283950617276,26.90679012345675,0)" xlink:href="#aS"/><use transform="matrix(0.05617283950617276,0,0,0.05617283950617276,33.59135802469131,0)" xlink:href="#aF"/><use transform="matrix(0.05617283950617276,0,0,0.05617283950617276,44.82592592592586,0)" xlink:href="#aJ"/><use transform="matrix(0.05617283950617276,0,0,0.05617283950617276,49.263580246913506,0)" xlink:href="#aF"/><use transform="matrix(0.05617283950617276,0,0,0.05617283950617276,60.49814814814806,0)" xlink:href="#bA"/></g><g id="E"><use transform="matrix(0.05617283950617276,0,0,0.05617283950617276,0,0)" xlink:href="#bz"/><use transform="matrix(0.05617283950617276,0,0,0.05617283950617276,10.111111111111097,0)" xlink:href="#aU"/><use transform="matrix(0.05617283950617276,0,0,0.05617283950617276,14.548765432098744,0)" xlink:href="#aI"/><use transform="matrix(0.05617283950617276,0,0,0.05617283950617276,25.783333333333296,0)" xlink:href="#aG"/><use transform="matrix(0.05617283950617276,0,0,0.05617283950617276,35.89444444444439,0)" xlink:href="#aG"/><use transform="matrix(0.05617283950617276,0,0,0.05617283950617276,46.00555555555549,0)" xlink:href="#aJ"/><use transform="matrix(0.05617283950617276,0,0,0.05617283950617276,50.443209876543136,0)" xlink:href="#bx"/><use transform="matrix(0.05617283950617276,0,0,0.05617283950617276,56.060493827160414,0)" xlink:href="#aJ"/><use transform="matrix(0.05617283950617276,0,0,0.05617283950617276,60.49814814814806,0)" xlink:href="#aK"/><use transform="matrix(0.05617283950617276,0,0,0.05617283950617276,71.73271604938262,0)" xlink:href="#aS"/><use transform="matrix(0.05617283950617276,0,0,0.05617283950617276,77.29382716049372,0)" xlink:href="#bB"/></g><g id="F"><use transform="matrix(0.05617283950617276,0,0,0.05617283950617276,0,0)" xlink:href="#bx"/><use transform="matrix(0.05617283950617276,0,0,0.05617283950617276,5.617283950617276,0)" xlink:href="#aK"/><use transform="matrix(0.05617283950617276,0,0,0.05617283950617276,16.851851851851826,0)" xlink:href="#aI"/><use transform="matrix(0.05617283950617276,0,0,0.05617283950617276,28.08641975308638,0)" xlink:href="#aH"/><use transform="matrix(0.05617283950617276,0,0,0.05617283950617276,33.70370370370365,0)" xlink:href="#bp"/><use transform="matrix(0.05617283950617276,0,0,0.05617283950617276,44.93827160493821,0)" xlink:href="#aS"/><use transform="matrix(0.05617283950617276,0,0,0.05617283950617276,51.62283950617277,0)" xlink:href="#aK"/></g><path fill="#fff" d="M124 0L87-78 21 0h-35l86-98-46-92h33l34 74 61-74h37l-83 92 50 98h-34" id="bC"/><g id="G"><use transform="matrix(0.05617283950617276,0,0,0.05617283950617276,0,0)" xlink:href="#aK"/><use transform="matrix(0.05617283950617276,0,0,0.05617283950617276,11.234567901234552,0)" xlink:href="#bC"/><use transform="matrix(0.05617283950617276,0,0,0.05617283950617276,21.34567901234565,0)" xlink:href="#aH"/><use transform="matrix(0.05617283950617276,0,0,0.05617283950617276,26.962962962962926,0)" xlink:href="#aS"/><use transform="matrix(0.05617283950617276,0,0,0.05617283950617276,33.647530864197485,0)" xlink:href="#aI"/><use transform="matrix(0.05617283950617276,0,0,0.05617283950617276,44.88209876543203,0)" xlink:href="#bz"/><use transform="matrix(0.05617283950617276,0,0,0.05617283950617276,54.99320987654313,0)" xlink:href="#aH"/><use transform="matrix(0.05617283950617276,0,0,0.05617283950617276,60.610493827160404,0)" xlink:href="#aJ"/><use transform="matrix(0.05617283950617276,0,0,0.05617283950617276,65.04814814814806,0)" xlink:href="#aV"/><use transform="matrix(0.05617283950617276,0,0,0.05617283950617276,76.28271604938261,0)" xlink:href="#aF"/></g><g id="H"><use transform="matrix(0.05617283950617276,0,0,0.05617283950617276,0,0)" xlink:href="#bv"/><use transform="matrix(0.05617283950617276,0,0,0.05617283950617276,16.795679012345655,0)" xlink:href="#aK"/><use transform="matrix(0.05617283950617276,0,0,0.05617283950617276,28.030246913580207,0)" xlink:href="#aH"/><use transform="matrix(0.05617283950617276,0,0,0.05617283950617276,33.647530864197485,0)" xlink:href="#bq"/><use transform="matrix(0.05617283950617276,0,0,0.05617283950617276,44.88209876543203,0)" xlink:href="#aV"/><use transform="matrix(0.05617283950617276,0,0,0.05617283950617276,56.11666666666659,0)" xlink:href="#br"/><use transform="matrix(0.05617283950617276,0,0,0.05617283950617276,67.35123456790114,0)" xlink:href="#aQ"/></g><g id="I"><use transform="matrix(0.0685185185185185,0,0,0.0685185185185185,0,0)" xlink:href="#aO"/><use transform="matrix(0.0685185185185185,0,0,0.0685185185185185,17.746296296296293,0)" xlink:href="#aU"/><use transform="matrix(0.0685185185185185,0,0,0.0685185185185185,23.159259259259255,0)" xlink:href="#aI"/><use transform="matrix(0.0685185185185185,0,0,0.0685185185185185,36.86296296296295,0)" xlink:href="#aG"/><use transform="matrix(0.0685185185185185,0,0,0.0685185185185185,49.19629629629628,0)" xlink:href="#aG"/><use transform="matrix(0.0685185185185185,0,0,0.0685185185185185,61.52962962962961,0)" xlink:href="#aJ"/><use transform="matrix(0.0685185185185185,0,0,0.0685185185185185,66.94259259259258,0)" xlink:href="#bx"/><use transform="matrix(0.0685185185185185,0,0,0.0685185185185185,73.79444444444441,0)" xlink:href="#aJ"/><use transform="matrix(0.0685185185185185,0,0,0.0685185185185185,79.20740740740739,0)" xlink:href="#aK"/><use transform="matrix(0.0685185185185185,0,0,0.0685185185185185,92.91111111111108,0)" xlink:href="#aS"/></g><g id="J"><use transform="matrix(0.0685185185185185,0,0,0.0685185185185185,0,0)" xlink:href="#aH"/><use transform="matrix(0.0685185185185185,0,0,0.0685185185185185,6.85185185185185,0)" xlink:href="#bq"/><use transform="matrix(0.0685185185185185,0,0,0.0685185185185185,20.555555555555554,0)" xlink:href="#aS"/><use transform="matrix(0.0685185185185185,0,0,0.0685185185185185,28.70925925925925,0)" xlink:href="#aK"/><use transform="matrix(0.0685185185185185,0,0,0.0685185185185185,42.41296296296295,0)" xlink:href="#aI"/><use transform="matrix(0.0685185185185185,0,0,0.0685185185185185,56.11666666666666,0)" xlink:href="#br"/></g><path fill="#fff" d="M151-220L108 0H75l42-220H32l6-28h203l-5 28h-85" id="bD"/><g id="K"><use transform="matrix(0.04999999999999997,0,0,0.04999999999999997,0,0)" xlink:href="#bD"/><use transform="matrix(0.04999999999999997,0,0,0.04999999999999997,9.599999999999993,0)" xlink:href="#aS"/><use transform="matrix(0.04999999999999997,0,0,0.04999999999999997,15.54999999999999,0)" xlink:href="#aI"/><use transform="matrix(0.04999999999999997,0,0,0.04999999999999997,25.549999999999983,0)" xlink:href="#aJ"/><use transform="matrix(0.04999999999999997,0,0,0.04999999999999997,29.499999999999982,0)" xlink:href="#aF"/><use transform="matrix(0.04999999999999997,0,0,0.04999999999999997,39.49999999999997,0)" xlink:href="#aG"/></g><g id="L"><use transform="matrix(0.04999999999999997,0,0,0.04999999999999997,0,0)" xlink:href="#aI"/><use transform="matrix(0.04999999999999997,0,0,0.04999999999999997,9.999999999999993,0)" xlink:href="#aF"/><use transform="matrix(0.04999999999999997,0,0,0.04999999999999997,19.999999999999986,0)" xlink:href="#br"/></g><g id="M"><use transform="matrix(0.04999999999999997,0,0,0.04999999999999997,0,0)" xlink:href="#aH"/><use transform="matrix(0.04999999999999997,0,0,0.04999999999999997,4.9999999999999964,0)" xlink:href="#aK"/><use transform="matrix(0.04999999999999997,0,0,0.04999999999999997,14.999999999999991,0)" xlink:href="#aG"/><use transform="matrix(0.04999999999999997,0,0,0.04999999999999997,23.999999999999986,0)" xlink:href="#aH"/><use transform="matrix(0.04999999999999997,0,0,0.04999999999999997,28.999999999999982,0)" xlink:href="#aG"/></g><g id="N"><use transform="matrix(0.04999999999999997,0,0,0.04999999999999997,0,0)" xlink:href="#aG"/><use transform="matrix(0.04999999999999997,0,0,0.04999999999999997,8.999999999999995,0)" xlink:href="#aK"/><use transform="matrix(0.04999999999999997,0,0,0.04999999999999997,18.999999999999986,0)" xlink:href="#aU"/><use transform="matrix(0.04999999999999997,0,0,0.04999999999999997,22.94999999999998,0)" xlink:href="#aK"/><use transform="matrix(0.04999999999999997,0,0,0.04999999999999997,32.949999999999974,0)" xlink:href="#bz"/><use transform="matrix(0.04999999999999997,0,0,0.04999999999999997,41.94999999999997,0)" xlink:href="#aH"/><use transform="matrix(0.04999999999999997,0,0,0.04999999999999997,46.94999999999996,0)" xlink:href="#aK"/><use transform="matrix(0.04999999999999997,0,0,0.04999999999999997,56.94999999999995,0)" xlink:href="#br"/></g><path fill="#fff" d="M222 0l43-216c-8 16-17 34-26 49L143 0h-22L81-216 41 0H11l48-248h42l38 208 116-208h45L252 0h-30" id="bE"/><g id="O"><use transform="matrix(0.04999999999999997,0,0,0.04999999999999997,0,0)" xlink:href="#bE"/><use transform="matrix(0.04999999999999997,0,0,0.04999999999999997,14.94999999999999,0)" xlink:href="#bt"/></g><g id="P"><use transform="matrix(0.04999999999999997,0,0,0.04999999999999997,0,0)" xlink:href="#bv"/><use transform="matrix(0.04999999999999997,0,0,0.04999999999999997,14.94999999999999,0)" xlink:href="#aV"/><use transform="matrix(0.04999999999999997,0,0,0.04999999999999997,24.94999999999998,0)" xlink:href="#br"/><use transform="matrix(0.04999999999999997,0,0,0.04999999999999997,34.949999999999974,0)" xlink:href="#aK"/><use transform="matrix(0.04999999999999997,0,0,0.04999999999999997,44.94999999999997,0)" xlink:href="#aU"/></g><path fill="#fff" d="M127 0L80-88 50-66 37 0H6l51-261h31L57-100l99-90h39l-93 82L161 0h-34" id="bF"/><g id="Q"><use transform="matrix(0.0685185185185185,0,0,0.0685185185185185,0,0)" xlink:href="#bE"/><use transform="matrix(0.0685185185185185,0,0,0.0685185185185185,20.487037037037034,0)" xlink:href="#aI"/><use transform="matrix(0.0685185185185185,0,0,0.0685185185185185,34.190740740740736,0)" xlink:href="#aS"/><use transform="matrix(0.0685185185185185,0,0,0.0685185185185185,42.344444444444434,0)" xlink:href="#bF"/><use transform="matrix(0.0685185185185185,0,0,0.0685185185185185,54.67777777777776,0)" xlink:href="#aK"/><use transform="matrix(0.0685185185185185,0,0,0.0685185185185185,68.38148148148146,0)" xlink:href="#aS"/></g><path fill="#fff" d="M247 0h-39l-15-214-24 57L95 0H56L31-248h35L82-30l101-218h33l16 218 101-218h35" id="bG"/><g id="R"><use transform="matrix(0.04999999999999997,0,0,0.04999999999999997,0,0)" xlink:href="#bG"/><use transform="matrix(0.04999999999999997,0,0,0.04999999999999997,16.599999999999987,0)" xlink:href="#aI"/><use transform="matrix(0.04999999999999997,0,0,0.04999999999999997,26.599999999999977,0)" xlink:href="#aJ"/><use transform="matrix(0.04999999999999997,0,0,0.04999999999999997,30.549999999999976,0)" xlink:href="#aH"/><use transform="matrix(0.04999999999999997,0,0,0.04999999999999997,35.54999999999997,0)" xlink:href="#aG"/></g><g id="S"><use transform="matrix(0.04999999999999997,0,0,0.04999999999999997,0,0)" xlink:href="#aV"/><use transform="matrix(0.04999999999999997,0,0,0.04999999999999997,9.999999999999993,0)" xlink:href="#aF"/></g><g id="T"><use transform="matrix(0.04999999999999997,0,0,0.04999999999999997,0,0)" xlink:href="#aG"/><use transform="matrix(0.04999999999999997,0,0,0.04999999999999997,8.999999999999995,0)" xlink:href="#aJ"/><use transform="matrix(0.04999999999999997,0,0,0.04999999999999997,12.949999999999992,0)" xlink:href="#aF"/><use transform="matrix(0.04999999999999997,0,0,0.04999999999999997,22.949999999999985,0)" xlink:href="#bA"/><use transform="matrix(0.04999999999999997,0,0,0.04999999999999997,32.949999999999974,0)" xlink:href="#aU"/><use transform="matrix(0.04999999999999997,0,0,0.04999999999999997,36.89999999999997,0)" xlink:href="#aK"/></g><g id="U"><use transform="matrix(0.04999999999999997,0,0,0.04999999999999997,0,0)" xlink:href="#bt"/><use transform="matrix(0.04999999999999997,0,0,0.04999999999999997,9.999999999999993,0)" xlink:href="#bu"/><use transform="matrix(0.04999999999999997,0,0,0.04999999999999997,21.999999999999986,0)" xlink:href="#bt"/></g><g id="V"><use transform="matrix(0.04999999999999997,0,0,0.04999999999999997,0,0)" xlink:href="#bv"/><use transform="matrix(0.04999999999999997,0,0,0.04999999999999997,14.94999999999999,0)" xlink:href="#aI"/><use transform="matrix(0.04999999999999997,0,0,0.04999999999999997,24.94999999999998,0)" xlink:href="#aS"/><use transform="matrix(0.04999999999999997,0,0,0.04999999999999997,30.899999999999974,0)" xlink:href="#bF"/><use transform="matrix(0.04999999999999997,0,0,0.04999999999999997,39.89999999999997,0)" xlink:href="#aK"/><use transform="matrix(0.04999999999999997,0,0,0.04999999999999997,49.89999999999996,0)" xlink:href="#aS"/></g><path fill="#fff" d="M14 0l8-38h34L48 0H14" id="bH"/><g id="W"><use transform="matrix(0.04999999999999997,0,0,0.04999999999999997,0,0)" xlink:href="#aG"/><use transform="matrix(0.04999999999999997,0,0,0.04999999999999997,8.999999999999995,0)" xlink:href="#aH"/><use transform="matrix(0.04999999999999997,0,0,0.04999999999999997,13.999999999999991,0)" xlink:href="#aS"/><use transform="matrix(0.04999999999999997,0,0,0.04999999999999997,19.94999999999999,0)" xlink:href="#aK"/><use transform="matrix(0.04999999999999997,0,0,0.04999999999999997,29.94999999999998,0)" xlink:href="#aI"/><use transform="matrix(0.04999999999999997,0,0,0.04999999999999997,39.949999999999974,0)" xlink:href="#bv"/><use transform="matrix(0.04999999999999997,0,0,0.04999999999999997,54.89999999999996,0)" xlink:href="#bH"/></g><g id="X"><use transform="matrix(0.04999999999999997,0,0,0.04999999999999997,0,0)" xlink:href="#by"/><use transform="matrix(0.04999999999999997,0,0,0.04999999999999997,9.999999999999993,0)" xlink:href="#aI"/><use transform="matrix(0.04999999999999997,0,0,0.04999999999999997,19.999999999999986,0)" xlink:href="#aG"/><use transform="matrix(0.04999999999999997,0,0,0.04999999999999997,28.999999999999982,0)" xlink:href="#aG"/><use transform="matrix(0.04999999999999997,0,0,0.04999999999999997,37.99999999999997,0)" xlink:href="#aK"/><use transform="matrix(0.04999999999999997,0,0,0.04999999999999997,47.999999999999964,0)" xlink:href="#aG"/></g><g id="Y"><use transform="matrix(0.04999999999999997,0,0,0.04999999999999997,0,0)" xlink:href="#bv"/><use transform="matrix(0.04999999999999997,0,0,0.04999999999999997,14.94999999999999,0)" xlink:href="#aI"/><use transform="matrix(0.04999999999999997,0,0,0.04999999999999997,24.94999999999998,0)" xlink:href="#aS"/><use transform="matrix(0.04999999999999997,0,0,0.04999999999999997,30.899999999999974,0)" xlink:href="#bF"/><use transform="matrix(0.04999999999999997,0,0,0.04999999999999997,39.89999999999997,0)" xlink:href="#aK"/><use transform="matrix(0.04999999999999997,0,0,0.04999999999999997,49.89999999999996,0)" xlink:href="#aS"/><use transform="matrix(0.04999999999999997,0,0,0.04999999999999997,55.849999999999966,0)" xlink:href="#aG"/></g><g id="Z"><use transform="matrix(0.04999999999999997,0,0,0.04999999999999997,0,0)" xlink:href="#aH"/><use transform="matrix(0.04999999999999997,0,0,0.04999999999999997,4.9999999999999964,0)" xlink:href="#aV"/></g><g id="aa"><use transform="matrix(0.04999999999999997,0,0,0.04999999999999997,0,0)" xlink:href="#br"/><use transform="matrix(0.04999999999999997,0,0,0.04999999999999997,9.999999999999993,0)" xlink:href="#aI"/><use transform="matrix(0.04999999999999997,0,0,0.04999999999999997,19.999999999999986,0)" xlink:href="#aH"/><use transform="matrix(0.04999999999999997,0,0,0.04999999999999997,24.999999999999982,0)" xlink:href="#aI"/></g><g id="ab"><use transform="matrix(0.04999999999999997,0,0,0.04999999999999997,0,0)" xlink:href="#aI"/><use transform="matrix(0.04999999999999997,0,0,0.04999999999999997,9.999999999999993,0)" xlink:href="#aF"/><use transform="matrix(0.04999999999999997,0,0,0.04999999999999997,19.999999999999986,0)" xlink:href="#br"/></g><g id="ac"><use transform="matrix(0.04999999999999997,0,0,0.04999999999999997,0,0)" xlink:href="#bx"/><use transform="matrix(0.04999999999999997,0,0,0.04999999999999997,4.9999999999999964,0)" xlink:href="#aK"/><use transform="matrix(0.04999999999999997,0,0,0.04999999999999997,14.999999999999991,0)" xlink:href="#aH"/><use transform="matrix(0.04999999999999997,0,0,0.04999999999999997,19.999999999999986,0)" xlink:href="#bp"/><use transform="matrix(0.04999999999999997,0,0,0.04999999999999997,29.999999999999982,0)" xlink:href="#aS"/><use transform="matrix(0.04999999999999997,0,0,0.04999999999999997,35.949999999999974,0)" xlink:href="#aK"/></g><g id="ad"><use transform="matrix(0.04999999999999997,0,0,0.04999999999999997,0,0)" xlink:href="#aH"/><use transform="matrix(0.04999999999999997,0,0,0.04999999999999997,4.9999999999999964,0)" xlink:href="#bq"/><use transform="matrix(0.04999999999999997,0,0,0.04999999999999997,14.999999999999991,0)" xlink:href="#aS"/><use transform="matrix(0.04999999999999997,0,0,0.04999999999999997,20.949999999999985,0)" xlink:href="#aK"/><use transform="matrix(0.04999999999999997,0,0,0.04999999999999997,30.94999999999998,0)" xlink:href="#aI"/><use transform="matrix(0.04999999999999997,0,0,0.04999999999999997,40.949999999999974,0)" xlink:href="#br"/><use transform="matrix(0.04999999999999997,0,0,0.04999999999999997,50.94999999999997,0)" xlink:href="#aG"/></g><g id="ae"><use transform="matrix(0.04999999999999997,0,0,0.04999999999999997,0,0)" xlink:href="#aG"/><use transform="matrix(0.04999999999999997,0,0,0.04999999999999997,8.999999999999995,0)" xlink:href="#aJ"/><use transform="matrix(0.04999999999999997,0,0,0.04999999999999997,12.949999999999992,0)" xlink:href="#bA"/><use transform="matrix(0.04999999999999997,0,0,0.04999999999999997,22.949999999999985,0)" xlink:href="#aF"/><use transform="matrix(0.04999999999999997,0,0,0.04999999999999997,32.949999999999974,0)" xlink:href="#aJ"/><use transform="matrix(0.04999999999999997,0,0,0.04999999999999997,36.89999999999997,0)" xlink:href="#bx"/><use transform="matrix(0.04999999999999997,0,0,0.04999999999999997,41.89999999999996,0)" xlink:href="#aM"/></g><g id="af"><use transform="matrix(0.04999999999999997,0,0,0.04999999999999997,0,0)" xlink:href="#aH"/><use transform="matrix(0.04999999999999997,0,0,0.04999999999999997,4.9999999999999964,0)" xlink:href="#aS"/><use transform="matrix(0.04999999999999997,0,0,0.04999999999999997,10.949999999999992,0)" xlink:href="#aI"/><use transform="matrix(0.04999999999999997,0,0,0.04999999999999997,20.949999999999985,0)" xlink:href="#aJ"/><use transform="matrix(0.04999999999999997,0,0,0.04999999999999997,24.899999999999984,0)" xlink:href="#aF"/><use transform="matrix(0.04999999999999997,0,0,0.04999999999999997,34.89999999999998,0)" xlink:href="#aJ"/><use transform="matrix(0.04999999999999997,0,0,0.04999999999999997,38.84999999999997,0)" xlink:href="#aF"/><use transform="matrix(0.04999999999999997,0,0,0.04999999999999997,48.849999999999966,0)" xlink:href="#bA"/></g><g id="ag"><use transform="matrix(0.04999999999999997,0,0,0.04999999999999997,0,0)" xlink:href="#aK"/><use transform="matrix(0.04999999999999997,0,0,0.04999999999999997,9.999999999999993,0)" xlink:href="#by"/><use transform="matrix(0.04999999999999997,0,0,0.04999999999999997,19.999999999999986,0)" xlink:href="#aV"/><use transform="matrix(0.04999999999999997,0,0,0.04999999999999997,29.999999999999982,0)" xlink:href="#bz"/><use transform="matrix(0.04999999999999997,0,0,0.04999999999999997,38.99999999999997,0)" xlink:href="#bq"/><use transform="matrix(0.04999999999999997,0,0,0.04999999999999997,48.999999999999964,0)" xlink:href="#bH"/></g><path fill="#fff" d="M123-251c66 0 92 69 53 113C138-94 73-75 39-27h128l-5 27H-2c17-92 123-93 159-163 14-28-1-64-36-62-29 2-46 17-54 41l-30-6c13-36 37-61 86-61" id="bI"/><use transform="matrix(0.0685185185185185,0,0,0.0685185185185185,0,0)" xlink:href="#bI" id="ah"/><g id="ai"><use transform="matrix(0.0685185185185185,0,0,0.0685185185185185,0,0)" xlink:href="#bH"/><use transform="matrix(0.0685185185185185,0,0,0.0685185185185185,6.85185185185185,0)" xlink:href="#bH"/><use transform="matrix(0.0685185185185185,0,0,0.0685185185185185,13.7037037037037,0)" xlink:href="#bH"/></g><use transform="matrix(0.0685185185185185,0,0,0.0685185185185185,0,0)" xlink:href="#aF" id="aj"/><g id="ak"><use transform="matrix(0.05,0,0,0.05,0,0)" xlink:href="#aG"/><use transform="matrix(0.05,0,0,0.05,9,0)" xlink:href="#aH"/><use transform="matrix(0.05,0,0,0.05,14,0)" xlink:href="#aS"/><use transform="matrix(0.05,0,0,0.05,19.95,0)" xlink:href="#aK"/><use transform="matrix(0.05,0,0,0.05,29.950000000000003,0)" xlink:href="#aI"/><use transform="matrix(0.05,0,0,0.05,39.95,0)" xlink:href="#bv"/><use transform="matrix(0.05,0,0,0.05,54.900000000000006,0)" xlink:href="#aG"/><use transform="matrix(0.05,0,0,0.05,63.900000000000006,0)" xlink:href="#bH"/></g><path fill="#fff" d="M11 0l48-248h184l-5 28H87l-15 79h140l-5 27H67L50-27h158l-5 27H11" id="bJ"/><g id="al"><use transform="matrix(0.05,0,0,0.05,0,0)" xlink:href="#bJ"/><use transform="matrix(0.05,0,0,0.05,12,0)" xlink:href="#bC"/><use transform="matrix(0.05,0,0,0.05,21,0)" xlink:href="#aH"/><use transform="matrix(0.05,0,0,0.05,26,0)" xlink:href="#aS"/><use transform="matrix(0.05,0,0,0.05,31.950000000000003,0)" xlink:href="#aI"/><use transform="matrix(0.05,0,0,0.05,41.95,0)" xlink:href="#bz"/><use transform="matrix(0.05,0,0,0.05,50.95,0)" xlink:href="#aH"/><use transform="matrix(0.05,0,0,0.05,55.95,0)" xlink:href="#aG"/></g><g id="am"><use transform="matrix(0.05,0,0,0.05,0,0)" xlink:href="#aS"/><use transform="matrix(0.05,0,0,0.05,5.95,0)" xlink:href="#aK"/><use transform="matrix(0.05,0,0,0.05,15.949999999999998,0)" xlink:href="#aU"/><use transform="matrix(0.05,0,0,0.05,19.9,0)" xlink:href="#aI"/><use transform="matrix(0.05,0,0,0.05,29.899999999999995,0)" xlink:href="#aH"/><use transform="matrix(0.05,0,0,0.05,34.9,0)" xlink:href="#aJ"/><use transform="matrix(0.05,0,0,0.05,38.85,0)" xlink:href="#aR"/><use transform="matrix(0.05,0,0,0.05,47.85,0)" xlink:href="#aK"/></g><g id="an"><use transform="matrix(0.05,0,0,0.05,0,0)" xlink:href="#bx"/><use transform="matrix(0.05,0,0,0.05,5,0)" xlink:href="#aK"/><use transform="matrix(0.05,0,0,0.05,15,0)" xlink:href="#aI"/><use transform="matrix(0.05,0,0,0.05,25,0)" xlink:href="#aH"/><use transform="matrix(0.05,0,0,0.05,30,0)" xlink:href="#bp"/><use transform="matrix(0.05,0,0,0.05,40,0)" xlink:href="#aS"/><use transform="matrix(0.05,0,0,0.05,45.95,0)" xlink:href="#aK"/></g><g id="ao"><use transform="matrix(0.05,0,0,0.05,0,0)" xlink:href="#br"/><use transform="matrix(0.05,0,0,0.05,10,0)" xlink:href="#aI"/><use transform="matrix(0.05,0,0,0.05,20,0)" xlink:href="#aH"/><use transform="matrix(0.05,0,0,0.05,25,0)" xlink:href="#aI"/></g><g id="ap"><use transform="matrix(0.05,0,0,0.05,0,0)" xlink:href="#bx"/><use transform="matrix(0.05,0,0,0.05,5,0)" xlink:href="#aS"/><use transform="matrix(0.05,0,0,0.05,10.95,0)" xlink:href="#aV"/><use transform="matrix(0.05,0,0,0.05,20.95,0)" xlink:href="#bv"/></g><g id="aq"><use transform="matrix(0.05,0,0,0.05,0,0)" xlink:href="#aK"/><use transform="matrix(0.05,0,0,0.05,10,0)" xlink:href="#by"/><use transform="matrix(0.05,0,0,0.05,20,0)" xlink:href="#aV"/><use transform="matrix(0.05,0,0,0.05,30,0)" xlink:href="#bz"/><use transform="matrix(0.05,0,0,0.05,39,0)" xlink:href="#bq"/><use transform="matrix(0.05,0,0,0.05,49,0)" xlink:href="#bH"/></g><g id="ar"><use transform="matrix(0.05,0,0,0.05,0,0)" xlink:href="#aO"/><use transform="matrix(0.05,0,0,0.05,12.950000000000001,0)" xlink:href="#aI"/><use transform="matrix(0.05,0,0,0.05,22.950000000000003,0)" xlink:href="#by"/><use transform="matrix(0.05,0,0,0.05,32.95,0)" xlink:href="#aH"/><use transform="matrix(0.05,0,0,0.05,37.95,0)" xlink:href="#bp"/><use transform="matrix(0.05,0,0,0.05,47.95,0)" xlink:href="#aS"/><use transform="matrix(0.05,0,0,0.05,53.900000000000006,0)" xlink:href="#aK"/><use transform="matrix(0.05,0,0,0.05,63.900000000000006,0)" xlink:href="#aG"/></g><g id="as"><use transform="matrix(0.05,0,0,0.05,0,0)" xlink:href="#aT"/><use transform="matrix(0.05,0,0,0.05,10,0)" xlink:href="#aI"/><use transform="matrix(0.05,0,0,0.05,20,0)" xlink:href="#aG"/><use transform="matrix(0.05,0,0,0.05,29,0)" xlink:href="#aK"/><use transform="matrix(0.05,0,0,0.05,39,0)" xlink:href="#br"/></g><g id="at"><use transform="matrix(0.05,0,0,0.05,0,0)" xlink:href="#aV"/><use transform="matrix(0.05,0,0,0.05,10,0)" xlink:href="#aF"/></g><g id="au"><use transform="matrix(0.05,0,0,0.05,0,0)" xlink:href="#aK"/><use transform="matrix(0.05,0,0,0.05,10,0)" xlink:href="#by"/><use transform="matrix(0.05,0,0,0.05,20,0)" xlink:href="#aV"/><use transform="matrix(0.05,0,0,0.05,30,0)" xlink:href="#bz"/><use transform="matrix(0.05,0,0,0.05,39,0)" xlink:href="#bq"/></g><g id="av"><use transform="matrix(0.05,0,0,0.05,0,0)" xlink:href="#aH"/><use transform="matrix(0.05,0,0,0.05,5,0)" xlink:href="#aJ"/><use transform="matrix(0.05,0,0,0.05,8.95,0)" xlink:href="#bv"/><use transform="matrix(0.05,0,0,0.05,23.9,0)" xlink:href="#aK"/></g><g id="aw"><use transform="matrix(0.05,0,0,0.05,0,0)" xlink:href="#aG"/><use transform="matrix(0.05,0,0,0.05,9,0)" xlink:href="#aK"/><use transform="matrix(0.05,0,0,0.05,19,0)" xlink:href="#aH"/><use transform="matrix(0.05,0,0,0.05,24,0)" xlink:href="#aH"/><use transform="matrix(0.05,0,0,0.05,29,0)" xlink:href="#aJ"/><use transform="matrix(0.05,0,0,0.05,32.95,0)" xlink:href="#aF"/><use transform="matrix(0.05,0,0,0.05,42.95,0)" xlink:href="#bA"/><use transform="matrix(0.05,0,0,0.05,52.95,0)" xlink:href="#aG"/><use transform="matrix(0.05,0,0,0.05,61.95,0)" xlink:href="#bH"/></g><path fill="#3a414a" d="M240 0l2-218c-23 76-54 145-80 218h-23L58-218 59 0H30v-248h44l77 211c21-75 51-140 76-211h43V0h-30" id="bK"/><path fill="#3a414a" d="M141-36C126-15 110 5 73 4 37 3 15-17 15-53c-1-64 63-63 125-63 3-35-9-54-41-54-24 1-41 7-42 31l-33-3c5-37 33-52 76-52 45 0 72 20 72 64v82c-1 20 7 32 28 27v20c-31 9-61-2-59-35zM48-53c0 20 12 33 32 33 41-3 63-29 60-74-43 2-92-5-92 41" id="bL"/><path fill="#3a414a" d="M114-163C36-179 61-72 57 0H25l-1-190h30c1 12-1 29 2 39 6-27 23-49 58-41v29" id="bM"/><path fill="#3a414a" d="M143 0L79-87 56-68V0H24v-261h32v163l83-92h37l-77 82L181 0h-38" id="bN"/><path fill="#3a414a" d="M100-194c63 0 86 42 84 106H49c0 40 14 67 53 68 26 1 43-12 49-29l28 8c-11 28-37 45-77 45C44 4 14-33 15-96c1-61 26-98 85-98zm52 81c6-60-76-77-97-28-3 7-6 17-6 28h103" id="bO"/><g id="ax"><use transform="matrix(0.05,0,0,0.05,0,0)" xlink:href="#bK"/><use transform="matrix(0.05,0,0,0.05,14.950000000000001,0)" xlink:href="#bL"/><use transform="matrix(0.05,0,0,0.05,24.950000000000003,0)" xlink:href="#bM"/><use transform="matrix(0.05,0,0,0.05,30.900000000000002,0)" xlink:href="#bN"/><use transform="matrix(0.05,0,0,0.05,39.900000000000006,0)" xlink:href="#bO"/><use transform="matrix(0.05,0,0,0.05,49.900000000000006,0)" xlink:href="#bM"/></g><path fill="#3a414a" d="M118-107v75H92v-75H18v-26h74v-75h26v75h74v26h-74" id="bP"/><use transform="matrix(0.05,0,0,0.05,0,0)" xlink:href="#bP" id="ay"/><path fill="#3a414a" d="M127-220V0H93v-220H8v-28h204v28h-85" id="bQ"/><path fill="#3a414a" d="M24-231v-30h32v30H24zM24 0v-190h32V0H24" id="bR"/><path fill="#3a414a" d="M210-169c-67 3-38 105-44 169h-31v-121c0-29-5-50-35-48C34-165 62-65 56 0H25l-1-190h30c1 10-1 24 2 32 10-44 99-50 107 0 11-21 27-35 58-36 85-2 47 119 55 194h-31v-121c0-29-5-49-35-48" id="bS"/><path fill="#3a414a" d="M135-143c-3-34-86-38-87 0 15 53 115 12 119 90S17 21 10-45l28-5c4 36 97 45 98 0-10-56-113-15-118-90-4-57 82-63 122-42 12 7 21 19 24 35" id="bT"/><path fill="#3a414a" d="M59-47c-2 24 18 29 38 22v24C64 9 27 4 27-40v-127H5v-23h24l9-43h21v43h35v23H59v120" id="bU"/><path fill="#3a414a" d="M115-194c55 1 70 41 70 98S169 2 115 4C84 4 66-9 55-30l1 105H24l-1-265h31l2 30c10-21 28-34 59-34zm-8 174c40 0 45-34 45-75s-6-73-45-74c-42 0-51 32-51 76 0 43 10 73 51 73" id="bV"/><g id="az"><use transform="matrix(0.05,0,0,0.05,0,0)" xlink:href="#bQ"/><use transform="matrix(0.05,0,0,0.05,10.3,0)" xlink:href="#bR"/><use transform="matrix(0.05,0,0,0.05,14.25,0)" xlink:href="#bS"/><use transform="matrix(0.05,0,0,0.05,29.200000000000003,0)" xlink:href="#bO"/><use transform="matrix(0.05,0,0,0.05,39.2,0)" xlink:href="#bT"/><use transform="matrix(0.05,0,0,0.05,48.2,0)" xlink:href="#bU"/><use transform="matrix(0.05,0,0,0.05,53.2,0)" xlink:href="#bL"/><use transform="matrix(0.05,0,0,0.05,63.2,0)" xlink:href="#bS"/><use transform="matrix(0.05,0,0,0.05,78.15,0)" xlink:href="#bV"/></g><path fill="#3a414a" d="M30 0v-248h187v28H63v79h144v27H63v87h162V0H30" id="bW"/><path fill="#3a414a" d="M100-194c62-1 85 37 85 99 1 63-27 99-86 99S16-35 15-95c0-66 28-99 85-99zM99-20c44 1 53-31 53-75 0-43-8-75-51-75s-53 32-53 75 10 74 51 75" id="bX"/><path fill="#3a414a" d="M96-169c-40 0-48 33-48 73s9 75 48 75c24 0 41-14 43-38l32 2c-6 37-31 61-74 61-59 0-76-41-82-99-10-93 101-131 147-64 4 7 5 14 7 22l-32 3c-4-21-16-35-41-35" id="bY"/><path fill="#3a414a" d="M106-169C34-169 62-67 57 0H25v-261h32l-1 103c12-21 28-36 61-36 89 0 53 116 60 194h-32v-121c2-32-8-49-39-48" id="bZ"/><path fill="#3a414a" d="M85-194c31 0 48 13 60 33l-1-100h32l1 261h-30c-2-10 0-23-3-31C134-8 116 4 85 4 32 4 16-35 15-94c0-66 23-100 70-100zm9 24c-40 0-46 34-46 75 0 40 6 74 45 74 42 0 51-32 51-76 0-42-9-74-50-73" id="ca"/><g id="aA"><use transform="matrix(0.05,0,0,0.05,0,0)" xlink:href="#bW"/><use transform="matrix(0.05,0,0,0.05,12,0)" xlink:href="#bV"/><use transform="matrix(0.05,0,0,0.05,22,0)" xlink:href="#bX"/><use transform="matrix(0.05,0,0,0.05,32,0)" xlink:href="#bY"/><use transform="matrix(0.05,0,0,0.05,41,0)" xlink:href="#bZ"/><use transform="matrix(0.05,0,0,0.05,51,0)" xlink:href="#bO"/><use transform="matrix(0.05,0,0,0.05,61,0)" xlink:href="#ca"/></g><path fill="#3a414a" d="M30-248c118-7 216 8 213 122C240-48 200 0 122 0H30v-248zM63-27c89 8 146-16 146-99s-60-101-146-95v194" id="cb"/><g id="aB"><use transform="matrix(0.05,0,0,0.05,0,0)" xlink:href="#cb"/><use transform="matrix(0.05,0,0,0.05,12.950000000000001,0)" xlink:href="#bL"/><use transform="matrix(0.05,0,0,0.05,22.950000000000003,0)" xlink:href="#bU"/><use transform="matrix(0.05,0,0,0.05,27.950000000000003,0)" xlink:href="#bL"/></g><path fill="#3a414a" d="M63-220v92h138v28H63V0H30v-248h175v28H63" id="cc"/><path fill="#3a414a" d="M84 4C-5 8 30-112 23-190h32v120c0 31 7 50 39 49 72-2 45-101 50-169h31l1 190h-30c-1-10 1-25-2-33-11 22-28 36-60 37" id="cd"/><g id="aC"><use transform="matrix(0.05,0,0,0.05,0,0)" xlink:href="#cc"/><use transform="matrix(0.05,0,0,0.05,10.950000000000001,0)" xlink:href="#bO"/><use transform="matrix(0.05,0,0,0.05,20.950000000000003,0)" xlink:href="#bL"/><use transform="matrix(0.05,0,0,0.05,30.950000000000003,0)" xlink:href="#bU"/><use transform="matrix(0.05,0,0,0.05,35.95,0)" xlink:href="#cd"/><use transform="matrix(0.05,0,0,0.05,45.95,0)" xlink:href="#bM"/><use transform="matrix(0.05,0,0,0.05,51.900000000000006,0)" xlink:href="#bO"/></g><g id="aD"><use transform="matrix(0.05,0,0,0.05,0,0)" xlink:href="#cb"/><use transform="matrix(0.05,0,0,0.05,12.950000000000001,0)" xlink:href="#bL"/><use transform="matrix(0.05,0,0,0.05,22.950000000000003,0)" xlink:href="#bU"/><use transform="matrix(0.05,0,0,0.05,27.950000000000003,0)" xlink:href="#bL"/></g></defs></g></svg>