<svg version="1.1" id="Layer_1" xmlns="http://www.w3.org/2000/svg" xmlns:xlink="http://www.w3.org/1999/xlink" x="0px" y="0px"
	 width="100%" viewBox="0 0 769 200" enable-background="new 0 0 769 200" xml:space="preserve">
<path fill="#FEFEFE" opacity="1.000000" stroke="none" 
	d="
M505.000000,201.000000 
	C336.666687,201.000000 168.833374,201.000000 1.000045,201.000000 
	C1.000030,134.333359 1.000030,67.666725 1.000015,1.000063 
	C257.333282,1.000042 513.666565,1.000042 769.999878,1.000021 
	C769.999878,67.666603 769.999878,134.333206 769.999939,200.999908 
	C681.833313,201.000000 593.666687,201.000000 505.000000,201.000000 
M531.082336,151.215210 
	C472.602905,151.381882 414.123352,151.520264 355.644226,151.759399 
	C349.843750,151.783112 343.999237,152.101776 338.269897,152.935150 
	C336.021362,153.262222 334.033447,155.380890 331.926819,156.683624 
	C332.162994,157.051270 332.399170,157.418900 332.635345,157.786530 
	C474.026581,157.786530 615.417847,157.786530 758.050598,157.786530 
	C756.851318,155.093018 755.926392,153.015732 754.911194,150.214462 
	C753.758362,146.660889 750.814758,146.945923 747.740967,146.076660 
	C747.740967,136.308685 747.740967,126.540718 747.740967,116.177780 
	C743.241333,116.177780 739.354797,116.177780 735.580933,116.177780 
	C735.580933,92.363449 735.580933,69.156105 735.580933,45.523556 
	C739.715820,45.523556 743.486694,45.523556 747.460327,45.523556 
	C747.460327,34.526142 747.460327,23.958941 747.460327,13.261627 
	C721.652954,13.261627 696.093018,13.261627 670.446777,13.261627 
	C670.446777,24.085020 670.446777,34.643326 670.446777,45.746365 
	C674.623047,45.746365 678.531616,45.746365 682.494141,45.746365 
	C682.494141,69.529358 682.494141,92.762741 682.494141,116.101974 
	C678.560181,116.101974 674.919495,116.101974 670.436462,116.157753 
	C669.956848,117.924187 669.103943,119.682091 669.063293,121.458565 
	C668.902893,128.466736 668.997559,135.480759 668.997559,142.078979 
	C658.237244,142.078979 648.371765,141.993225 638.509094,142.119797 
	C634.373169,142.172867 630.243042,142.675690 626.495911,142.435699 
	C642.014404,132.999924 650.914734,119.111328 654.629944,101.408157 
	C642.684387,97.164711 631.204529,93.086670 620.153320,89.160934 
	C618.042175,95.139931 616.543335,100.985435 613.971130,106.312660 
	C609.569885,115.428055 602.003540,119.968620 591.720154,118.913559 
	C581.964783,117.912666 576.703857,111.432838 574.244507,102.716728 
	C570.043274,87.826851 570.242920,72.721779 574.250732,57.841938 
	C576.332886,50.111687 580.927307,43.861664 589.451477,42.298306 
	C598.006836,40.729229 605.283936,43.645191 610.696289,50.414494 
	C612.839905,53.095573 614.089478,56.475601 615.938354,59.416569 
	C616.610229,60.485222 617.828491,61.947132 618.819946,61.964733 
	C629.267395,62.150154 639.719421,62.079449 650.163452,62.079449 
	C650.163452,45.479691 650.163452,29.408171 650.163452,13.297895 
	C639.337524,13.297895 628.758362,13.297895 617.836670,13.297895 
	C617.836670,15.995131 617.836670,18.401680 617.836670,21.404886 
	C616.650024,20.650936 615.991150,20.240799 615.340576,19.817759 
	C594.441467,6.226898 562.859070,6.652809 542.248352,20.804817 
	C518.615173,37.032146 507.109467,69.741379 514.676392,99.319237 
	C520.273315,121.196808 532.877014,137.165283 553.896851,146.625900 
	C550.794617,147.086121 547.660400,147.395432 544.597839,148.043167 
	C540.379150,148.935410 535.566833,147.371674 531.082336,151.215210 
M442.211975,148.623230 
	C442.470764,148.507019 442.729553,148.390808 443.842041,148.096039 
	C446.152191,148.032639 448.462372,147.969254 451.453644,148.039200 
	C452.295837,147.784439 453.138031,147.529694 454.745148,147.074020 
	C456.058014,147.005188 457.370911,146.936356 459.317688,146.978058 
	C459.874786,146.725555 460.431885,146.473068 461.691406,146.013672 
	C462.178467,146.021347 462.665558,146.029007 463.778595,146.094528 
	C464.516571,145.790756 465.254517,145.487000 466.705017,144.959030 
	C468.576233,144.299377 470.479675,143.718536 472.313812,142.968201 
	C496.877716,132.918976 502.894653,103.123245 483.452271,86.323669 
	C478.538818,82.078079 472.274109,79.396278 466.819580,76.109879 
	C468.129089,75.569595 470.110565,74.870918 471.987366,73.957184 
	C480.168579,69.974091 487.078064,64.796631 489.115143,55.191738 
	C492.735809,38.120163 483.311188,21.974052 465.743805,17.217167 
	C456.706360,14.770021 447.108185,13.495699 437.736664,13.344353 
	C406.087067,12.833228 374.425507,13.060500 342.768494,13.021583 
	C342.308411,13.021017 341.848022,13.228255 341.025208,13.425363 
	C341.025208,18.747036 341.025208,24.037302 341.025208,29.327568 
	C341.025208,34.774433 341.025208,40.221298 341.025208,46.165768 
	C344.979279,46.165768 348.441345,46.165768 351.921631,47.082375 
	C351.897705,70.249367 351.873779,93.416351 350.981903,116.779442 
	C347.731018,116.852913 344.480133,116.926384 340.576752,117.535568 
	C340.468079,127.483742 340.343384,137.431839 340.296600,147.380295 
	C340.294189,147.895065 340.957550,148.412964 342.208008,148.980682 
	C374.369812,148.942307 406.531586,148.903931 439.167145,148.932251 
	C439.511230,148.899811 439.773102,148.735947 440.624237,148.224472 
	C441.090515,148.264725 441.556824,148.304962 442.211975,148.623230 
M139.461319,97.000610 
	C146.902145,96.322983 154.408234,96.056305 161.770920,94.886742 
	C180.118652,91.972206 193.436417,78.832123 195.774796,61.916130 
	C198.362198,43.198650 189.397873,27.305386 171.605774,19.259232 
	C161.096817,14.506743 149.777756,13.406321 138.521423,13.262415 
	C108.380180,12.877076 78.231804,13.047623 48.086254,13.008355 
	C47.132980,13.007113 46.179546,13.126669 45.184044,13.192706 
	C45.184044,24.230040 45.184044,34.953102 45.184044,46.086151 
	C49.523964,46.086151 53.615311,46.086151 57.772041,46.086151 
	C57.772041,69.551987 57.772041,92.603775 57.772041,116.065331 
	C53.442730,116.065331 49.350338,116.065331 45.168228,116.065331 
	C45.168228,127.199852 45.168228,137.922028 45.168228,148.694885 
	C71.635330,148.694885 97.853493,148.694885 123.882591,148.694885 
	C123.882591,137.657837 123.882591,126.928253 123.882591,115.789543 
	C119.305878,115.789543 115.053726,115.789543 110.907547,115.789543 
	C110.907547,109.417435 110.907547,103.466568 110.907547,97.007217 
	C120.226791,97.007217 129.349228,97.007217 139.461319,97.000610 
M245.913773,155.123215 
	C244.071045,161.554291 240.255829,164.785538 233.205185,163.399185 
	C231.000916,162.965775 228.639481,163.331650 226.138153,163.331650 
	C226.138153,172.761093 226.138153,181.666809 226.138153,190.789032 
	C240.102966,190.789032 253.875076,190.789032 267.795074,190.789032 
	C283.133087,158.931290 298.511078,127.050514 313.821442,95.137276 
	C316.721191,89.092911 318.434235,81.743393 328.141418,84.929031 
	C328.141418,74.616982 328.141418,65.035728 328.141418,55.233902 
	C312.026367,55.233902 295.945709,55.233902 279.800293,55.233902 
	C279.800293,64.890144 279.800293,74.310417 279.800293,84.287788 
	C282.686249,84.287788 285.386993,84.287788 288.818573,84.287788 
	C283.625031,96.757034 278.742798,108.478912 273.488647,121.093712 
	C267.788239,108.374451 262.478363,96.526558 256.864532,84.000465 
	C260.933929,84.000465 264.035858,84.000465 267.198059,84.000465 
	C267.198059,74.201767 267.198059,64.790161 267.198059,55.242935 
	C245.747360,55.242935 224.507553,55.242935 203.174591,55.242935 
	C203.174591,65.058502 203.174591,74.628708 203.174591,85.110229 
	C210.196487,82.391426 211.823166,87.355148 214.161072,91.950012 
	C220.641190,104.685852 227.488449,117.234329 234.044601,129.932236 
	C238.215271,138.009933 242.125671,146.222015 245.913773,155.123215 
M59.500000,163.018295 
	C85.235786,163.018295 110.971565,163.018295 136.697632,163.018295 
	C136.697632,160.513474 136.697632,158.467545 136.697632,156.393463 
	C101.360229,156.393463 66.342636,156.393463 31.292940,156.393463 
	C31.292940,158.748138 31.292940,160.792007 31.292940,163.018356 
	C40.570374,163.018356 49.535187,163.018356 59.500000,163.018295 
z"/>
<path fill="#010101" opacity="1.000000" stroke="none" 
	d="
M341.229248,116.999863 
	C344.480133,116.926384 347.731018,116.852913 351.822021,116.583786 
	C352.759003,93.419502 352.861786,70.450890 352.908844,47.482151 
	C352.909760,47.044048 352.253204,46.604595 351.903412,46.165771 
	C348.441345,46.165768 344.979279,46.165768 341.025208,46.165768 
	C341.025208,40.221298 341.025208,34.774433 341.025208,29.327568 
	C341.025208,24.037302 341.025208,18.747036 341.025208,13.425363 
	C341.848022,13.228255 342.308411,13.021017 342.768494,13.021583 
	C374.425507,13.060500 406.087067,12.833228 437.736664,13.344353 
	C447.108185,13.495699 456.706360,14.770021 465.743805,17.217167 
	C483.311188,21.974052 492.735809,38.120163 489.115143,55.191738 
	C487.078064,64.796631 480.168579,69.974091 471.987366,73.957184 
	C470.110565,74.870918 468.129089,75.569595 466.819580,76.109879 
	C472.274109,79.396278 478.538818,82.078079 483.452271,86.323669 
	C502.894653,103.123245 496.877716,132.918976 472.313812,142.968201 
	C470.479675,143.718536 468.576233,144.299377 466.044159,145.009399 
	C464.639740,145.385422 463.896179,145.711060 463.152618,146.036682 
	C462.665558,146.029007 462.178467,146.021347 461.024384,146.065308 
	C459.799500,146.367111 459.241638,146.617310 458.683777,146.867508 
	C457.370911,146.936356 456.058014,147.005188 454.033936,147.095352 
	C452.472656,147.379730 451.622589,147.642792 450.772522,147.905853 
	C448.462372,147.969254 446.152191,148.032639 443.167114,148.109619 
	C442.335815,148.197189 442.179443,148.271194 442.023102,148.345215 
	C441.556824,148.304962 441.090515,148.264725 440.047180,148.244919 
	C439.211182,148.465424 438.952301,148.665482 438.693390,148.865555 
	C406.531586,148.903931 374.369812,148.942307 341.706268,148.490753 
	C341.212769,137.667175 341.221008,127.333519 341.229248,116.999863 
M436.714081,112.816444 
	C440.420044,103.345200 437.689056,94.840836 429.576874,93.388535 
	C421.704529,91.979164 413.560883,92.085129 405.523499,91.524734 
	C405.523499,101.354362 405.523499,110.077477 405.523499,118.914230 
	C411.494934,118.914230 417.165253,119.224861 422.784180,118.820709 
	C427.709991,118.466423 432.808014,117.872536 436.714081,112.816444 
M420.111725,43.186104 
	C415.213959,43.186104 410.316162,43.186104 405.558411,43.186104 
	C405.558411,51.800945 405.558411,59.827251 405.558411,68.442688 
	C412.870300,67.975578 419.854156,67.977196 426.687714,66.964371 
	C433.254944,65.991020 436.287903,61.493439 435.979462,55.024422 
	C435.683502,48.817280 432.207611,45.002121 425.929535,43.997509 
	C424.294159,43.735825 422.657532,43.482132 420.111725,43.186104 
z"/>
<path fill="#010101" opacity="1.000000" stroke="none" 
	d="
M138.966492,97.003914 
	C129.349228,97.007217 120.226791,97.007217 110.907547,97.007217 
	C110.907547,103.466568 110.907547,109.417435 110.907547,115.789543 
	C115.053726,115.789543 119.305878,115.789543 123.882591,115.789543 
	C123.882591,126.928253 123.882591,137.657837 123.882591,148.694885 
	C97.853493,148.694885 71.635330,148.694885 45.168228,148.694885 
	C45.168228,137.922028 45.168228,127.199852 45.168228,116.065331 
	C49.350338,116.065331 53.442730,116.065331 57.772041,116.065331 
	C57.772041,92.603775 57.772041,69.551987 57.772041,46.086151 
	C53.615311,46.086151 49.523964,46.086151 45.184044,46.086151 
	C45.184044,34.953102 45.184044,24.230040 45.184044,13.192706 
	C46.179546,13.126669 47.132980,13.007113 48.086254,13.008355 
	C78.231804,13.047623 108.380180,12.877076 138.521423,13.262415 
	C149.777756,13.406321 161.096817,14.506743 171.605774,19.259232 
	C189.397873,27.305386 198.362198,43.198650 195.774796,61.916130 
	C193.436417,78.832123 180.118652,91.972206 161.770920,94.886742 
	C154.408234,96.056305 146.902145,96.322983 138.966492,97.003914 
M141.085419,59.046066 
	C141.765671,49.263988 138.820602,44.916702 129.221069,43.632893 
	C123.234711,42.832302 117.054115,43.484085 111.050079,43.484085 
	C111.050079,51.720646 111.050079,59.933189 111.050079,67.984688 
	C117.532066,67.984688 123.690025,68.314529 129.794113,67.882751 
	C134.889618,67.522324 139.692383,65.952499 141.085419,59.046066 
z"/>
<path fill="#020101" opacity="1.000000" stroke="none" 
	d="
M554.097778,145.811005 
	C532.877014,137.165283 520.273315,121.196808 514.676392,99.319237 
	C507.109467,69.741379 518.615173,37.032146 542.248352,20.804817 
	C562.859070,6.652809 594.441467,6.226898 615.340576,19.817759 
	C615.991150,20.240799 616.650024,20.650936 617.836670,21.404886 
	C617.836670,18.401680 617.836670,15.995131 617.836670,13.297895 
	C628.758362,13.297895 639.337524,13.297895 650.163452,13.297895 
	C650.163452,29.408171 650.163452,45.479691 650.163452,62.079449 
	C639.719421,62.079449 629.267395,62.150154 618.819946,61.964733 
	C617.828491,61.947132 616.610229,60.485222 615.938354,59.416569 
	C614.089478,56.475601 612.839905,53.095573 610.696289,50.414494 
	C605.283936,43.645191 598.006836,40.729229 589.451477,42.298306 
	C580.927307,43.861664 576.332886,50.111687 574.250732,57.841938 
	C570.242920,72.721779 570.043274,87.826851 574.244507,102.716728 
	C576.703857,111.432838 581.964783,117.912666 591.720154,118.913559 
	C602.003540,119.968620 609.569885,115.428055 613.971130,106.312660 
	C616.543335,100.985435 618.042175,95.139931 620.153320,89.160934 
	C631.204529,93.086670 642.684387,97.164711 654.629944,101.408157 
	C650.914734,119.111328 642.014404,132.999924 625.932983,142.741608 
	C622.521301,144.326691 619.765015,145.905670 616.803467,146.819016 
	C611.570251,148.432983 606.212036,149.641602 600.563843,150.816437 
	C597.009888,150.717941 593.793518,150.985413 590.587646,150.891815 
	C585.014160,150.729080 579.447205,150.343384 573.477051,150.018799 
	C566.750366,148.594604 560.424072,147.202805 554.097778,145.811005 
z"/>
<path fill="#020102" opacity="1.000000" stroke="none" 
	d="
M246.033264,154.748535 
	C242.125671,146.222015 238.215271,138.009933 234.044601,129.932236 
	C227.488449,117.234329 220.641190,104.685852 214.161072,91.950012 
	C211.823166,87.355148 210.196487,82.391426 203.174591,85.110229 
	C203.174591,74.628708 203.174591,65.058502 203.174591,55.242935 
	C224.507553,55.242935 245.747360,55.242935 267.198059,55.242935 
	C267.198059,64.790161 267.198059,74.201767 267.198059,84.000465 
	C264.035858,84.000465 260.933929,84.000465 256.864532,84.000465 
	C262.478363,96.526558 267.788239,108.374451 273.488647,121.093712 
	C278.742798,108.478912 283.625031,96.757034 288.818573,84.287788 
	C285.386993,84.287788 282.686249,84.287788 279.800293,84.287788 
	C279.800293,74.310417 279.800293,64.890144 279.800293,55.233902 
	C295.945709,55.233902 312.026367,55.233902 328.141418,55.233902 
	C328.141418,65.035728 328.141418,74.616982 328.141418,84.929031 
	C318.434235,81.743393 316.721191,89.092911 313.821442,95.137276 
	C298.511078,127.050514 283.133087,158.931290 267.795074,190.789032 
	C253.875076,190.789032 240.102966,190.789032 226.138153,190.789032 
	C226.138153,181.666809 226.138153,172.761093 226.138153,163.331650 
	C228.639481,163.331650 231.000916,162.965775 233.205185,163.399185 
	C240.255829,164.785538 244.071045,161.554291 246.033264,154.748535 
z"/>
<path fill="#020202" opacity="1.000000" stroke="none" 
	d="
M671.278870,116.101974 
	C674.919495,116.101974 678.560181,116.101974 682.494141,116.101974 
	C682.494141,92.762741 682.494141,69.529358 682.494141,45.746365 
	C678.531616,45.746365 674.623047,45.746365 670.446777,45.746365 
	C670.446777,34.643326 670.446777,24.085020 670.446777,13.261627 
	C696.093018,13.261627 721.652954,13.261627 747.460327,13.261627 
	C747.460327,23.958941 747.460327,34.526142 747.460327,45.523556 
	C743.486694,45.523556 739.715820,45.523556 735.580933,45.523556 
	C735.580933,69.156105 735.580933,92.363449 735.580933,116.177780 
	C739.354797,116.177780 743.241333,116.177780 747.740967,116.177780 
	C747.740967,126.540718 747.740967,136.308685 747.723267,146.930206 
	C746.107117,148.189835 744.510010,148.943161 742.910034,148.949356 
	C722.263123,149.029419 701.615845,149.003067 680.968628,149.003571 
	C677.513245,149.003662 674.057922,149.003586 670.216492,149.003586 
	C670.216492,138.279770 670.200317,128.002640 670.261719,117.725952 
	C670.264954,117.182625 670.924744,116.643211 671.278870,116.101974 
z"/>
<path fill="#0F0F0F" opacity="1.000000" stroke="none" 
	d="
M573.877502,150.051178 
	C579.447205,150.343384 585.014160,150.729080 590.587646,150.891815 
	C593.793518,150.985413 597.009888,150.717941 601.034546,150.883881 
	C632.948364,151.166550 664.049377,151.211121 695.150208,151.178360 
	C715.100708,151.157349 735.051025,151.022354 755.001465,150.938446 
	C755.926392,153.015732 756.851318,155.093018 758.050598,157.786530 
	C615.417847,157.786530 474.026581,157.786530 332.635345,157.786530 
	C332.399170,157.418900 332.162994,157.051270 331.926819,156.683624 
	C334.033447,155.380890 336.021362,153.262222 338.269897,152.935150 
	C343.999237,152.101776 349.843750,151.783112 355.644226,151.759399 
	C414.123352,151.520264 472.602905,151.381882 531.997192,151.233398 
	C545.337402,151.252884 557.763000,151.287949 570.187744,151.202866 
	C571.420227,151.194427 572.647705,150.452606 573.877502,150.051178 
z"/>
<path fill="#111111" opacity="1.000000" stroke="none" 
	d="
M59.000000,163.018326 
	C49.535187,163.018356 40.570374,163.018356 31.292940,163.018356 
	C31.292940,160.792007 31.292940,158.748138 31.292940,156.393463 
	C66.342636,156.393463 101.360229,156.393463 136.697632,156.393463 
	C136.697632,158.467545 136.697632,160.513474 136.697632,163.018295 
	C110.971565,163.018295 85.235786,163.018295 59.000000,163.018326 
z"/>
<path fill="#F9FAF9" opacity="1.000000" stroke="none" 
	d="
M754.956299,150.576447 
	C735.051025,151.022354 715.100708,151.157349 695.150208,151.178360 
	C664.049377,151.211121 632.948364,151.166550 601.376831,151.087311 
	C606.212036,149.641602 611.570251,148.432983 616.803467,146.819016 
	C619.765015,145.905670 622.521301,144.326691 625.740112,143.010773 
	C630.243042,142.675690 634.373169,142.172867 638.509094,142.119797 
	C648.371765,141.993225 658.237244,142.078979 668.997559,142.078979 
	C668.997559,135.480759 668.902893,128.466736 669.063293,121.458565 
	C669.103943,119.682091 669.956848,117.924187 670.857666,116.129860 
	C670.924744,116.643211 670.264954,117.182625 670.261719,117.725952 
	C670.200317,128.002640 670.216492,138.279770 670.216492,149.003586 
	C674.057922,149.003586 677.513245,149.003662 680.968628,149.003571 
	C701.615845,149.003067 722.263123,149.029419 742.910034,148.949356 
	C744.510010,148.943161 746.107117,148.189835 747.845947,147.383820 
	C750.814758,146.945923 753.758362,146.660889 754.956299,150.576447 
z"/>
<path fill="#F0F0EF" opacity="1.000000" stroke="none" 
	d="
M573.477051,150.018799 
	C572.647705,150.452606 571.420227,151.194427 570.187744,151.202866 
	C557.763000,151.287949 545.337402,151.252884 532.456543,151.132751 
	C535.566833,147.371674 540.379150,148.935410 544.597839,148.043167 
	C547.660400,147.395432 550.794617,147.086121 553.997314,146.218445 
	C560.424072,147.202805 566.750366,148.594604 573.477051,150.018799 
z"/>
<path fill="#F8CB85" opacity="1.000000" stroke="none" 
	d="
M351.912537,46.624073 
	C352.253204,46.604595 352.909760,47.044048 352.908844,47.482151 
	C352.861786,70.450890 352.759003,93.419502 352.255981,116.485741 
	C351.873779,93.416351 351.897705,70.249367 351.912537,46.624073 
z"/>
<path fill="#F8CB85" opacity="1.000000" stroke="none" 
	d="
M340.903015,117.267715 
	C341.221008,127.333519 341.212769,137.667175 341.257751,148.465118 
	C340.957550,148.412964 340.294189,147.895065 340.296600,147.380295 
	C340.343384,137.431839 340.468079,127.483742 340.903015,117.267715 
z"/>
<path fill="#F0F0EF" opacity="1.000000" stroke="none" 
	d="
M463.465607,146.065613 
	C463.896179,145.711060 464.639740,145.385422 465.687897,145.121506 
	C465.254517,145.487000 464.516571,145.790756 463.465607,146.065613 
z"/>
<path fill="#F0F0EF" opacity="1.000000" stroke="none" 
	d="
M451.113098,147.972534 
	C451.622589,147.642792 452.472656,147.379730 453.651489,147.195801 
	C453.138031,147.529694 452.295837,147.784439 451.113098,147.972534 
z"/>
<path fill="#F0F0EF" opacity="1.000000" stroke="none" 
	d="
M459.000732,146.922791 
	C459.241638,146.617310 459.799500,146.367111 460.673157,146.168747 
	C460.431885,146.473068 459.874786,146.725555 459.000732,146.922791 
z"/>
<path fill="#F0F0EF" opacity="1.000000" stroke="none" 
	d="
M438.930267,148.898895 
	C438.952301,148.665482 439.211182,148.465424 439.711426,148.353012 
	C439.773102,148.735947 439.511230,148.899811 438.930267,148.898895 
z"/>
<path fill="#F0F0EF" opacity="1.000000" stroke="none" 
	d="
M442.117554,148.484222 
	C442.179443,148.271194 442.335815,148.197189 442.740234,148.198898 
	C442.729553,148.390808 442.470764,148.507019 442.117554,148.484222 
z"/>
<path fill="#F9FBFC" opacity="1.000000" stroke="none" 
	d="
M436.464050,113.123032 
	C432.808014,117.872536 427.709991,118.466423 422.784180,118.820709 
	C417.165253,119.224861 411.494934,118.914230 405.523499,118.914230 
	C405.523499,110.077477 405.523499,101.354362 405.523499,91.524734 
	C413.560883,92.085129 421.704529,91.979164 429.576874,93.388535 
	C437.689056,94.840836 440.420044,103.345200 436.464050,113.123032 
z"/>
<path fill="#F8FAFA" opacity="1.000000" stroke="none" 
	d="
M420.566589,43.205437 
	C422.657532,43.482132 424.294159,43.735825 425.929535,43.997509 
	C432.207611,45.002121 435.683502,48.817280 435.979462,55.024422 
	C436.287903,61.493439 433.254944,65.991020 426.687714,66.964371 
	C419.854156,67.977196 412.870300,67.975578 405.558411,68.442688 
	C405.558411,59.827251 405.558411,51.800945 405.558411,43.186104 
	C410.316162,43.186104 415.213959,43.186104 420.566589,43.205437 
z"/>
<path fill="#FEFDFC" opacity="1.000000" stroke="none" 
	d="
M141.035049,59.467793 
	C139.692383,65.952499 134.889618,67.522324 129.794113,67.882751 
	C123.690025,68.314529 117.532066,67.984688 111.050079,67.984688 
	C111.050079,59.933189 111.050079,51.720646 111.050079,43.484085 
	C117.054115,43.484085 123.234711,42.832302 129.221069,43.632893 
	C138.820602,44.916702 141.765671,49.263988 141.035049,59.467793 
z"/>
</svg>