<?xml version="1.0" standalone="no"?>
<!DOCTYPE svg PUBLIC "-//W3C//DTD SVG 20010904//EN"
 "http://www.w3.org/TR/2001/REC-SVG-20010904/DTD/svg10.dtd">
<svg version="1.0" xmlns="http://www.w3.org/2000/svg"
 width="1068.000000pt" height="510.000000pt" viewBox="0 0 1068.000000 510.000000"
 preserveAspectRatio="xMidYMid meet">

<g transform="translate(0.000000,510.000000) scale(0.100000,-0.100000)"
fill="#000000" stroke="none">
<path d="M494 4810 c1 -28 5 -35 21 -35 16 0 20 7 21 40 l1 40 -4 -37 c-5 -48
-30 -51 -36 -5 -4 32 -4 32 -3 -3z"/>
<path d="M2061 4808 c1 -24 3 -36 5 -28 6 19 54 43 54 27 0 -6 3 -7 7 -4 10
10 -28 47 -49 47 -15 0 -18 -7 -17 -42z m39 17 c0 -8 -7 -15 -15 -15 -8 0 -15
7 -15 15 0 8 7 15 15 15 8 0 15 -7 15 -15z"/>
<path d="M2170 4809 c0 -36 2 -40 22 -37 13 2 23 10 24 18 0 9 -1 10 -3 3 -6
-18 -33 -16 -33 1 0 8 6 17 13 19 10 4 10 6 0 6 -7 1 -13 6 -13 12 0 6 9 9 20
6 11 -3 18 -1 14 4 -3 5 -14 9 -25 9 -16 0 -19 -7 -19 -41z"/>
<path d="M2234 4825 c-9 -35 2 -55 28 -54 l23 0 -22 9 c-14 6 -23 18 -23 30 0
12 9 24 23 30 l22 9 -22 0 c-16 1 -24 -6 -29 -24z"/>
<path d="M2293 4810 c0 -25 2 -35 4 -22 2 12 2 32 0 45 -2 12 -4 2 -4 -23z"/>
<path d="M2355 4839 c-4 -5 0 -18 9 -28 20 -22 20 -28 -1 -34 -17 -4 -17 -5 0
-6 24 -1 34 29 14 41 -22 12 -22 25 1 31 15 4 15 5 0 6 -9 0 -20 -4 -23 -10z"/>
<path d="M2468 4838 c-2 -7 -1 -26 3 -43 6 -28 7 -28 9 -5 1 14 3 33 5 43 4
19 -11 24 -17 5z"/>
<path d="M2502 4814 c2 -20 9 -39 16 -40 7 -1 8 0 2 3 -12 6 -13 40 -1 45 5 2
2 9 -6 17 -12 11 -14 8 -11 -25z"/>
<path d="M3852 4813 c-2 -39 0 -43 21 -42 16 1 17 3 5 6 -11 3 -18 17 -21 41
l-4 37 -1 -42z"/>
<path d="M3905 4839 c-4 -5 0 -18 9 -28 20 -22 20 -28 -1 -34 -17 -4 -17 -5 0
-6 24 -1 34 29 14 41 -22 12 -22 25 1 31 15 4 15 5 0 6 -9 0 -20 -4 -23 -10z"/>
<path d="M3952 4813 c-2 -41 -1 -43 26 -42 22 1 23 2 5 6 -17 3 -23 13 -26 41
l-4 37 -1 -42z"/>
<path d="M4077 4831 c-4 -17 -3 -21 5 -13 5 5 8 16 6 23 -3 8 -7 3 -11 -10z"/>
<path d="M4192 4834 c-7 -8 -17 -12 -23 -9 -5 4 -9 -9 -8 -27 1 -29 2 -30 8
-9 10 36 31 39 31 4 1 -24 2 -26 11 -10 10 18 11 18 25 0 14 -17 14 -16 4 5
-6 12 -15 22 -20 22 -5 0 -10 9 -12 19 -3 16 -5 17 -16 5z"/>
<path d="M4393 4843 c9 -2 25 -2 35 0 9 3 1 5 -18 5 -19 0 -27 -2 -17 -5z"/>
<path d="M4451 4808 c2 -30 3 -35 6 -15 2 15 9 27 14 27 5 0 10 -12 10 -27 2
-26 2 -26 6 -5 3 16 -3 31 -16 43 l-21 20 1 -43z"/>
<path d="M4672 4826 c-26 -25 -21 -56 9 -56 15 0 19 7 19 40 0 22 -1 40 -2 39
-2 0 -13 -10 -26 -23z m18 -26 c0 -11 -4 -20 -9 -20 -14 0 -23 18 -16 30 10
17 25 11 25 -10z"/>
<path d="M5732 4813 l-2 -43 44 0 c53 0 68 16 38 41 -27 21 -27 26 -4 32 15 4
15 5 0 6 -27 2 -34 -21 -10 -37 33 -21 27 -32 -17 -32 -39 0 -40 1 -44 38 l-4
37 -1 -42z"/>
<path d="M5842 4813 c-2 -39 0 -43 21 -42 16 1 17 3 5 6 -11 3 -18 17 -21 41
l-4 37 -1 -42z"/>
<path d="M5920 4810 c0 -37 2 -41 23 -38 18 2 22 9 22 38 0 29 -4 36 -22 38
-21 3 -23 -1 -23 -38z m35 0 c0 -13 -6 -25 -12 -27 -9 -3 -13 6 -13 27 0 21 4
30 13 28 6 -3 12 -15 12 -28z"/>
<path d="M6042 4814 c2 -20 9 -39 16 -40 7 -1 8 0 2 3 -12 6 -13 40 -1 45 5 2
2 9 -6 17 -12 11 -14 8 -11 -25z"/>
<path d="M6167 4842 c6 -4 13 -23 16 -42 l4 -35 1 37 c2 25 7 38 20 41 9 3 1
5 -18 6 -19 0 -30 -3 -23 -7z"/>
<path d="M6231 4808 c2 -30 3 -35 6 -15 2 15 9 27 14 27 5 0 10 -12 10 -27 2
-26 2 -26 6 -5 3 16 -3 31 -16 43 l-21 20 1 -43z"/>
<path d="M6452 4826 c-26 -25 -21 -56 9 -56 15 0 19 7 19 40 0 22 -1 40 -2 39
-2 0 -13 -10 -26 -23z m18 -26 c0 -21 -15 -27 -25 -10 -7 12 2 30 16 30 5 0 9
-9 9 -20z"/>
<path d="M7601 4808 c1 -24 4 -33 6 -21 2 12 12 24 21 26 15 4 15 5 0 6 -26 2
-22 19 5 24 19 4 18 4 -5 6 -27 1 -28 -1 -27 -41z"/>
<path d="M7768 4837 c-7 -19 6 -60 20 -63 7 -1 8 0 2 3 -12 6 -13 40 -1 45 5
2 3 8 -4 15 -10 9 -14 9 -17 0z"/>
<path d="M8000 4810 c0 -35 3 -40 23 -39 16 1 18 2 5 6 -21 5 -24 29 -5 36 10
4 10 6 0 6 -19 1 -16 19 5 24 13 4 11 5 -5 6 -20 1 -23 -4 -23 -39z"/>
<path d="M8110 4840 c0 -5 -7 -10 -15 -10 -8 0 -15 -5 -15 -11 0 -8 -6 -7 -17
2 -15 11 -16 11 -6 -1 9 -10 9 -18 1 -34 -10 -18 -9 -19 4 -9 11 10 17 10 28
0 12 -10 12 -9 1 5 -7 9 -10 22 -6 28 10 17 23 11 27 -12 2 -12 9 -23 16 -24
7 -1 8 0 2 3 -12 6 -13 40 -1 45 5 2 3 9 -5 16 -8 7 -14 8 -14 2z"/>
<path d="M8298 4837 c-7 -19 6 -60 20 -63 7 -1 8 0 2 3 -12 6 -13 40 -1 45 5
2 3 8 -4 15 -10 9 -14 9 -17 0z"/>
<path d="M8467 4842 c6 -4 13 -23 16 -42 l4 -35 1 38 c2 25 7 37 17 37 10 0
15 -11 16 -37 2 -31 3 -33 6 -10 2 15 10 27 18 27 8 0 16 -12 18 -27 l4 -28 2
28 c1 21 -4 30 -19 34 -11 3 -20 9 -20 14 0 5 -17 9 -37 9 -21 0 -33 -4 -26
-8z"/>
<path d="M8752 4826 c-26 -25 -21 -56 9 -56 15 0 19 7 19 40 0 22 -1 40 -2 39
-2 0 -13 -10 -26 -23z m18 -26 c0 -21 -15 -27 -25 -10 -7 12 2 30 16 30 5 0 9
-9 9 -20z"/>
<path d="M9402 4838 c-24 -24 -6 -69 28 -67 9 0 6 4 -7 9 -14 6 -23 18 -23 30
0 12 9 24 23 30 13 5 16 9 7 9 -9 1 -21 -4 -28 -11z"/>
<path d="M9461 4814 c-1 -41 -1 -42 34 -41 32 1 36 4 33 27 -2 16 -10 26 -23
27 l-20 3 20 -9 c18 -8 18 -10 2 -10 -10 -1 -21 -9 -25 -18 -5 -13 -9 -7 -13
22 l-6 40 -2 -41z m54 -24 c-3 -5 -11 -10 -16 -10 -6 0 -7 5 -4 10 3 6 11 10
16 10 6 0 7 -4 4 -10z"/>
<path d="M9663 4838 c-5 -7 -6 -26 -2 -43 l7 -30 1 28 c0 15 1 30 0 33 0 4 5
11 13 15 8 5 9 9 2 9 -6 0 -16 -6 -21 -12z"/>
<path d="M9857 4842 c6 -4 13 -23 16 -42 l4 -35 1 38 c2 25 7 37 17 37 10 0
15 -11 16 -37 2 -31 3 -33 6 -10 2 15 10 27 18 27 8 0 16 -12 18 -27 l4 -28 2
28 c1 21 -4 30 -19 34 -11 3 -20 9 -20 14 0 5 -17 9 -37 9 -21 0 -33 -4 -26
-8z"/>
<path d="M10142 4826 c-26 -25 -21 -56 9 -56 15 0 19 7 19 40 0 22 -1 40 -2
39 -2 0 -13 -10 -26 -23z m18 -26 c0 -21 -15 -27 -25 -10 -7 12 2 30 16 30 5
0 9 -9 9 -20z"/>
<path d="M556 4821 c-3 -5 2 -15 12 -22 15 -13 16 -12 4 3 -10 13 -10 17 0 21
9 4 9 6 1 6 -6 1 -14 -3 -17 -8z"/>
<path d="M615 4820 c19 -8 19 -9 -4 -9 -17 -1 -22 -5 -17 -17 3 -9 6 -18 6
-20 0 -2 10 -4 23 -3 21 0 21 1 -3 11 -25 11 -25 11 -2 15 12 3 22 11 22 19 0
8 -9 14 -22 13 -22 0 -22 -1 -3 -9z"/>
<path d="M651 4795 c1 -20 3 -24 6 -10 3 11 12 25 20 32 13 10 12 12 -6 10
-17 -1 -21 -7 -20 -32z"/>
<path d="M2404 4816 c-9 -24 4 -48 23 -44 12 2 18 12 18 28 0 29 -32 41 -41
16z m36 -16 c0 -11 -7 -20 -15 -20 -8 0 -15 9 -15 20 0 11 7 20 15 20 8 0 15
-9 15 -20z"/>
<path d="M2541 4814 c0 -11 3 -14 6 -6 3 7 2 16 -1 19 -3 4 -6 -2 -5 -13z"/>
<path d="M2601 4823 c-1 -6 -4 -20 -7 -30 -5 -17 -5 -17 6 0 6 10 9 23 6 30
-3 9 -5 9 -5 0z"/>
<path d="M2635 4821 c17 -8 18 -10 3 -10 -10 -1 -18 -5 -18 -11 0 -5 6 -7 14
-4 8 3 16 -2 19 -13 3 -10 5 -5 4 12 -2 22 -8 31 -22 32 l-20 3 20 -9z"/>
<path d="M2671 4795 c1 -20 3 -24 6 -10 3 11 12 25 20 32 13 10 12 12 -6 10
-17 -1 -21 -7 -20 -32z"/>
<path d="M2735 4820 c19 -8 19 -9 -4 -9 -17 -1 -22 -5 -17 -17 3 -9 6 -18 6
-20 0 -2 10 -4 23 -3 21 0 21 1 -3 11 -25 11 -25 11 -2 15 12 3 22 11 22 19 0
8 -9 14 -22 13 -22 0 -22 -1 -3 -9z"/>
<path d="M4125 4821 c17 -8 18 -10 3 -10 -10 -1 -18 -5 -18 -11 0 -5 6 -7 14
-4 8 3 16 -2 19 -13 3 -10 5 -5 4 12 -2 22 -8 31 -22 32 l-20 3 20 -9z"/>
<path d="M4260 4815 c-15 -18 3 -45 29 -44 10 0 7 4 -9 11 l-25 11 30 7 c28 7
28 8 5 10 -23 1 -23 2 -5 10 15 7 16 9 4 9 -9 1 -22 -6 -29 -14z"/>
<path d="M4321 4798 c2 -28 2 -29 6 -8 3 14 10 28 17 32 7 5 5 8 -6 8 -14 0
-18 -8 -17 -32z"/>
<path d="M4501 4796 c1 -29 2 -29 8 -7 9 33 29 38 33 9 2 -13 10 -23 21 -24
12 -1 13 -1 2 3 -22 7 -18 23 6 23 12 0 19 5 17 13 -3 7 -22 12 -46 13 -41 0
-42 -1 -41 -30z m76 18 c-3 -3 -12 -4 -19 -1 -8 3 -5 6 6 6 11 1 17 -2 13 -5z"/>
<path d="M4614 4821 c18 -7 18 -8 3 -14 -26 -10 -21 -37 6 -35 19 2 22 7 19
30 -3 21 -10 28 -26 27 -20 0 -20 -1 -2 -8z m16 -31 c0 -5 -4 -10 -10 -10 -5
0 -10 5 -10 10 0 6 5 10 10 10 6 0 10 -4 10 -10z"/>
<path d="M5994 4821 c18 -7 18 -8 2 -14 -23 -9 -15 -32 10 -33 17 -1 19 4 16
27 -3 22 -10 29 -26 28 -20 0 -20 -1 -2 -8z m16 -31 c0 -5 -4 -10 -10 -10 -5
0 -10 5 -10 10 0 6 5 10 10 10 6 0 10 -4 10 -10z"/>
<path d="M6095 4821 c17 -8 18 -10 3 -10 -10 -1 -18 -5 -18 -11 0 -5 6 -7 14
-4 8 3 16 -2 19 -13 3 -10 5 -5 4 12 -2 22 -8 31 -22 32 l-20 3 20 -9z"/>
<path d="M6281 4796 c1 -29 2 -29 8 -7 9 33 29 38 33 9 2 -13 10 -23 21 -24
12 -1 13 -1 2 3 -22 7 -18 23 6 23 12 0 19 5 17 13 -3 7 -22 12 -46 13 -41 0
-42 -1 -41 -30z m76 18 c-3 -3 -12 -4 -19 -1 -8 3 -5 6 6 6 11 1 17 -2 13 -5z"/>
<path d="M6394 4821 c18 -7 18 -8 3 -14 -26 -10 -21 -37 6 -35 19 2 22 7 19
30 -3 21 -10 28 -26 27 -20 0 -20 -1 -2 -8z m16 -31 c0 -5 -4 -10 -10 -10 -5
0 -10 5 -10 10 0 6 5 10 10 10 6 0 10 -4 10 -10z"/>
<path d="M6496 4821 c-3 -5 2 -15 12 -22 15 -13 16 -12 4 3 -10 13 -10 17 0
21 9 4 9 6 1 6 -6 1 -14 -3 -17 -8z"/>
<path d="M7654 4816 c-9 -23 3 -46 23 -45 17 1 17 2 1 6 -25 6 -22 23 3 23 12
0 19 5 17 13 -7 18 -37 21 -44 3z m33 -2 c-3 -3 -12 -4 -19 -1 -8 3 -5 6 6 6
11 1 17 -2 13 -5z"/>
<path d="M7724 4821 c18 -7 18 -8 3 -14 -26 -10 -21 -37 6 -35 19 2 22 7 19
30 -3 21 -10 28 -26 27 -20 0 -20 -1 -2 -8z m16 -31 c0 -5 -4 -10 -10 -10 -5
0 -10 5 -10 10 0 6 5 10 10 10 6 0 10 -4 10 -10z"/>
<path d="M7811 4803 c-1 -27 3 -33 19 -33 16 0 20 6 19 33 -2 30 -2 30 -6 5
-2 -16 -8 -28 -13 -28 -5 0 -11 12 -13 28 -4 25 -4 25 -6 -5z"/>
<path d="M7871 4798 c2 -28 2 -29 6 -8 3 14 10 28 17 32 7 5 5 8 -6 8 -14 0
-18 -8 -17 -32z"/>
<path d="M7925 4820 c19 -8 19 -9 -4 -9 -17 -1 -22 -5 -17 -17 3 -9 6 -18 6
-20 0 -2 10 -4 23 -3 21 0 21 1 -3 11 -25 11 -25 11 -2 15 12 3 22 11 22 19 0
8 -9 14 -22 13 -22 0 -22 -1 -3 -9z"/>
<path d="M8151 4798 c2 -28 2 -29 6 -8 3 14 10 28 17 32 7 5 5 8 -6 8 -14 0
-18 -8 -17 -32z"/>
<path d="M8205 4821 c17 -8 18 -10 3 -10 -10 -1 -18 -5 -18 -11 0 -5 6 -7 14
-4 8 3 16 -2 19 -13 3 -10 5 -5 4 12 -2 22 -8 31 -22 32 l-20 3 20 -9z"/>
<path d="M8244 4815 c-9 -23 3 -45 23 -44 17 1 17 2 1 6 -10 2 -18 13 -18 23
0 10 8 21 18 23 16 4 16 5 -1 6 -10 0 -20 -6 -23 -14z"/>
<path d="M8337 4815 c-9 -22 3 -46 22 -43 10 2 16 13 16 28 0 28 -29 40 -38
15z m33 -15 c0 -21 -15 -27 -25 -10 -7 12 2 30 16 30 5 0 9 -9 9 -20z"/>
<path d="M8391 4795 c1 -20 3 -24 6 -10 3 11 12 25 20 32 13 10 12 12 -6 10
-17 -1 -21 -7 -20 -32z"/>
<path d="M8581 4796 c1 -21 3 -25 6 -11 3 11 9 25 14 31 5 7 3 11 -6 11 -10 0
-15 -10 -14 -31z"/>
<path d="M8624 4816 c-9 -23 3 -46 23 -45 17 1 17 2 1 6 -25 6 -22 23 3 23 12
0 19 5 17 13 -7 18 -37 21 -44 3z m33 -2 c-3 -3 -12 -4 -19 -1 -8 3 -5 6 6 6
11 1 17 -2 13 -5z"/>
<path d="M8694 4821 c18 -7 18 -8 3 -14 -26 -10 -21 -37 6 -35 19 2 22 7 19
30 -3 21 -10 28 -26 27 -20 0 -20 -1 -2 -8z m16 -31 c0 -5 -4 -10 -10 -10 -5
0 -10 5 -10 10 0 6 5 10 10 10 6 0 10 -4 10 -10z"/>
<path d="M8796 4821 c-3 -5 2 -15 12 -22 15 -13 16 -12 4 3 -10 13 -10 17 0
21 9 4 9 6 1 6 -6 1 -14 -3 -17 -8z"/>
<path d="M9540 4816 c0 -8 6 -17 13 -19 9 -4 8 -8 -3 -16 -13 -9 -13 -11 3
-11 19 0 23 25 6 36 -8 4 -7 9 2 15 11 7 10 9 -3 9 -10 0 -18 -6 -18 -14z"/>
<path d="M9586 4821 c-3 -5 2 -15 12 -22 15 -13 16 -12 4 3 -10 13 -10 17 0
21 9 4 9 6 1 6 -6 1 -14 -3 -17 -8z"/>
<path d="M9628 4800 c2 -16 6 -30 8 -30 2 0 4 14 4 30 0 17 -4 30 -8 30 -5 0
-7 -13 -4 -30z"/>
<path d="M9698 4800 c2 -16 6 -30 8 -30 2 0 4 14 4 30 0 17 -4 30 -8 30 -5 0
-7 -13 -4 -30z"/>
<path d="M9745 4820 c19 -8 19 -9 -4 -9 -17 -1 -22 -5 -17 -17 3 -9 6 -18 6
-20 0 -2 10 -4 23 -3 21 0 21 1 -3 11 -25 11 -25 11 -2 15 12 3 22 11 22 19 0
8 -9 14 -22 13 -22 0 -22 -1 -3 -9z"/>
<path d="M9781 4795 c1 -20 3 -24 6 -10 3 11 12 25 20 32 13 10 12 12 -6 10
-17 -1 -21 -7 -20 -32z"/>
<path d="M9971 4796 c1 -21 3 -25 6 -11 3 11 9 25 14 31 5 7 3 11 -6 11 -10 0
-15 -10 -14 -31z"/>
<path d="M10014 4816 c-9 -23 3 -46 23 -45 17 1 17 2 1 6 -25 6 -22 23 3 23
12 0 19 5 17 13 -7 18 -37 21 -44 3z m33 -2 c-3 -3 -12 -4 -19 -1 -8 3 -5 6 6
6 11 1 17 -2 13 -5z"/>
<path d="M10084 4821 c18 -7 18 -8 3 -14 -26 -10 -21 -37 6 -35 19 2 22 7 19
30 -3 21 -10 28 -26 27 -20 0 -20 -1 -2 -8z m16 -31 c0 -5 -4 -10 -10 -10 -5
0 -10 5 -10 10 0 6 5 10 10 10 6 0 10 -4 10 -10z"/>
<path d="M2133 4783 c-3 -10 -8 -22 -11 -27 -3 -5 0 -6 5 -3 11 7 25 47 17 47
-3 0 -7 -8 -11 -17z"/>
<path d="M4031 4784 c0 -11 3 -14 6 -6 3 7 2 16 -1 19 -3 4 -6 -2 -5 -13z"/>
<path d="M4091 4784 c0 -11 3 -14 6 -6 3 7 2 16 -1 19 -3 4 -6 -2 -5 -13z"/>
<path d="M558 4773 c7 -3 16 -2 19 1 4 3 -2 6 -13 5 -11 0 -14 -3 -6 -6z"/>
<path d="M6498 4773 c7 -3 16 -2 19 1 4 3 -2 6 -13 5 -11 0 -14 -3 -6 -6z"/>
<path d="M8798 4773 c7 -3 16 -2 19 1 4 3 -2 6 -13 5 -11 0 -14 -3 -6 -6z"/>
<path d="M9588 4773 c7 -3 16 -2 19 1 4 3 -2 6 -13 5 -11 0 -14 -3 -6 -6z"/>
<path d="M1336 4412 c-2 -4 4 -8 14 -8 10 0 16 4 14 8 -3 4 -9 8 -14 8 -5 0
-11 -4 -14 -8z"/>
<path d="M1388 4390 c2 -16 6 -30 8 -30 2 0 4 14 4 30 0 17 -4 30 -8 30 -5 0
-7 -13 -4 -30z"/>
<path d="M1418 4413 c7 -3 16 -2 19 1 4 3 -2 6 -13 5 -11 0 -14 -3 -6 -6z"/>
<path d="M1458 4390 c2 -16 6 -30 8 -30 2 0 4 14 4 30 0 17 -4 30 -8 30 -5 0
-7 -13 -4 -30z"/>
<path d="M1498 4413 c7 -3 16 -2 19 1 4 3 -2 6 -13 5 -11 0 -14 -3 -6 -6z"/>
<path d="M1608 4413 c6 -2 18 -2 25 0 6 3 1 5 -13 5 -14 0 -19 -2 -12 -5z"/>
<path d="M1654 4405 c-9 -23 3 -45 23 -44 17 1 17 2 1 6 -25 6 -22 21 5 26 21
4 21 4 -3 6 -23 2 -24 3 -5 11 18 8 18 9 2 9 -10 1 -20 -6 -23 -14z"/>
<path d="M1502 4393 c9 -2 19 -12 21 -21 3 -12 5 -10 6 6 1 17 -4 22 -21 21
-16 -1 -18 -3 -6 -6z"/>
<path d="M1420 4370 c0 -5 5 -10 11 -10 5 0 7 5 4 10 -3 6 -8 10 -11 10 -2 0
-4 -4 -4 -10z"/>
<path d="M1608 4363 c6 -2 18 -2 25 0 6 3 1 5 -13 5 -14 0 -19 -2 -12 -5z"/>
<path d="M2350 4250 c0 -16 2 -30 5 -30 11 0 55 24 55 30 0 6 -44 30 -55 30
-3 0 -5 -13 -5 -30z"/>
<path d="M2649 4083 c-13 -17 -13 -17 6 -3 11 8 22 16 24 17 2 2 0 3 -6 3 -6
0 -17 -8 -24 -17z"/>
<path d="M3245 4090 c-8 -13 12 -40 29 -40 6 0 3 5 -6 11 -10 5 -18 14 -18 19
0 5 8 11 18 13 15 4 15 5 0 6 -9 0 -20 -4 -23 -9z"/>
<path d="M3543 4060 c0 -25 2 -35 4 -22 2 12 2 32 0 45 -2 12 -4 2 -4 -23z"/>
<path d="M3738 4093 c7 -3 16 -2 19 1 4 3 -2 6 -13 5 -11 0 -14 -3 -6 -6z"/>
<path d="M3782 4066 c2 -25 9 -41 18 -43 12 -4 13 -3 1 5 -8 6 -12 19 -9 30 3
11 1 26 -4 33 -6 9 -8 1 -6 -25z"/>
<path d="M2704 4066 c-9 -24 4 -48 23 -44 12 2 18 12 18 28 0 29 -32 41 -41
16z m36 -16 c0 -11 -7 -20 -15 -20 -8 0 -15 9 -15 20 0 11 7 20 15 20 8 0 15
-9 15 -20z"/>
<path d="M2761 4048 c2 -32 2 -32 6 -5 3 20 9 27 19 23 8 -3 14 -1 14 4 0 6
-9 10 -20 10 -16 0 -20 -6 -19 -32z"/>
<path d="M2826 4072 c-2 -4 4 -8 14 -8 10 0 16 4 14 8 -3 4 -9 8 -14 8 -5 0
-11 -4 -14 -8z"/>
<path d="M2895 4071 c19 -9 19 -10 -3 -10 -29 -1 -26 -35 3 -38 16 -1 16 -1 3
3 -25 7 -22 24 3 24 26 0 20 24 -7 27 -18 3 -18 2 1 -6z"/>
<path d="M2934 4065 c-9 -23 3 -45 23 -44 17 1 17 2 1 6 -10 2 -18 13 -18 23
0 10 8 21 18 23 16 4 16 5 -1 6 -10 0 -20 -6 -23 -14z"/>
<path d="M2988 4073 c7 -3 16 -2 19 1 4 3 -2 6 -13 5 -11 0 -14 -3 -6 -6z"/>
<path d="M3068 4073 c7 -3 16 -2 19 1 4 3 -2 6 -13 5 -11 0 -14 -3 -6 -6z"/>
<path d="M3106 4072 c-2 -4 4 -8 14 -8 10 0 16 4 14 8 -3 4 -9 8 -14 8 -5 0
-11 -4 -14 -8z"/>
<path d="M3458 4073 c7 -3 16 -2 19 1 4 3 -2 6 -13 5 -11 0 -14 -3 -6 -6z"/>
<path d="M3878 4073 c7 -3 16 -2 19 1 4 3 -2 6 -13 5 -11 0 -14 -3 -6 -6z"/>
<path d="M3928 4073 c7 -3 16 -2 19 1 4 3 -2 6 -13 5 -11 0 -14 -3 -6 -6z"/>
<path d="M3972 4050 c0 -19 2 -27 5 -17 2 9 2 25 0 35 -3 9 -5 1 -5 -18z"/>
<path d="M3730 4066 c0 -2 7 -7 16 -10 8 -3 12 -2 9 4 -6 10 -25 14 -25 6z"/>
<path d="M3462 4053 c9 -2 19 -12 21 -21 3 -12 5 -10 6 6 1 17 -4 22 -21 21
-16 -1 -18 -3 -6 -6z"/>
<path d="M3590 4052 c0 -14 23 -32 40 -31 8 0 4 5 -10 11 l-25 11 25 7 25 8
-27 1 c-16 1 -28 -3 -28 -7z"/>
<path d="M3868 4053 c6 -2 18 -2 25 0 6 3 1 5 -13 5 -14 0 -19 -2 -12 -5z"/>
<path d="M3932 4053 c9 -2 19 -12 21 -21 3 -12 5 -10 6 6 1 17 -4 22 -21 21
-16 -1 -18 -3 -6 -6z"/>
<path d="M4042 4040 c0 -14 2 -19 5 -12 2 6 2 18 0 25 -3 6 -5 1 -5 -13z"/>
<path d="M2652 4034 c9 -9 21 -15 27 -13 6 2 -2 10 -17 17 -25 11 -25 11 -10
-4z"/>
<path d="M2990 4030 c0 -5 5 -10 11 -10 5 0 7 5 4 10 -3 6 -8 10 -11 10 -2 0
-4 -4 -4 -10z"/>
<path d="M3067 4029 c7 -7 15 -10 18 -7 3 3 -2 9 -12 12 -14 6 -15 5 -6 -5z"/>
<path d="M3110 4026 c7 -7 13 -7 20 0 6 6 3 10 -10 10 -13 0 -16 -4 -10 -10z"/>
<path d="M3255 4030 c-16 -7 -17 -9 -3 -9 9 -1 20 4 23 9 7 11 7 11 -20 0z"/>
<path d="M3868 4028 c5 -5 16 -8 23 -6 8 3 3 7 -10 11 -17 4 -21 3 -13 -5z"/>
<path d="M3198 4023 c6 -2 18 -2 25 0 6 3 1 5 -13 5 -14 0 -19 -2 -12 -5z"/>
<path d="M3303 4023 c9 -2 23 -2 30 0 6 3 -1 5 -18 5 -16 0 -22 -2 -12 -5z"/>
<path d="M3738 4023 c7 -3 16 -2 19 1 4 3 -2 6 -13 5 -11 0 -14 -3 -6 -6z"/>
<path d="M4210 3926 c0 -14 -83 -16 -902 -19 l-903 -2 903 -3 c790 -2 902 -4
902 -17 0 -13 5 -12 35 2 39 19 44 28 18 36 -10 2 -26 8 -35 12 -13 5 -18 2
-18 -9z"/>
<path d="M3190 3745 c-6 -8 -10 -20 -7 -27 3 -8 6 -6 6 5 1 10 11 22 24 27 15
6 17 9 6 9 -9 1 -22 -6 -29 -14z"/>
<path d="M3530 3756 c0 -2 11 -6 25 -8 13 -3 22 -1 19 3 -5 9 -44 13 -44 5z"/>
<path d="M3783 3753 c9 -2 25 -2 35 0 9 3 1 5 -18 5 -19 0 -27 -2 -17 -5z"/>
<path d="M3841 3717 c2 -31 3 -35 6 -14 3 20 9 27 19 23 19 -7 18 -4 -6 17
-20 16 -20 16 -19 -26z"/>
<path d="M4512 3720 c1 -30 2 -35 5 -17 4 23 9 28 24 24 10 -3 17 -1 13 4 -3
5 -11 9 -19 9 -7 0 -16 6 -18 13 -3 6 -5 -8 -5 -33z"/>
<path d="M4668 3753 c7 -3 16 -2 19 1 4 3 -2 6 -13 5 -11 0 -14 -3 -6 -6z"/>
<path d="M4798 3753 c7 -3 16 -2 19 1 4 3 -2 6 -13 5 -11 0 -14 -3 -6 -6z"/>
<path d="M4912 3726 c2 -25 9 -41 18 -43 12 -4 13 -3 1 5 -8 6 -12 19 -9 30 3
11 1 26 -4 33 -6 9 -8 1 -6 -25z"/>
<path d="M5048 3753 c7 -3 16 -2 19 1 4 3 -2 6 -13 5 -11 0 -14 -3 -6 -6z"/>
<path d="M5092 3726 c2 -25 9 -41 18 -43 12 -4 13 -3 1 5 -8 6 -12 19 -9 30 3
11 1 26 -4 33 -6 9 -8 1 -6 -25z"/>
<path d="M3358 3733 c7 -3 16 -2 19 1 4 3 -2 6 -13 5 -11 0 -14 -3 -6 -6z"/>
<path d="M3408 3733 c7 -3 16 -2 19 1 4 3 -2 6 -13 5 -11 0 -14 -3 -6 -6z"/>
<path d="M3444 3725 c-9 -23 3 -45 23 -44 17 1 17 2 1 6 -25 6 -22 21 5 26 21
4 21 4 -3 6 -23 2 -24 3 -5 11 18 8 18 9 2 9 -10 1 -20 -6 -23 -14z"/>
<path d="M3608 3733 c7 -3 16 -2 19 1 4 3 -2 6 -13 5 -11 0 -14 -3 -6 -6z"/>
<path d="M3658 3733 c7 -3 16 -2 19 1 4 3 -2 6 -13 5 -11 0 -14 -3 -6 -6z"/>
<path d="M3698 3733 c7 -3 16 -2 19 1 4 3 -2 6 -13 5 -11 0 -14 -3 -6 -6z"/>
<path d="M4008 3733 c7 -3 16 -2 19 1 4 3 -2 6 -13 5 -11 0 -14 -3 -6 -6z"/>
<path d="M4068 3733 c7 -3 16 -2 19 1 4 3 -2 6 -13 5 -11 0 -14 -3 -6 -6z"/>
<path d="M4106 3731 c-3 -5 2 -15 12 -22 15 -13 16 -12 4 3 -10 13 -10 17 0
21 9 4 9 6 1 6 -6 1 -14 -3 -17 -8z"/>
<path d="M4188 3733 c7 -3 16 -2 19 1 4 3 -2 6 -13 5 -11 0 -14 -3 -6 -6z"/>
<path d="M4224 3725 c-9 -23 3 -45 23 -44 17 1 17 2 1 6 -10 2 -18 13 -18 23
0 10 8 21 18 23 16 4 16 5 -1 6 -10 0 -20 -6 -23 -14z"/>
<path d="M4368 3733 c7 -3 16 -2 19 1 4 3 -2 6 -13 5 -11 0 -14 -3 -6 -6z"/>
<path d="M4418 3733 c7 -3 16 -2 19 1 4 3 -2 6 -13 5 -11 0 -14 -3 -6 -6z"/>
<path d="M4464 3725 c-9 -23 3 -45 23 -44 17 1 17 2 1 6 -10 2 -18 13 -18 23
0 10 8 21 18 23 16 4 16 5 -1 6 -10 0 -20 -6 -23 -14z"/>
<path d="M4832 3720 c0 -14 2 -19 5 -12 2 6 2 18 0 25 -3 6 -5 1 -5 -13z"/>
<path d="M4858 3733 c7 -3 16 -2 19 1 4 3 -2 6 -13 5 -11 0 -14 -3 -6 -6z"/>
<path d="M4958 3733 c7 -3 16 -2 19 1 4 3 -2 6 -13 5 -11 0 -14 -3 -6 -6z"/>
<path d="M5188 3733 c7 -3 16 -2 19 1 4 3 -2 6 -13 5 -11 0 -14 -3 -6 -6z"/>
<path d="M5238 3733 c7 -3 16 -2 19 1 4 3 -2 6 -13 5 -11 0 -14 -3 -6 -6z"/>
<path d="M5282 3710 c0 -19 2 -27 5 -17 2 9 2 25 0 35 -3 9 -5 1 -5 -18z"/>
<path d="M4660 3726 c0 -2 7 -7 16 -10 8 -3 12 -2 9 4 -6 10 -25 14 -25 6z"/>
<path d="M5040 3726 c0 -2 7 -7 16 -10 8 -3 12 -2 9 4 -6 10 -25 14 -25 6z"/>
<path d="M3280 3712 c0 -14 23 -32 40 -31 8 0 4 5 -10 11 l-25 11 25 7 25 8
-27 1 c-16 1 -28 -3 -28 -7z"/>
<path d="M3345 3710 c-9 -15 3 -29 25 -27 10 1 17 5 14 9 -3 4 -11 5 -19 1 -8
-3 -15 0 -15 5 0 6 8 13 18 15 15 4 15 5 0 6 -9 0 -20 -3 -23 -9z"/>
<path d="M3595 3710 c-9 -15 3 -29 25 -27 10 1 17 5 14 9 -3 4 -11 5 -19 1 -8
-3 -15 0 -15 5 0 6 8 13 18 15 15 4 15 5 0 6 -9 0 -20 -3 -23 -9z"/>
<path d="M3695 3710 c-3 -6 1 -7 9 -4 17 7 22 -11 6 -19 -6 -3 -5 -4 2 -3 19
4 22 36 4 36 -8 0 -18 -4 -21 -10z"/>
<path d="M3930 3712 c0 -14 23 -32 40 -31 8 0 4 5 -10 11 l-25 11 25 7 25 8
-27 1 c-16 1 -28 -3 -28 -7z"/>
<path d="M3995 3710 c-9 -15 3 -29 25 -27 10 1 17 5 14 9 -3 4 -11 5 -19 1 -8
-3 -15 0 -15 5 0 6 8 13 18 15 15 4 15 5 0 6 -9 0 -20 -3 -23 -9z"/>
<path d="M4358 3713 c6 -2 18 -2 25 0 6 3 1 5 -13 5 -14 0 -19 -2 -12 -5z"/>
<path d="M4422 3713 c9 -2 19 -12 21 -21 3 -12 5 -10 6 6 1 17 -4 22 -21 21
-16 -1 -18 -3 -6 -6z"/>
<path d="M4855 3710 c-3 -6 1 -7 9 -4 17 7 22 -11 6 -19 -6 -3 -5 -4 2 -3 19
4 22 36 4 36 -8 0 -18 -4 -21 -10z"/>
<path d="M4955 3710 c-3 -5 0 -7 9 -4 8 3 16 -2 19 -13 4 -14 5 -14 6 5 1 22
-22 31 -34 12z"/>
<path d="M5178 3713 c6 -2 18 -2 25 0 6 3 1 5 -13 5 -14 0 -19 -2 -12 -5z"/>
<path d="M5242 3713 c9 -2 19 -12 21 -21 3 -12 5 -10 6 6 1 17 -4 22 -21 21
-16 -1 -18 -3 -6 -6z"/>
<path d="M5352 3700 c0 -14 2 -19 5 -12 2 6 2 18 0 25 -3 6 -5 1 -5 -13z"/>
<path d="M3198 3688 c5 -5 16 -8 23 -6 8 3 3 7 -10 11 -17 4 -21 3 -13 -5z"/>
<path d="M3407 3689 c7 -7 15 -10 18 -7 3 3 -2 9 -12 12 -14 6 -15 5 -6 -5z"/>
<path d="M3550 3690 c-23 -7 -23 -8 -3 -9 12 -1 25 4 28 9 3 6 5 10 3 9 -2 -1
-14 -5 -28 -9z"/>
<path d="M4058 3688 c5 -5 16 -8 23 -6 8 3 3 7 -10 11 -17 4 -21 3 -13 -5z"/>
<path d="M4358 3688 c5 -5 16 -8 23 -6 8 3 3 7 -10 11 -17 4 -21 3 -13 -5z"/>
<path d="M5178 3688 c5 -5 16 -8 23 -6 8 3 3 7 -10 11 -17 4 -21 3 -13 -5z"/>
<path d="M4108 3683 c7 -3 16 -2 19 1 4 3 -2 6 -13 5 -11 0 -14 -3 -6 -6z"/>
<path d="M4618 3683 c6 -2 18 -2 25 0 6 3 1 5 -13 5 -14 0 -19 -2 -12 -5z"/>
<path d="M4668 3683 c7 -3 16 -2 19 1 4 3 -2 6 -13 5 -11 0 -14 -3 -6 -6z"/>
<path d="M4718 3683 c6 -2 18 -2 25 0 6 3 1 5 -13 5 -14 0 -19 -2 -12 -5z"/>
<path d="M4798 3683 c7 -3 16 -2 19 1 4 3 -2 6 -13 5 -11 0 -14 -3 -6 -6z"/>
<path d="M5048 3683 c7 -3 16 -2 19 1 4 3 -2 6 -13 5 -11 0 -14 -3 -6 -6z"/>
<path d="M6070 3584 c0 -12 -263 -14 -1832 -17 l-1833 -2 1833 -3 c1634 -2
1832 -4 1832 -17 0 -14 3 -14 30 0 17 9 30 19 30 23 0 4 -13 13 -30 19 -25 9
-30 9 -30 -3z"/>
<path d="M4020 3405 c-6 -8 -10 -20 -7 -27 3 -8 6 -6 6 5 1 10 11 22 24 27 15
6 17 9 6 9 -9 1 -22 -6 -29 -14z"/>
<path d="M4373 3413 c9 -2 23 -2 30 0 6 3 -1 5 -18 5 -16 0 -22 -2 -12 -5z"/>
<path d="M4768 3413 c6 -2 18 -2 25 0 6 3 1 5 -13 5 -14 0 -19 -2 -12 -5z"/>
<path d="M4872 3386 c2 -25 9 -41 18 -43 12 -4 13 -3 1 5 -8 6 -12 19 -9 30 3
11 1 26 -4 33 -6 9 -8 1 -6 -25z"/>
<path d="M5062 3386 c2 -25 9 -41 18 -43 12 -4 13 -3 1 5 -8 6 -12 19 -9 30 3
11 1 26 -4 33 -6 9 -8 1 -6 -25z"/>
<path d="M5233 3413 c9 -2 25 -2 35 0 9 3 1 5 -18 5 -19 0 -27 -2 -17 -5z"/>
<path d="M5522 3405 c-7 -9 -8 -15 -2 -15 17 0 11 -38 -7 -43 -14 -4 -12 -5 5
-6 19 -1 22 4 22 39 0 45 0 45 -18 25z"/>
<path d="M5637 3413 c-4 -3 -7 -22 -7 -41 0 -42 7 -40 11 3 2 17 8 33 14 37 7
5 6 8 -1 8 -6 0 -14 -3 -17 -7z"/>
<path d="M5962 3380 c1 -29 2 -35 5 -17 3 17 11 27 21 28 14 0 14 2 2 6 -8 3
-18 11 -22 17 -4 6 -7 -9 -6 -34z"/>
<path d="M6050 3416 c0 -2 11 -6 25 -8 13 -3 22 -1 19 3 -5 9 -44 13 -44 5z"/>
<path d="M6303 3413 c9 -2 25 -2 35 0 9 3 1 5 -18 5 -19 0 -27 -2 -17 -5z"/>
<path d="M6361 3377 c2 -31 3 -35 6 -14 3 20 9 27 19 23 19 -7 18 -4 -6 17
-20 16 -20 16 -19 -26z"/>
<path d="M4138 3393 c7 -3 16 -2 19 1 4 3 -2 6 -13 5 -11 0 -14 -3 -6 -6z"/>
<path d="M4188 3393 c7 -3 16 -2 19 1 4 3 -2 6 -13 5 -11 0 -14 -3 -6 -6z"/>
<path d="M4238 3393 c7 -3 16 -2 19 1 4 3 -2 6 -13 5 -11 0 -14 -3 -6 -6z"/>
<path d="M4274 3385 c-9 -23 3 -45 23 -44 17 1 17 2 1 6 -25 6 -22 21 5 26 21
4 21 4 -3 6 -23 2 -24 3 -5 11 18 8 18 9 2 9 -10 1 -20 -6 -23 -14z"/>
<path d="M4488 3393 c7 -3 16 -2 19 1 4 3 -2 6 -13 5 -11 0 -14 -3 -6 -6z"/>
<path d="M4538 3393 c7 -3 16 -2 19 1 4 3 -2 6 -13 5 -11 0 -14 -3 -6 -6z"/>
<path d="M4574 3370 c1 -18 7 -26 24 -28 19 -3 22 1 21 30 -2 30 -2 31 -6 6
-5 -34 -30 -37 -36 -5 -3 19 -4 19 -3 -3z"/>
<path d="M4688 3393 c7 -3 16 -2 19 1 4 3 -2 6 -13 5 -11 0 -14 -3 -6 -6z"/>
<path d="M4958 3393 c7 -3 16 -2 19 1 4 3 -2 6 -13 5 -11 0 -14 -3 -6 -6z"/>
<path d="M5003 3385 c-3 -9 -3 -19 1 -22 3 -4 6 1 6 10 0 8 8 18 18 20 16 4
16 5 -1 6 -10 0 -20 -6 -24 -14z"/>
<path d="M5106 3392 c-2 -4 4 -8 14 -8 10 0 16 4 14 8 -3 4 -9 8 -14 8 -5 0
-11 -4 -14 -8z"/>
<path d="M5290 3392 c0 -4 9 -8 19 -8 11 0 17 4 15 8 -3 4 -12 8 -20 8 -8 0
-14 -4 -14 -8z"/>
<path d="M5405 3391 c19 -9 19 -10 -3 -10 -29 -1 -26 -35 3 -38 16 -1 16 -1 3
3 -25 7 -22 24 3 24 26 0 20 24 -7 27 -18 3 -18 2 1 -6z"/>
<path d="M5448 3393 c7 -3 16 -2 19 1 4 3 -2 6 -13 5 -11 0 -14 -3 -6 -6z"/>
<path d="M5556 3391 c-3 -5 2 -15 12 -22 15 -13 16 -12 4 3 -10 13 -10 17 0
21 9 4 9 6 1 6 -6 1 -14 -3 -17 -8z"/>
<path d="M5676 3392 c-2 -4 4 -8 14 -8 10 0 16 4 14 8 -3 4 -9 8 -14 8 -5 0
-11 -4 -14 -8z"/>
<path d="M5868 3393 c7 -3 16 -2 19 1 4 3 -2 6 -13 5 -11 0 -14 -3 -6 -6z"/>
<path d="M5915 3390 c-3 -6 1 -7 9 -4 18 7 21 14 7 14 -6 0 -13 -4 -16 -10z"/>
<path d="M6128 3393 c7 -3 16 -2 19 1 4 3 -2 6 -13 5 -11 0 -14 -3 -6 -6z"/>
<path d="M6178 3393 c7 -3 16 -2 19 1 4 3 -2 6 -13 5 -11 0 -14 -3 -6 -6z"/>
<path d="M6218 3393 c7 -3 16 -2 19 1 4 3 -2 6 -13 5 -11 0 -14 -3 -6 -6z"/>
<path d="M6528 3393 c7 -3 16 -2 19 1 4 3 -2 6 -13 5 -11 0 -14 -3 -6 -6z"/>
<path d="M6588 3393 c7 -3 16 -2 19 1 4 3 -2 6 -13 5 -11 0 -14 -3 -6 -6z"/>
<path d="M4368 3383 c6 -2 18 -2 25 0 6 3 1 5 -13 5 -14 0 -19 -2 -12 -5z"/>
<path d="M4768 3383 c7 -3 16 -2 19 1 4 3 -2 6 -13 5 -11 0 -14 -3 -6 -6z"/>
<path d="M4128 3373 c6 -2 18 -2 25 0 6 3 1 5 -13 5 -14 0 -19 -2 -12 -5z"/>
<path d="M4175 3370 c-9 -15 3 -29 25 -27 10 1 17 5 14 9 -3 4 -11 5 -19 1 -8
-3 -15 0 -15 5 0 6 8 13 18 15 15 4 15 5 0 6 -9 0 -20 -3 -23 -9z"/>
<path d="M4410 3372 c0 -14 23 -32 40 -31 8 0 4 5 -10 11 l-25 11 25 7 25 8
-27 1 c-16 1 -28 -3 -28 -7z"/>
<path d="M4475 3370 c-9 -15 3 -29 25 -27 10 1 17 5 14 9 -3 4 -11 5 -19 1 -8
-3 -15 0 -15 5 0 6 8 13 18 15 15 4 15 5 0 6 -9 0 -20 -3 -23 -9z"/>
<path d="M4678 3373 c6 -2 18 -2 25 0 6 3 1 5 -13 5 -14 0 -19 -2 -12 -5z"/>
<path d="M4955 3370 c-3 -5 0 -7 9 -4 8 3 16 -2 19 -13 4 -14 5 -14 6 5 1 22
-22 31 -34 12z"/>
<path d="M5445 3370 c-3 -6 1 -7 9 -4 17 7 22 -11 6 -19 -6 -3 -5 -4 2 -3 19
4 22 36 4 36 -8 0 -18 -4 -21 -10z"/>
<path d="M5790 3372 c0 -14 23 -32 40 -31 8 0 4 5 -10 11 l-25 11 25 7 25 8
-27 1 c-16 1 -28 -3 -28 -7z"/>
<path d="M5855 3370 c-9 -15 3 -29 25 -27 10 1 17 5 14 9 -3 4 -11 5 -19 1 -8
-3 -15 0 -15 5 0 6 8 13 18 15 15 4 15 5 0 6 -9 0 -20 -3 -23 -9z"/>
<path d="M6120 3370 c0 -5 6 -7 14 -4 8 3 16 -2 19 -13 4 -14 5 -14 6 5 1 16
-5 22 -19 22 -11 0 -20 -4 -20 -10z"/>
<path d="M6215 3370 c-3 -6 1 -7 9 -4 17 7 22 -11 6 -19 -6 -3 -5 -4 2 -3 19
4 22 36 4 36 -8 0 -18 -4 -21 -10z"/>
<path d="M6450 3372 c0 -14 23 -32 40 -31 8 0 4 5 -10 11 l-25 11 25 7 25 8
-27 1 c-16 1 -28 -3 -28 -7z"/>
<path d="M6515 3370 c-9 -15 3 -29 25 -27 10 1 17 5 14 9 -3 4 -11 5 -19 1 -8
-3 -15 0 -15 5 0 6 8 13 18 15 15 4 15 5 0 6 -9 0 -20 -3 -23 -9z"/>
<path d="M4028 3348 c5 -5 16 -8 23 -6 8 3 3 7 -10 11 -17 4 -21 3 -13 -5z"/>
<path d="M4128 3348 c5 -5 16 -8 23 -6 8 3 3 7 -10 11 -17 4 -21 3 -13 -5z"/>
<path d="M4537 3349 c7 -7 15 -10 18 -7 3 3 -2 9 -12 12 -14 6 -15 5 -6 -5z"/>
<path d="M4678 3348 c5 -5 16 -8 23 -6 8 3 3 7 -10 11 -17 4 -21 3 -13 -5z"/>
<path d="M5110 3346 c7 -7 13 -7 20 0 6 6 3 10 -10 10 -13 0 -16 -4 -10 -10z"/>
<path d="M5680 3346 c7 -7 13 -7 20 0 6 6 3 10 -10 10 -13 0 -16 -4 -10 -10z"/>
<path d="M6070 3350 c-23 -7 -23 -8 -3 -9 12 -1 25 4 28 9 3 6 5 10 3 9 -2 -1
-14 -5 -28 -9z"/>
<path d="M6578 3348 c5 -5 16 -8 23 -6 8 3 3 7 -10 11 -17 4 -21 3 -13 -5z"/>
<path d="M4768 3343 c6 -2 18 -2 25 0 6 3 1 5 -13 5 -14 0 -19 -2 -12 -5z"/>
<path d="M5018 3343 c7 -3 16 -2 19 1 4 3 -2 6 -13 5 -11 0 -14 -3 -6 -6z"/>
<path d="M5558 3343 c7 -3 16 -2 19 1 4 3 -2 6 -13 5 -11 0 -14 -3 -6 -6z"/>
<path d="M8150 3245 c0 -13 -342 -15 -2872 -18 l-2873 -2 2872 -3 c2468 -2
2872 -4 2875 -16 2 -12 8 -11 36 3 l33 17 -36 17 c-30 14 -35 15 -35 2z"/>
<path d="M5540 3055 c-6 -8 -10 -20 -7 -27 3 -8 6 -6 6 5 1 10 11 22 24 27 15
6 17 9 6 9 -9 1 -22 -6 -29 -14z"/>
<path d="M5889 3053 c-13 -17 -13 -17 6 -3 11 8 22 16 24 17 2 2 0 3 -6 3 -6
0 -17 -8 -24 -17z"/>
<path d="M6153 3058 c-5 -7 -6 -26 -2 -43 6 -28 7 -28 9 -5 1 14 3 33 5 43 4
20 1 21 -12 5z"/>
<path d="M6347 3062 c6 -4 13 -23 16 -42 l4 -35 1 37 c1 20 8 39 15 41 6 3 -1
6 -18 6 -17 0 -25 -3 -18 -7z"/>
<path d="M6402 3030 c1 -29 2 -35 5 -17 3 17 11 27 21 28 14 0 14 2 2 6 -8 3
-18 11 -22 17 -4 6 -7 -9 -6 -34z"/>
<path d="M6650 3061 c0 -5 -8 -12 -17 -14 -17 -4 -17 -5 0 -6 10 -1 17 -9 17
-21 0 -23 -26 -27 -33 -5 -4 11 -4 10 -3 -2 1 -10 11 -19 24 -21 20 -3 22 1
22 37 0 23 -2 41 -5 41 -3 0 -5 -4 -5 -9z"/>
<path d="M5708 3043 c7 -3 16 -2 19 1 4 3 -2 6 -13 5 -11 0 -14 -3 -6 -6z"/>
<path d="M5758 3043 c7 -3 16 -2 19 1 4 3 -2 6 -13 5 -11 0 -14 -3 -6 -6z"/>
<path d="M5794 3035 c-9 -23 3 -45 23 -44 17 1 17 2 1 6 -25 6 -22 21 5 26 21
4 21 4 -3 6 -23 2 -24 3 -5 11 18 8 18 9 2 9 -10 1 -20 -6 -23 -14z"/>
<path d="M5988 3043 c7 -3 16 -2 19 1 4 3 -2 6 -13 5 -11 0 -14 -3 -6 -6z"/>
<path d="M6038 3043 c7 -3 16 -2 19 1 4 3 -2 6 -13 5 -11 0 -14 -3 -6 -6z"/>
<path d="M6075 3040 c-3 -6 1 -7 9 -4 18 7 21 14 7 14 -6 0 -13 -4 -16 -10z"/>
<path d="M6118 3020 c2 -16 6 -30 8 -30 2 0 4 14 4 30 0 17 -4 30 -8 30 -5 0
-7 -13 -4 -30z"/>
<path d="M6188 3020 c2 -16 6 -30 8 -30 2 0 4 14 4 30 0 17 -4 30 -8 30 -5 0
-7 -13 -4 -30z"/>
<path d="M6235 3041 c19 -9 19 -10 -3 -10 -29 -1 -26 -35 3 -38 16 -1 16 -1 3
3 -25 7 -22 24 3 24 26 0 20 24 -7 27 -18 3 -18 2 1 -6z"/>
<path d="M6504 3035 c-9 -23 3 -45 23 -44 17 1 17 2 1 6 -25 6 -22 21 5 26 21
4 21 4 -3 6 -23 2 -24 3 -5 11 18 8 18 9 2 9 -10 1 -20 -6 -23 -14z"/>
<path d="M6568 3043 c7 -3 16 -2 19 1 4 3 -2 6 -13 5 -11 0 -14 -3 -6 -6z"/>
<path d="M5630 3022 c0 -14 23 -32 40 -31 8 0 4 5 -10 11 l-25 11 25 7 25 8
-27 1 c-16 1 -28 -3 -28 -7z"/>
<path d="M5695 3020 c-9 -15 3 -29 25 -27 10 1 17 5 14 9 -3 4 -11 5 -19 1 -8
-3 -15 0 -15 5 0 6 8 13 18 15 15 4 15 5 0 6 -9 0 -20 -3 -23 -9z"/>
<path d="M5975 3020 c-9 -15 3 -29 25 -27 10 1 17 5 14 9 -3 4 -11 5 -19 1 -8
-3 -15 0 -15 5 0 6 8 13 18 15 15 4 15 5 0 6 -9 0 -20 -3 -23 -9z"/>
<path d="M6565 3020 c-3 -5 0 -7 9 -4 8 3 16 -2 19 -13 4 -14 5 -14 6 5 1 22
-22 31 -34 12z"/>
<path d="M5892 3004 c9 -9 21 -15 27 -13 6 2 -2 10 -17 17 -25 11 -25 11 -10
-4z"/>
<path d="M6042 3004 c-7 -8 -8 -14 -3 -14 10 0 25 19 20 25 -2 1 -10 -3 -17
-11z"/>
<path d="M5548 2998 c5 -5 16 -8 23 -6 8 3 3 7 -10 11 -17 4 -21 3 -13 -5z"/>
<path d="M5757 2999 c7 -7 15 -10 18 -7 3 3 -2 9 -12 12 -14 6 -15 5 -6 -5z"/>
<path d="M9720 2905 c0 -13 -388 -15 -3657 -18 l-3658 -2 3658 -3 c3243 -2
3657 -4 3657 -17 0 -8 2 -15 5 -15 10 0 67 31 63 34 -1 2 -18 11 -35 20 -29
15 -33 15 -33 1z"/>
<path d="M4520 2726 c0 -2 9 -6 20 -9 11 -3 18 -1 14 4 -5 9 -34 13 -34 5z"/>
<path d="M4672 2690 c1 -29 2 -35 5 -17 3 17 11 27 21 28 14 0 14 2 2 6 -8 3
-18 11 -22 17 -4 6 -7 -9 -6 -34z"/>
<path d="M4933 2690 c0 -25 2 -35 4 -22 2 12 2 32 0 45 -2 12 -4 2 -4 -23z"/>
<path d="M5162 2696 c2 -25 9 -41 18 -43 12 -4 13 -3 1 5 -8 6 -12 19 -9 30 3
11 1 26 -4 33 -6 9 -8 1 -6 -25z"/>
<path d="M5308 2720 c12 -5 22 -18 22 -30 0 -12 -10 -25 -22 -30 -18 -8 -19
-9 -4 -7 10 1 24 10 30 20 14 21 -2 51 -30 54 -15 2 -14 1 4 -7z"/>
<path d="M5412 2696 c2 -25 9 -41 18 -43 12 -4 13 -3 1 5 -8 6 -12 19 -9 30 3
11 1 26 -4 33 -6 9 -8 1 -6 -25z"/>
<path d="M5537 2722 c6 -4 13 -23 16 -42 l4 -35 1 37 c1 20 8 39 15 41 6 3 -1
6 -18 6 -17 0 -25 -3 -18 -7z"/>
<path d="M5592 2690 c1 -30 2 -35 5 -17 4 23 9 28 24 24 10 -3 17 -1 13 4 -3
5 -11 9 -19 9 -7 0 -16 6 -18 13 -3 6 -5 -8 -5 -33z"/>
<path d="M5840 2721 c0 -5 -8 -12 -17 -14 -17 -4 -17 -5 0 -6 10 -1 17 -9 17
-21 0 -23 -26 -27 -33 -5 -4 11 -4 10 -3 -2 1 -10 11 -19 24 -21 20 -3 22 1
22 37 0 23 -2 41 -5 41 -3 0 -5 -4 -5 -9z"/>
<path d="M4574 2680 c1 -18 7 -26 24 -28 19 -3 22 1 21 30 -2 30 -2 31 -6 6
-5 -34 -30 -37 -36 -5 -3 19 -4 19 -3 -3z"/>
<path d="M4638 2703 c7 -3 16 -2 19 1 4 3 -2 6 -13 5 -11 0 -14 -3 -6 -6z"/>
<path d="M4848 2703 c7 -3 16 -2 19 1 4 3 -2 6 -13 5 -11 0 -14 -3 -6 -6z"/>
<path d="M5005 2701 c19 -9 19 -10 -2 -10 -14 -1 -23 -7 -23 -17 0 -9 -5 -12
-12 -8 -7 4 -9 3 -5 -1 4 -5 20 -10 35 -11 15 -1 19 0 10 3 -25 6 -22 23 3 23
26 0 20 24 -7 27 -18 3 -18 2 1 -6z"/>
<path d="M5085 2700 c-3 -6 1 -7 9 -4 18 7 21 14 7 14 -6 0 -13 -4 -16 -10z"/>
<path d="M5206 2702 c-2 -4 4 -8 14 -8 10 0 16 4 14 8 -3 4 -9 8 -14 8 -5 0
-11 -4 -14 -8z"/>
<path d="M5358 2703 c7 -3 16 -2 19 1 4 3 -2 6 -13 5 -11 0 -14 -3 -6 -6z"/>
<path d="M5458 2703 c7 -3 16 -2 19 1 4 3 -2 6 -13 5 -11 0 -14 -3 -6 -6z"/>
<path d="M5694 2695 c-9 -23 3 -45 23 -44 17 1 17 2 1 6 -25 6 -22 21 5 26 21
4 21 4 -3 6 -23 2 -24 3 -5 11 18 8 18 9 2 9 -10 1 -20 -6 -23 -14z"/>
<path d="M5758 2703 c7 -3 16 -2 19 1 4 3 -2 6 -13 5 -11 0 -14 -3 -6 -6z"/>
<path d="M5866 2701 c-3 -5 2 -15 12 -22 15 -13 16 -12 4 3 -10 13 -10 17 0
21 9 4 9 6 1 6 -6 1 -14 -3 -17 -8z"/>
<path d="M4535 2690 c-16 -7 -17 -9 -3 -9 9 -1 20 4 23 9 7 11 7 11 -20 0z"/>
<path d="M4831 2672 c-8 -16 -6 -18 19 -18 16 0 27 3 24 7 -2 5 -11 6 -19 2
-8 -3 -15 0 -15 5 0 6 8 13 18 15 16 4 16 5 0 6 -10 0 -22 -7 -27 -17z"/>
<path d="M5355 2680 c-3 -6 1 -7 9 -4 17 7 22 -11 6 -19 -6 -3 -5 -4 2 -3 19
4 22 36 4 36 -8 0 -18 -4 -21 -10z"/>
<path d="M5462 2683 c9 -2 19 -12 21 -21 3 -12 5 -10 6 6 1 17 -4 22 -21 21
-16 -1 -18 -3 -6 -6z"/>
<path d="M5755 2680 c-3 -5 0 -7 9 -4 8 3 16 -2 19 -13 4 -14 5 -14 6 5 1 22
-22 31 -34 12z"/>
<path d="M4642 2664 c-7 -8 -8 -14 -3 -14 10 0 25 19 20 25 -2 1 -10 -3 -17
-11z"/>
<path d="M5210 2656 c7 -7 13 -7 20 0 6 6 3 10 -10 10 -13 0 -16 -4 -10 -10z"/>
<path d="M5868 2653 c7 -3 16 -2 19 1 4 3 -2 6 -13 5 -11 0 -14 -3 -6 -6z"/>
<path d="M6070 2560 c0 -6 -312 -11 -902 -13 l-903 -2 903 -3 c794 -2 902 -4
902 -17 0 -18 2 -18 35 -3 32 14 32 22 0 36 -32 15 -35 15 -35 2z"/>
<path d="M6340 2386 c0 -2 9 -6 20 -9 11 -3 18 -1 14 4 -5 9 -34 13 -34 5z"/>
<path d="M6738 2383 c7 -3 16 -2 19 1 4 3 -2 6 -13 5 -11 0 -14 -3 -6 -6z"/>
<path d="M6987 2383 c-4 -3 -7 -22 -7 -41 0 -42 7 -40 11 3 2 17 8 33 14 37 7
5 6 8 -1 8 -6 0 -14 -3 -17 -7z"/>
<path d="M7158 2383 c6 -2 18 -2 25 0 6 3 1 5 -13 5 -14 0 -19 -2 -12 -5z"/>
<path d="M7553 2383 c9 -2 23 -2 30 0 6 3 -1 5 -18 5 -16 0 -22 -2 -12 -5z"/>
<path d="M6448 2363 c7 -3 16 -2 19 1 4 3 -2 6 -13 5 -11 0 -14 -3 -6 -6z"/>
<path d="M6490 2366 c0 -2 9 -6 20 -9 11 -3 18 -1 14 4 -5 9 -34 13 -34 5z"/>
<path d="M6558 2363 c7 -3 16 -2 19 1 4 3 -2 6 -13 5 -11 0 -14 -3 -6 -6z"/>
<path d="M6644 2355 c-9 -23 3 -45 23 -44 17 1 17 2 1 6 -25 6 -22 21 5 26 21
4 21 4 -3 6 -23 2 -24 3 -5 11 18 8 18 9 2 9 -10 1 -20 -6 -23 -14z"/>
<path d="M6772 2350 c0 -14 2 -19 5 -12 2 6 2 18 0 25 -3 6 -5 1 -5 -13z"/>
<path d="M6808 2363 c7 -3 16 -2 19 1 4 3 -2 6 -13 5 -11 0 -14 -3 -6 -6z"/>
<path d="M6858 2363 c7 -3 16 -2 19 1 4 3 -2 6 -13 5 -11 0 -14 -3 -6 -6z"/>
<path d="M6898 2363 c7 -3 16 -2 19 1 4 3 -2 6 -13 5 -11 0 -14 -3 -6 -6z"/>
<path d="M7020 2366 c0 -2 9 -6 20 -9 11 -3 18 -1 14 4 -5 9 -34 13 -34 5z"/>
<path d="M7204 2355 c-9 -23 3 -45 23 -44 17 1 17 2 1 6 -25 6 -22 21 5 26 21
4 21 4 -3 6 -23 2 -24 3 -5 11 18 8 18 9 2 9 -10 1 -20 -6 -23 -14z"/>
<path d="M7268 2363 c7 -3 16 -2 19 1 4 3 -2 6 -13 5 -11 0 -14 -3 -6 -6z"/>
<path d="M7318 2363 c7 -3 16 -2 19 1 4 3 -2 6 -13 5 -11 0 -14 -3 -6 -6z"/>
<path d="M7354 2340 c1 -18 7 -26 24 -28 19 -3 22 1 21 30 -2 30 -2 31 -6 6
-5 -34 -30 -37 -36 -5 -3 19 -4 19 -3 -3z"/>
<path d="M7475 2361 c19 -9 19 -10 -3 -10 -29 -1 -26 -35 3 -38 16 -1 16 -1 3
3 -25 7 -22 24 3 24 26 0 20 24 -7 27 -18 3 -18 2 1 -6z"/>
<path d="M7658 2363 c7 -3 16 -2 19 1 4 3 -2 6 -13 5 -11 0 -14 -3 -6 -6z"/>
<path d="M7748 2363 c7 -3 16 -2 19 1 4 3 -2 6 -13 5 -11 0 -14 -3 -6 -6z"/>
<path d="M7795 2360 c-3 -6 1 -7 9 -4 18 7 21 14 7 14 -6 0 -13 -4 -16 -10z"/>
<path d="M7848 2363 c7 -3 16 -2 19 1 4 3 -2 6 -13 5 -11 0 -14 -3 -6 -6z"/>
<path d="M7914 2355 c-9 -23 3 -45 23 -44 17 1 17 2 1 6 -10 2 -18 13 -18 23
0 10 8 21 18 23 16 4 16 5 -1 6 -10 0 -20 -6 -23 -14z"/>
<path d="M7971 2338 c2 -32 2 -32 6 -5 3 20 9 27 19 23 8 -3 14 -1 14 4 0 6
-9 10 -20 10 -16 0 -20 -6 -19 -32z"/>
<path d="M6355 2350 c-16 -7 -17 -9 -3 -9 9 -1 20 4 23 9 7 11 7 11 -20 0z"/>
<path d="M7158 2353 c7 -3 16 -2 19 1 4 3 -2 6 -13 5 -11 0 -14 -3 -6 -6z"/>
<path d="M7548 2353 c6 -2 18 -2 25 0 6 3 1 5 -13 5 -14 0 -19 -2 -12 -5z"/>
<path d="M6438 2343 c6 -2 18 -2 25 0 6 3 1 5 -13 5 -14 0 -19 -2 -12 -5z"/>
<path d="M6545 2340 c-9 -15 3 -29 25 -27 10 1 17 5 14 9 -3 4 -11 5 -19 1 -8
-3 -15 0 -15 5 0 6 8 13 18 15 15 4 15 5 0 6 -9 0 -20 -3 -23 -9z"/>
<path d="M6795 2340 c-9 -15 3 -29 25 -27 10 1 17 5 14 9 -3 4 -11 5 -19 1 -8
-3 -15 0 -15 5 0 6 8 13 18 15 15 4 15 5 0 6 -9 0 -20 -3 -23 -9z"/>
<path d="M6895 2340 c-3 -6 1 -7 9 -4 17 7 22 -11 6 -19 -6 -3 -5 -4 2 -3 19
4 22 36 4 36 -8 0 -18 -4 -21 -10z"/>
<path d="M7265 2340 c-3 -5 0 -7 9 -4 8 3 16 -2 19 -13 4 -14 5 -14 6 5 1 22
-22 31 -34 12z"/>
<path d="M7735 2340 c-9 -15 3 -29 25 -27 10 1 17 5 14 9 -3 4 -11 5 -19 1 -8
-3 -15 0 -15 5 0 6 8 13 18 15 15 4 15 5 0 6 -9 0 -20 -3 -23 -9z"/>
<path d="M6438 2318 c5 -5 16 -8 23 -6 8 3 3 7 -10 11 -17 4 -21 3 -13 -5z"/>
<path d="M6505 2320 c-16 -7 -17 -9 -3 -9 9 -1 20 4 23 9 7 11 7 11 -20 0z"/>
<path d="M6857 2319 c7 -7 15 -10 18 -7 3 3 -2 9 -12 12 -14 6 -15 5 -6 -5z"/>
<path d="M7035 2320 c-16 -7 -17 -9 -3 -9 9 -1 20 4 23 9 7 11 7 11 -20 0z"/>
<path d="M7320 2320 c0 -5 5 -10 11 -10 5 0 7 5 4 10 -3 6 -8 10 -11 10 -2 0
-4 -4 -4 -10z"/>
<path d="M6738 2313 c7 -3 16 -2 19 1 4 3 -2 6 -13 5 -11 0 -14 -3 -6 -6z"/>
<path d="M7553 2313 c9 -2 25 -2 35 0 9 3 1 5 -18 5 -19 0 -27 -2 -17 -5z"/>
<path d="M8150 2200 c0 -27 3 -31 18 -25 9 4 25 10 35 12 9 3 17 9 17 13 0 4
-8 10 -17 13 -10 2 -26 8 -35 12 -15 6 -18 2 -18 -25z"/>
<path d="M8435 2040 c-8 -13 12 -40 29 -40 6 0 3 5 -6 11 -10 5 -18 14 -18 19
0 5 8 11 18 13 15 4 15 5 0 6 -9 0 -20 -4 -23 -9z"/>
<path d="M8622 2035 c-7 -9 -8 -15 -2 -15 17 0 11 -38 -7 -43 -14 -4 -12 -5 5
-6 19 -1 22 4 22 39 0 45 0 45 -18 25z"/>
<path d="M8698 2043 c6 -2 18 -2 25 0 6 3 1 5 -13 5 -14 0 -19 -2 -12 -5z"/>
<path d="M8802 2016 c2 -25 9 -41 18 -43 12 -4 13 -3 1 5 -8 6 -12 19 -9 30 3
11 1 26 -4 33 -6 9 -8 1 -6 -25z"/>
<path d="M8992 2016 c2 -25 9 -41 18 -43 12 -4 13 -3 1 5 -8 6 -12 19 -9 30 3
11 1 26 -4 33 -6 9 -8 1 -6 -25z"/>
<path d="M9120 2041 c0 -5 -8 -12 -17 -14 -17 -4 -17 -5 0 -6 10 -1 17 -9 17
-21 0 -23 -26 -27 -33 -5 -4 11 -4 10 -3 -2 1 -10 11 -19 24 -21 20 -3 22 1
22 37 0 23 -2 41 -5 41 -3 0 -5 -4 -5 -9z"/>
<path d="M9188 2043 c6 -2 18 -2 25 0 6 3 1 5 -13 5 -14 0 -19 -2 -12 -5z"/>
<path d="M8484 2015 c-9 -23 3 -45 23 -44 17 1 17 2 1 6 -25 6 -22 21 5 26 21
4 21 4 -3 6 -23 2 -24 3 -5 11 18 8 18 9 2 9 -10 1 -20 -6 -23 -14z"/>
<path d="M8541 1998 c2 -32 2 -32 6 -5 3 20 9 27 19 23 8 -3 14 -1 14 4 0 6
-9 10 -20 10 -16 0 -20 -6 -19 -32z"/>
<path d="M8888 2023 c7 -3 16 -2 19 1 4 3 -2 6 -13 5 -11 0 -14 -3 -6 -6z"/>
<path d="M8933 2015 c-3 -9 -3 -19 1 -22 3 -4 6 1 6 10 0 8 8 18 18 20 16 4
16 5 -1 6 -10 0 -20 -6 -24 -14z"/>
<path d="M9248 2023 c7 -3 16 -2 19 1 4 3 -2 6 -13 5 -11 0 -14 -3 -6 -6z"/>
<path d="M9298 2023 c7 -3 16 -2 19 1 4 3 -2 6 -13 5 -11 0 -14 -3 -6 -6z"/>
<path d="M9348 2023 c7 -3 16 -2 19 1 4 3 -2 6 -13 5 -11 0 -14 -3 -6 -6z"/>
<path d="M9384 2000 c1 -18 7 -26 24 -28 19 -3 22 1 21 30 -2 30 -2 31 -6 6
-5 -34 -30 -37 -36 -5 -3 19 -4 19 -3 -3z"/>
<path d="M9484 2015 c-9 -23 3 -45 23 -44 17 1 17 2 1 6 -25 6 -22 21 5 26 21
4 21 4 -3 6 -23 2 -24 3 -5 11 18 8 18 9 2 9 -10 1 -20 -6 -23 -14z"/>
<path d="M9548 2023 c7 -3 16 -2 19 1 4 3 -2 6 -13 5 -11 0 -14 -3 -6 -6z"/>
<path d="M8698 2013 c7 -3 16 -2 19 1 4 3 -2 6 -13 5 -11 0 -14 -3 -6 -6z"/>
<path d="M9188 2013 c7 -3 16 -2 19 1 4 3 -2 6 -13 5 -11 0 -14 -3 -6 -6z"/>
<path d="M8885 2000 c-3 -5 0 -7 9 -4 8 3 16 -2 19 -13 4 -14 5 -14 6 5 1 22
-22 31 -34 12z"/>
<path d="M9020 2002 c0 -14 23 -32 40 -31 8 0 4 5 -10 11 l-25 11 25 7 25 8
-27 1 c-16 1 -28 -3 -28 -7z"/>
<path d="M9238 2003 c6 -2 18 -2 25 0 6 3 1 5 -13 5 -14 0 -19 -2 -12 -5z"/>
<path d="M9302 2003 c9 -2 19 -12 21 -21 3 -12 5 -10 6 6 1 17 -4 22 -21 21
-16 -1 -18 -3 -6 -6z"/>
<path d="M9552 1984 c-7 -8 -8 -14 -3 -14 10 0 25 19 20 25 -2 1 -10 -3 -17
-11z"/>
<path d="M8445 1980 c-16 -7 -17 -9 -3 -9 9 -1 20 4 23 9 7 11 7 11 -20 0z"/>
<path d="M9238 1978 c5 -5 16 -8 23 -6 8 3 3 7 -10 11 -17 4 -21 3 -13 -5z"/>
<path d="M8698 1973 c6 -2 18 -2 25 0 6 3 1 5 -13 5 -14 0 -19 -2 -12 -5z"/>
<path d="M8948 1973 c7 -3 16 -2 19 1 4 3 -2 6 -13 5 -11 0 -14 -3 -6 -6z"/>
<path d="M9720 1875 c0 -13 -93 -15 -757 -18 l-758 -2 757 -3 c643 -2 757 -4
760 -16 2 -12 9 -11 37 4 l35 18 -32 16 c-38 20 -42 20 -42 1z"/>
<path d="M8973 1703 c9 -2 25 -2 35 0 9 3 1 5 -18 5 -19 0 -27 -2 -17 -5z"/>
<path d="M9263 1703 c9 -2 25 -2 35 0 9 3 1 5 -18 5 -19 0 -27 -2 -17 -5z"/>
<path d="M9412 1676 c2 -25 9 -41 18 -43 12 -4 13 -3 1 5 -8 6 -12 19 -9 30 3
11 1 26 -4 33 -6 9 -8 1 -6 -25z"/>
<path d="M9662 1670 c1 -29 2 -35 5 -17 3 17 11 27 21 28 14 0 14 2 2 6 -8 3
-18 11 -22 17 -4 6 -7 -9 -6 -34z"/>
<path d="M10500 1701 c0 -5 -8 -12 -17 -14 -17 -4 -17 -5 0 -6 10 -1 17 -9 17
-22 0 -16 -5 -20 -20 -16 -11 3 -18 1 -14 -4 3 -5 14 -9 25 -9 16 0 19 7 19
40 0 22 -2 40 -5 40 -3 0 -5 -4 -5 -9z"/>
<path d="M9068 1683 c7 -3 16 -2 19 1 4 3 -2 6 -13 5 -11 0 -14 -3 -6 -6z"/>
<path d="M9118 1660 c2 -16 6 -30 8 -30 2 0 4 14 4 30 0 17 -4 30 -8 30 -5 0
-7 -13 -4 -30z"/>
<path d="M9160 1686 c0 -2 7 -7 16 -10 8 -3 12 -2 9 4 -6 10 -25 14 -25 6z"/>
<path d="M9366 1681 c-3 -5 2 -15 12 -22 15 -13 16 -12 4 3 -10 13 -10 17 0
21 9 4 9 6 1 6 -6 1 -14 -3 -17 -8z"/>
<path d="M9568 1683 c7 -3 16 -2 19 1 4 3 -2 6 -13 5 -11 0 -14 -3 -6 -6z"/>
<path d="M9615 1680 c-3 -6 1 -7 9 -4 18 7 21 14 7 14 -6 0 -13 -4 -16 -10z"/>
<path d="M9722 1660 c0 -19 2 -27 5 -17 2 9 2 25 0 35 -3 9 -5 1 -5 -18z"/>
<path d="M9751 1658 c2 -32 2 -32 6 -5 3 20 9 27 19 23 8 -3 14 -1 14 4 0 6
-9 10 -20 10 -16 0 -20 -6 -19 -32z"/>
<path d="M10018 1683 c7 -3 16 -2 19 1 4 3 -2 6 -13 5 -11 0 -14 -3 -6 -6z"/>
<path d="M10101 1658 c2 -30 2 -30 6 -6 2 15 12 29 21 31 12 3 10 5 -5 6 -20
1 -23 -4 -22 -31z"/>
<path d="M10162 1660 c0 -19 2 -27 5 -17 2 9 2 25 0 35 -3 9 -5 1 -5 -18z"/>
<path d="M10191 1658 c2 -32 2 -32 6 -5 3 20 9 27 19 23 8 -3 14 -1 14 4 0 6
-9 10 -20 10 -16 0 -20 -6 -19 -32z"/>
<path d="M10258 1683 c6 -2 18 -2 25 0 6 3 1 5 -13 5 -14 0 -19 -2 -12 -5z"/>
<path d="M10405 1676 c-3 -9 -7 -22 -9 -29 -3 -10 4 -14 22 -13 22 1 27 6 27
26 0 28 -32 41 -40 16z m35 -16 c0 -11 -7 -20 -15 -20 -8 0 -15 9 -15 20 0 11
7 20 15 20 8 0 15 -9 15 -20z"/>
<path d="M10538 1683 c7 -3 16 -2 19 1 4 3 -2 6 -13 5 -11 0 -14 -3 -6 -6z"/>
<path d="M9142 1655 c0 -16 2 -22 5 -12 2 9 2 23 0 30 -3 6 -5 -1 -5 -18z"/>
<path d="M9065 1660 c-3 -5 0 -7 9 -4 8 3 16 -2 19 -13 4 -14 5 -14 6 5 1 22
-22 31 -34 12z"/>
<path d="M9300 1662 c0 -14 23 -32 40 -31 8 0 4 5 -10 11 l-25 11 25 7 25 8
-27 1 c-16 1 -28 -3 -28 -7z"/>
<path d="M9555 1660 c-9 -15 3 -29 25 -27 10 1 17 5 14 9 -3 4 -11 5 -19 1 -8
-3 -15 0 -15 5 0 6 8 13 18 15 15 4 15 5 0 6 -9 0 -20 -3 -23 -9z"/>
<path d="M9800 1662 c0 -14 23 -32 40 -31 8 0 4 5 -10 11 l-25 11 25 7 25 8
-27 1 c-16 1 -28 -3 -28 -7z"/>
<path d="M9940 1662 c0 -14 23 -32 40 -31 8 0 4 5 -10 11 l-25 11 25 7 25 8
-27 1 c-16 1 -28 -3 -28 -7z"/>
<path d="M10005 1660 c-9 -15 3 -29 25 -27 10 1 17 5 14 9 -3 4 -11 5 -19 1
-8 -3 -15 0 -15 5 0 6 8 13 18 15 15 4 15 5 0 6 -9 0 -20 -3 -23 -9z"/>
<path d="M10528 1663 c6 -2 18 -2 25 0 6 3 1 5 -13 5 -14 0 -19 -2 -12 -5z"/>
<path d="M10258 1653 c7 -3 16 -2 19 1 4 3 -2 6 -13 5 -11 0 -14 -3 -6 -6z"/>
<path d="M10528 1638 c5 -5 16 -8 23 -6 8 3 3 7 -10 11 -17 4 -21 3 -13 -5z"/>
<path d="M9368 1633 c7 -3 16 -2 19 1 4 3 -2 6 -13 5 -11 0 -14 -3 -6 -6z"/>
<path d="M9908 1633 c6 -2 18 -2 25 0 6 3 1 5 -13 5 -14 0 -19 -2 -12 -5z"/>
<path d="M10265 1631 l20 -8 -20 -6 -20 -6 20 2 c24 3 23 21 -2 24 -15 2 -14
1 2 -6z"/>
<path d="M9853 1523 c26 -2 67 -2 90 0 23 2 2 3 -48 3 -49 0 -68 -1 -42 -3z"/>
<path d="M10044 1489 c30 -24 33 -44 9 -73 -18 -21 -18 -21 5 -2 12 11 22 27
22 36 0 17 -39 60 -54 60 -5 0 3 -9 18 -21z"/>
<path d="M9797 1397 l-29 -12 30 -22 c24 -18 31 -19 36 -8 3 10 26 15 73 18
l68 3 -67 2 c-53 2 -68 5 -68 17 0 18 -6 18 -43 2z"/>
<path d="M9995 1390 c-13 -6 -15 -9 -5 -9 8 0 22 4 30 9 18 12 2 12 -25 0z"/>
<path d="M828 1163 c7 -3 16 -2 19 1 4 3 -2 6 -13 5 -11 0 -14 -3 -6 -6z"/>
<path d="M1071 1127 c2 -31 3 -35 6 -14 3 20 9 27 19 23 19 -7 18 -4 -6 17
-20 16 -20 16 -19 -26z"/>
<path d="M1163 1163 c9 -2 25 -2 35 0 9 3 1 5 -18 5 -19 0 -27 -2 -17 -5z"/>
<path d="M1593 1163 c9 -2 25 -2 35 0 9 3 1 5 -18 5 -19 0 -27 -2 -17 -5z"/>
<path d="M2102 1155 c-7 -9 -8 -15 -2 -15 17 0 11 -38 -7 -43 -14 -4 -12 -5 5
-6 19 -1 22 4 22 39 0 45 0 45 -18 25z"/>
<path d="M936 1142 c7 -4 14 -18 17 -32 4 -21 4 -20 6 8 1 24 -3 32 -16 32
-12 0 -14 -3 -7 -8z"/>
<path d="M978 1143 c7 -3 16 -2 19 1 4 3 -2 6 -13 5 -11 0 -14 -3 -6 -6z"/>
<path d="M1258 1143 c7 -3 16 -2 19 1 4 3 -2 6 -13 5 -11 0 -14 -3 -6 -6z"/>
<path d="M1331 1118 c2 -30 2 -30 6 -6 2 15 12 29 21 31 12 3 10 5 -5 6 -20 1
-23 -4 -22 -31z"/>
<path d="M1392 1120 c0 -19 2 -27 5 -17 2 9 2 25 0 35 -3 9 -5 1 -5 -18z"/>
<path d="M1421 1118 c2 -32 2 -32 6 -5 3 20 9 27 19 23 8 -3 14 -1 14 4 0 6
-9 10 -20 10 -16 0 -20 -6 -19 -32z"/>
<path d="M1488 1143 c6 -2 18 -2 25 0 6 3 1 5 -13 5 -14 0 -19 -2 -12 -5z"/>
<path d="M1634 1135 c-9 -23 3 -45 23 -44 17 1 17 2 1 6 -25 6 -22 21 5 26 21
4 21 4 -3 6 -23 2 -24 3 -5 11 18 8 18 9 2 9 -10 1 -20 -6 -23 -14z"/>
<path d="M1698 1143 c7 -3 16 -2 19 1 4 3 -2 6 -13 5 -11 0 -14 -3 -6 -6z"/>
<path d="M1738 1143 c7 -3 16 -2 19 1 4 3 -2 6 -13 5 -11 0 -14 -3 -6 -6z"/>
<path d="M1778 1120 c2 -16 6 -30 8 -30 2 0 4 14 4 30 0 17 -4 30 -8 30 -5 0
-7 -13 -4 -30z"/>
<path d="M1820 1146 c0 -2 7 -7 16 -10 8 -3 12 -2 9 4 -6 10 -25 14 -25 6z"/>
<path d="M1873 1143 c21 -6 22 -20 2 -26 -11 -4 -10 -4 2 -3 10 1 19 9 21 19
3 12 -3 17 -20 16 -17 -1 -18 -3 -5 -6z"/>
<path d="M2026 1142 c-2 -4 4 -8 14 -8 10 0 16 4 14 8 -3 4 -9 8 -14 8 -5 0
-11 -4 -14 -8z"/>
<path d="M2155 1141 c19 -9 19 -10 -3 -10 -29 -1 -26 -35 3 -38 16 -1 16 -1 3
3 -25 7 -22 24 3 24 26 0 20 24 -7 27 -18 3 -18 2 1 -6z"/>
<path d="M820 1136 c0 -2 7 -7 16 -10 8 -3 12 -2 9 4 -6 10 -25 14 -25 6z"/>
<path d="M1802 1115 c0 -16 2 -22 5 -12 2 9 2 23 0 30 -3 6 -5 -1 -5 -18z"/>
<path d="M1262 1123 c9 -2 19 -12 21 -21 3 -12 5 -10 6 6 1 17 -4 22 -21 21
-16 -1 -18 -3 -6 -6z"/>
<path d="M1488 1113 c7 -3 16 -2 19 1 4 3 -2 6 -13 5 -11 0 -14 -3 -6 -6z"/>
<path d="M1702 1104 c-7 -8 -8 -14 -3 -14 10 0 25 19 20 25 -2 1 -10 -3 -17
-11z"/>
<path d="M980 1100 c0 -5 5 -10 11 -10 5 0 7 5 4 10 -3 6 -8 10 -11 10 -2 0
-4 -4 -4 -10z"/>
<path d="M2030 1096 c7 -7 13 -7 20 0 6 6 3 10 -10 10 -13 0 -16 -4 -10 -10z"/>
<path d="M828 1093 c7 -3 16 -2 19 1 4 3 -2 6 -13 5 -11 0 -14 -3 -6 -6z"/>
<path d="M1495 1091 l20 -8 -20 -6 -20 -6 20 2 c24 3 23 21 -2 24 -15 2 -14 1
2 -6z"/>
<path d="M1868 1093 c6 -2 18 -2 25 0 6 3 1 5 -13 5 -14 0 -19 -2 -12 -5z"/>
<path d="M1868 1073 c7 -3 16 -2 19 1 4 3 -2 6 -13 5 -11 0 -14 -3 -6 -6z"/>
<path d="M2350 995 c0 -13 -108 -15 -887 -18 l-888 -2 887 -3 c699 -1 887 -5
890 -14 2 -10 11 -9 36 4 l34 16 -31 16 c-37 20 -41 20 -41 1z"/>
<path d="M957 823 c-3 -5 5 -8 18 -8 13 0 21 3 18 8 -2 4 -10 7 -18 7 -8 0
-16 -3 -18 -7z"/>
<path d="M1266 821 c-4 -5 3 -7 14 -4 23 6 26 13 6 13 -8 0 -17 -4 -20 -9z"/>
<path d="M1658 823 c6 -2 18 -2 25 0 6 3 1 5 -13 5 -14 0 -19 -2 -12 -5z"/>
<path d="M1752 796 c2 -25 9 -41 18 -43 12 -4 13 -3 1 5 -8 6 -12 19 -9 30 3
11 1 26 -4 33 -6 9 -8 1 -6 -25z"/>
<path d="M1024 780 c1 -24 36 -44 36 -21 0 6 -6 8 -14 5 -10 -4 -16 3 -19 18
-4 22 -4 21 -3 -2z"/>
<path d="M1158 803 c7 -3 16 -2 19 1 4 3 -2 6 -13 5 -11 0 -14 -3 -6 -6z"/>
<path d="M1324 780 c1 -18 7 -26 24 -28 19 -3 22 1 21 30 -2 30 -2 31 -6 6 -5
-34 -30 -37 -36 -5 -3 19 -4 19 -3 -3z"/>
<path d="M1478 803 c7 -3 16 -2 19 1 4 3 -2 6 -13 5 -11 0 -14 -3 -6 -6z"/>
<path d="M1526 802 c-2 -4 4 -8 14 -8 10 0 16 4 14 8 -3 4 -9 8 -14 8 -5 0
-11 -4 -14 -8z"/>
<path d="M1578 803 c7 -3 16 -2 19 1 4 3 -2 6 -13 5 -11 0 -14 -3 -6 -6z"/>
<path d="M1706 801 c-3 -5 2 -15 12 -22 15 -13 16 -12 4 3 -10 13 -10 17 0 21
9 4 9 6 1 6 -6 1 -14 -3 -17 -8z"/>
<path d="M1792 780 c0 -19 2 -27 5 -17 2 9 2 25 0 35 -3 9 -5 1 -5 -18z"/>
<path d="M1824 796 c-3 -8 -4 -23 -1 -33 3 -12 5 -8 6 10 0 15 5 27 10 27 5 0
12 -12 14 -27 5 -28 5 -28 3 1 -1 32 -22 47 -32 22z"/>
<path d="M1875 800 c3 -5 8 -10 11 -10 2 0 4 5 4 10 0 6 -5 10 -11 10 -5 0 -7
-4 -4 -10z"/>
<path d="M1918 803 c7 -3 16 -2 19 1 4 3 -2 6 -13 5 -11 0 -14 -3 -6 -6z"/>
<path d="M1968 803 c7 -3 16 -2 19 1 4 3 -2 6 -13 5 -11 0 -14 -3 -6 -6z"/>
<path d="M2004 795 c-9 -23 3 -45 23 -44 17 1 17 2 1 6 -25 6 -22 21 5 26 21
4 21 4 -3 6 -23 2 -24 3 -5 11 18 8 18 9 2 9 -10 1 -20 -6 -23 -14z"/>
<path d="M1658 793 c7 -3 16 -2 19 1 4 3 -2 6 -13 5 -11 0 -14 -3 -6 -6z"/>
<path d="M1070 782 c0 -14 23 -32 40 -31 8 0 4 5 -10 11 l-25 11 25 7 25 8
-27 1 c-16 1 -28 -3 -28 -7z"/>
<path d="M1468 783 c6 -2 18 -2 25 0 6 3 1 5 -13 5 -14 0 -19 -2 -12 -5z"/>
<path d="M1922 783 c9 -2 19 -12 21 -21 3 -12 5 -10 6 6 1 17 -4 22 -21 21
-16 -1 -18 -3 -6 -6z"/>
<path d="M950 763 c0 -3 63 -33 69 -33 3 0 -2 5 -12 11 -9 6 -16 13 -13 17 2
4 -7 7 -20 7 -13 0 -24 -1 -24 -2z"/>
<path d="M1268 758 c5 -5 16 -8 23 -6 8 3 3 7 -10 11 -17 4 -21 3 -13 -5z"/>
<path d="M1468 758 c5 -5 16 -8 23 -6 8 3 3 7 -10 11 -17 4 -21 3 -13 -5z"/>
<path d="M1580 760 c0 -5 5 -10 11 -10 5 0 7 5 4 10 -3 6 -8 10 -11 10 -2 0
-4 -4 -4 -10z"/>
<path d="M1658 753 c6 -2 18 -2 25 0 6 3 1 5 -13 5 -14 0 -19 -2 -12 -5z"/>
<path d="M1708 753 c7 -3 16 -2 19 1 4 3 -2 6 -13 5 -11 0 -14 -3 -6 -6z"/>
<path d="M2350 655 c0 -13 -114 -15 -887 -18 l-888 -2 888 -3 c776 -2 887 -4
887 -17 0 -13 5 -12 35 2 37 18 36 22 -7 41 -23 10 -28 9 -28 -3z"/>
<path d="M494 290 c1 -28 5 -35 21 -35 16 0 20 7 21 40 l1 40 -4 -37 c-5 -48
-30 -51 -36 -5 -4 32 -4 32 -3 -3z"/>
<path d="M2061 288 c1 -24 3 -36 5 -28 6 19 54 43 54 27 0 -6 3 -7 7 -4 10 10
-28 47 -49 47 -15 0 -18 -7 -17 -42z m39 17 c0 -8 -7 -15 -15 -15 -8 0 -15 7
-15 15 0 8 7 15 15 15 8 0 15 -7 15 -15z"/>
<path d="M2170 289 c0 -36 2 -40 22 -37 13 2 23 10 24 18 0 9 -1 10 -3 3 -6
-18 -33 -16 -33 1 0 8 6 17 13 19 10 4 10 6 0 6 -7 1 -13 6 -13 12 0 6 9 9 20
6 11 -3 18 -1 14 4 -3 5 -14 9 -25 9 -16 0 -19 -7 -19 -41z"/>
<path d="M2234 305 c-9 -35 2 -55 28 -54 l23 0 -22 9 c-14 6 -23 18 -23 30 0
12 9 24 23 30 l22 9 -22 0 c-16 1 -24 -6 -29 -24z"/>
<path d="M2293 290 c0 -25 2 -35 4 -22 2 12 2 32 0 45 -2 12 -4 2 -4 -23z"/>
<path d="M2355 319 c-4 -5 0 -18 9 -28 20 -22 20 -28 -1 -34 -17 -4 -17 -5 0
-6 24 -1 34 29 14 41 -22 12 -22 25 1 31 15 4 15 5 0 6 -9 0 -20 -4 -23 -10z"/>
<path d="M2468 318 c-2 -7 -1 -26 3 -43 6 -28 7 -28 9 -5 1 14 3 33 5 43 4 19
-11 24 -17 5z"/>
<path d="M2502 294 c2 -20 9 -39 16 -40 7 -1 8 0 2 3 -12 6 -13 40 -1 45 5 2
2 9 -6 17 -12 11 -14 8 -11 -25z"/>
<path d="M3852 293 c-2 -39 0 -43 21 -42 16 1 17 3 5 6 -11 3 -18 17 -21 41
l-4 37 -1 -42z"/>
<path d="M3905 319 c-4 -5 0 -18 9 -28 20 -22 20 -28 -1 -34 -17 -4 -17 -5 0
-6 24 -1 34 29 14 41 -22 12 -22 25 1 31 15 4 15 5 0 6 -9 0 -20 -4 -23 -10z"/>
<path d="M3952 293 c-2 -41 -1 -43 26 -42 22 1 23 2 5 6 -17 3 -23 13 -26 41
l-4 37 -1 -42z"/>
<path d="M4077 311 c-4 -17 -3 -21 5 -13 5 5 8 16 6 23 -3 8 -7 3 -11 -10z"/>
<path d="M4192 314 c-7 -8 -17 -12 -23 -9 -5 4 -9 -9 -8 -27 1 -29 2 -30 8 -9
10 36 31 39 31 4 1 -24 2 -26 11 -10 10 18 11 18 25 0 14 -17 14 -16 4 5 -6
12 -15 22 -20 22 -5 0 -10 9 -12 19 -3 16 -5 17 -16 5z"/>
<path d="M4393 323 c9 -2 25 -2 35 0 9 3 1 5 -18 5 -19 0 -27 -2 -17 -5z"/>
<path d="M4451 288 c2 -30 3 -35 6 -15 2 15 9 27 14 27 5 0 10 -12 10 -27 2
-26 2 -26 6 -5 3 16 -3 31 -16 43 l-21 20 1 -43z"/>
<path d="M4672 306 c-26 -25 -21 -56 9 -56 15 0 19 7 19 40 0 22 -1 40 -2 39
-2 0 -13 -10 -26 -23z m18 -26 c0 -11 -4 -20 -9 -20 -14 0 -23 18 -16 30 10
17 25 11 25 -10z"/>
<path d="M5732 293 l-2 -43 44 0 c53 0 68 16 38 41 -27 21 -27 26 -4 32 15 4
15 5 0 6 -27 2 -34 -21 -10 -37 33 -21 27 -32 -17 -32 -39 0 -40 1 -44 38 l-4
37 -1 -42z"/>
<path d="M5842 293 c-2 -39 0 -43 21 -42 16 1 17 3 5 6 -11 3 -18 17 -21 41
l-4 37 -1 -42z"/>
<path d="M5920 290 c0 -37 2 -41 23 -38 18 2 22 9 22 38 0 29 -4 36 -22 38
-21 3 -23 -1 -23 -38z m35 0 c0 -13 -6 -25 -12 -27 -9 -3 -13 6 -13 27 0 21 4
30 13 28 6 -3 12 -15 12 -28z"/>
<path d="M6042 294 c2 -20 9 -39 16 -40 7 -1 8 0 2 3 -12 6 -13 40 -1 45 5 2
2 9 -6 17 -12 11 -14 8 -11 -25z"/>
<path d="M6167 322 c6 -4 13 -23 16 -42 l4 -35 1 37 c2 25 7 38 20 41 9 3 1 5
-18 6 -19 0 -30 -3 -23 -7z"/>
<path d="M6231 288 c2 -30 3 -35 6 -15 2 15 9 27 14 27 5 0 10 -12 10 -27 2
-26 2 -26 6 -5 3 16 -3 31 -16 43 l-21 20 1 -43z"/>
<path d="M6452 306 c-26 -25 -21 -56 9 -56 15 0 19 7 19 40 0 22 -1 40 -2 39
-2 0 -13 -10 -26 -23z m18 -26 c0 -11 -4 -20 -9 -20 -14 0 -23 18 -16 30 10
17 25 11 25 -10z"/>
<path d="M7601 288 c1 -24 4 -33 6 -21 2 12 12 24 21 26 15 4 15 5 0 6 -26 2
-22 19 5 24 19 4 18 4 -5 6 -27 1 -28 -1 -27 -41z"/>
<path d="M7768 317 c-7 -19 6 -60 20 -63 7 -1 8 0 2 3 -12 6 -13 40 -1 45 5 2
3 8 -4 15 -10 9 -14 9 -17 0z"/>
<path d="M8000 290 c0 -35 3 -40 23 -39 16 1 18 2 5 6 -21 5 -24 29 -5 36 10
4 10 6 0 6 -19 1 -16 19 5 24 13 4 11 5 -5 6 -20 1 -23 -4 -23 -39z"/>
<path d="M8110 320 c0 -5 -7 -10 -15 -10 -8 0 -15 -5 -15 -11 0 -8 -6 -7 -17
2 -15 11 -16 11 -6 -1 9 -10 9 -18 1 -34 -10 -18 -9 -19 4 -9 11 10 17 10 28
0 12 -10 12 -9 1 5 -7 9 -10 22 -6 28 10 17 23 11 27 -12 2 -12 9 -23 16 -24
7 -1 8 0 2 3 -12 6 -13 40 -1 45 5 2 3 9 -5 16 -8 7 -14 8 -14 2z"/>
<path d="M8298 317 c-7 -19 6 -60 20 -63 7 -1 8 0 2 3 -12 6 -13 40 -1 45 5 2
3 8 -4 15 -10 9 -14 9 -17 0z"/>
<path d="M8467 322 c6 -4 13 -23 16 -42 l4 -35 1 38 c2 25 7 37 17 37 10 0 15
-11 16 -37 2 -31 3 -33 6 -10 2 15 10 27 18 27 8 0 16 -12 18 -27 l4 -28 2 28
c1 21 -4 30 -19 34 -11 3 -20 9 -20 14 0 5 -17 9 -37 9 -21 0 -33 -4 -26 -8z"/>
<path d="M8752 306 c-26 -25 -21 -56 9 -56 15 0 19 7 19 40 0 22 -1 40 -2 39
-2 0 -13 -10 -26 -23z m18 -26 c0 -11 -4 -20 -9 -20 -14 0 -23 18 -16 30 10
17 25 11 25 -10z"/>
<path d="M9402 318 c-24 -24 -6 -69 28 -67 9 0 6 4 -7 9 -14 6 -23 18 -23 30
0 12 9 24 23 30 13 5 16 9 7 9 -9 1 -21 -4 -28 -11z"/>
<path d="M9461 294 c-1 -41 -1 -42 34 -41 32 1 36 4 33 27 -2 16 -10 26 -23
27 l-20 3 20 -9 c18 -8 18 -10 2 -10 -10 -1 -21 -9 -25 -18 -5 -13 -9 -7 -13
22 l-6 40 -2 -41z m54 -24 c-3 -5 -11 -10 -16 -10 -6 0 -7 5 -4 10 3 6 11 10
16 10 6 0 7 -4 4 -10z"/>
<path d="M9663 318 c-5 -7 -6 -26 -2 -43 l7 -30 1 28 c0 15 1 30 0 33 0 4 5
11 13 15 8 5 9 9 2 9 -6 0 -16 -6 -21 -12z"/>
<path d="M9857 322 c6 -4 13 -23 16 -42 l4 -35 1 38 c2 25 7 37 17 37 10 0 15
-11 16 -37 2 -31 3 -33 6 -10 2 15 10 27 18 27 8 0 16 -12 18 -27 l4 -28 2 28
c1 21 -4 30 -19 34 -11 3 -20 9 -20 14 0 5 -17 9 -37 9 -21 0 -33 -4 -26 -8z"/>
<path d="M10142 306 c-26 -25 -21 -56 9 -56 15 0 19 7 19 40 0 22 -1 40 -2 39
-2 0 -13 -10 -26 -23z m18 -26 c0 -11 -4 -20 -9 -20 -14 0 -23 18 -16 30 10
17 25 11 25 -10z"/>
<path d="M556 301 c-3 -5 2 -15 12 -22 15 -13 16 -12 4 3 -10 13 -10 17 0 21
9 4 9 6 1 6 -6 1 -14 -3 -17 -8z"/>
<path d="M615 300 c19 -8 19 -9 -4 -9 -17 -1 -22 -5 -17 -17 3 -9 6 -18 6 -20
0 -2 10 -4 23 -3 21 0 21 1 -3 11 -25 11 -25 11 -2 15 12 3 22 11 22 19 0 8
-9 14 -22 13 -22 0 -22 -1 -3 -9z"/>
<path d="M651 275 c1 -20 3 -24 6 -10 3 11 12 25 20 32 13 10 12 12 -6 10 -17
-1 -21 -7 -20 -32z"/>
<path d="M2404 296 c-9 -24 4 -48 23 -44 12 2 18 12 18 28 0 29 -32 41 -41 16z
m36 -16 c0 -11 -7 -20 -15 -20 -8 0 -15 9 -15 20 0 11 7 20 15 20 8 0 15 -9
15 -20z"/>
<path d="M2541 294 c0 -11 3 -14 6 -6 3 7 2 16 -1 19 -3 4 -6 -2 -5 -13z"/>
<path d="M2601 303 c-1 -6 -4 -20 -7 -30 -5 -17 -5 -17 6 0 6 10 9 23 6 30 -3
9 -5 9 -5 0z"/>
<path d="M2635 301 c17 -8 18 -10 3 -10 -10 -1 -18 -5 -18 -11 0 -5 6 -7 14
-4 8 3 16 -2 19 -13 3 -10 5 -5 4 12 -2 22 -8 31 -22 32 l-20 3 20 -9z"/>
<path d="M2671 275 c1 -20 3 -24 6 -10 3 11 12 25 20 32 13 10 12 12 -6 10
-17 -1 -21 -7 -20 -32z"/>
<path d="M2735 300 c19 -8 19 -9 -4 -9 -17 -1 -22 -5 -17 -17 3 -9 6 -18 6
-20 0 -2 10 -4 23 -3 21 0 21 1 -3 11 -25 11 -25 11 -2 15 12 3 22 11 22 19 0
8 -9 14 -22 13 -22 0 -22 -1 -3 -9z"/>
<path d="M4125 301 c17 -8 18 -10 3 -10 -10 -1 -18 -5 -18 -11 0 -5 6 -7 14
-4 8 3 16 -2 19 -13 3 -10 5 -5 4 12 -2 22 -8 31 -22 32 l-20 3 20 -9z"/>
<path d="M4260 295 c-15 -18 3 -45 29 -44 10 0 7 4 -9 11 l-25 11 30 7 c28 7
28 8 5 10 -23 1 -23 2 -5 10 15 7 16 9 4 9 -9 1 -22 -6 -29 -14z"/>
<path d="M4321 278 c2 -28 2 -29 6 -8 3 14 10 28 17 32 7 5 5 8 -6 8 -14 0
-18 -8 -17 -32z"/>
<path d="M4501 276 c1 -29 2 -29 8 -7 9 33 29 38 33 9 2 -13 10 -23 21 -24 12
-1 13 -1 2 3 -22 7 -18 23 6 23 12 0 19 5 17 13 -3 7 -22 12 -46 13 -41 0 -42
-1 -41 -30z m76 18 c-3 -3 -12 -4 -19 -1 -8 3 -5 6 6 6 11 1 17 -2 13 -5z"/>
<path d="M4614 301 c18 -7 18 -8 3 -14 -26 -10 -21 -37 6 -35 19 2 22 7 19 30
-3 21 -10 28 -26 27 -20 0 -20 -1 -2 -8z m16 -31 c0 -5 -4 -10 -10 -10 -5 0
-10 5 -10 10 0 6 5 10 10 10 6 0 10 -4 10 -10z"/>
<path d="M5994 301 c18 -7 18 -8 2 -14 -23 -9 -15 -32 10 -33 17 -1 19 4 16
27 -3 22 -10 29 -26 28 -20 0 -20 -1 -2 -8z m16 -31 c0 -5 -4 -10 -10 -10 -5
0 -10 5 -10 10 0 6 5 10 10 10 6 0 10 -4 10 -10z"/>
<path d="M6095 301 c17 -8 18 -10 3 -10 -10 -1 -18 -5 -18 -11 0 -5 6 -7 14
-4 8 3 16 -2 19 -13 3 -10 5 -5 4 12 -2 22 -8 31 -22 32 l-20 3 20 -9z"/>
<path d="M6281 276 c1 -29 2 -29 8 -7 9 33 29 38 33 9 2 -13 10 -23 21 -24 12
-1 13 -1 2 3 -22 7 -18 23 6 23 12 0 19 5 17 13 -3 7 -22 12 -46 13 -41 0 -42
-1 -41 -30z m76 18 c-3 -3 -12 -4 -19 -1 -8 3 -5 6 6 6 11 1 17 -2 13 -5z"/>
<path d="M6394 301 c18 -7 18 -8 3 -14 -26 -10 -21 -37 6 -35 19 2 22 7 19 30
-3 21 -10 28 -26 27 -20 0 -20 -1 -2 -8z m16 -31 c0 -5 -4 -10 -10 -10 -5 0
-10 5 -10 10 0 6 5 10 10 10 6 0 10 -4 10 -10z"/>
<path d="M6496 301 c-3 -5 2 -15 12 -22 15 -13 16 -12 4 3 -10 13 -10 17 0 21
9 4 9 6 1 6 -6 1 -14 -3 -17 -8z"/>
<path d="M7654 296 c-9 -23 3 -46 23 -45 17 1 17 2 1 6 -25 6 -22 23 3 23 12
0 19 5 17 13 -7 18 -37 21 -44 3z m33 -2 c-3 -3 -12 -4 -19 -1 -8 3 -5 6 6 6
11 1 17 -2 13 -5z"/>
<path d="M7724 301 c18 -7 18 -8 3 -14 -26 -10 -21 -37 6 -35 19 2 22 7 19 30
-3 21 -10 28 -26 27 -20 0 -20 -1 -2 -8z m16 -31 c0 -5 -4 -10 -10 -10 -5 0
-10 5 -10 10 0 6 5 10 10 10 6 0 10 -4 10 -10z"/>
<path d="M7811 283 c-1 -27 3 -33 19 -33 16 0 20 6 19 33 -2 30 -2 30 -6 5 -2
-16 -8 -28 -13 -28 -5 0 -11 12 -13 28 -4 25 -4 25 -6 -5z"/>
<path d="M7871 278 c2 -28 2 -29 6 -8 3 14 10 28 17 32 7 5 5 8 -6 8 -14 0
-18 -8 -17 -32z"/>
<path d="M7925 300 c19 -8 19 -9 -4 -9 -17 -1 -22 -5 -17 -17 3 -9 6 -18 6
-20 0 -2 10 -4 23 -3 21 0 21 1 -3 11 -25 11 -25 11 -2 15 12 3 22 11 22 19 0
8 -9 14 -22 13 -22 0 -22 -1 -3 -9z"/>
<path d="M8151 278 c2 -28 2 -29 6 -8 3 14 10 28 17 32 7 5 5 8 -6 8 -14 0
-18 -8 -17 -32z"/>
<path d="M8205 301 c17 -8 18 -10 3 -10 -10 -1 -18 -5 -18 -11 0 -5 6 -7 14
-4 8 3 16 -2 19 -13 3 -10 5 -5 4 12 -2 22 -8 31 -22 32 l-20 3 20 -9z"/>
<path d="M8244 295 c-9 -23 3 -45 23 -44 17 1 17 2 1 6 -10 2 -18 13 -18 23 0
10 8 21 18 23 16 4 16 5 -1 6 -10 0 -20 -6 -23 -14z"/>
<path d="M8337 295 c-9 -22 3 -46 22 -43 10 2 16 13 16 28 0 28 -29 40 -38 15z
m33 -15 c0 -11 -4 -20 -9 -20 -14 0 -23 18 -16 30 10 17 25 11 25 -10z"/>
<path d="M8391 275 c1 -20 3 -24 6 -10 3 11 12 25 20 32 13 10 12 12 -6 10
-17 -1 -21 -7 -20 -32z"/>
<path d="M8581 276 c1 -21 3 -25 6 -11 3 11 9 25 14 31 5 7 3 11 -6 11 -10 0
-15 -10 -14 -31z"/>
<path d="M8624 296 c-9 -23 3 -46 23 -45 17 1 17 2 1 6 -25 6 -22 23 3 23 12
0 19 5 17 13 -7 18 -37 21 -44 3z m33 -2 c-3 -3 -12 -4 -19 -1 -8 3 -5 6 6 6
11 1 17 -2 13 -5z"/>
<path d="M8694 301 c18 -7 18 -8 3 -14 -26 -10 -21 -37 6 -35 19 2 22 7 19 30
-3 21 -10 28 -26 27 -20 0 -20 -1 -2 -8z m16 -31 c0 -5 -4 -10 -10 -10 -5 0
-10 5 -10 10 0 6 5 10 10 10 6 0 10 -4 10 -10z"/>
<path d="M8796 301 c-3 -5 2 -15 12 -22 15 -13 16 -12 4 3 -10 13 -10 17 0 21
9 4 9 6 1 6 -6 1 -14 -3 -17 -8z"/>
<path d="M9540 296 c0 -8 6 -17 13 -19 9 -4 8 -8 -3 -16 -13 -9 -13 -11 3 -11
19 0 23 25 6 36 -8 4 -7 9 2 15 11 7 10 9 -3 9 -10 0 -18 -6 -18 -14z"/>
<path d="M9586 301 c-3 -5 2 -15 12 -22 15 -13 16 -12 4 3 -10 13 -10 17 0 21
9 4 9 6 1 6 -6 1 -14 -3 -17 -8z"/>
<path d="M9628 280 c2 -16 6 -30 8 -30 2 0 4 14 4 30 0 17 -4 30 -8 30 -5 0
-7 -13 -4 -30z"/>
<path d="M9698 280 c2 -16 6 -30 8 -30 2 0 4 14 4 30 0 17 -4 30 -8 30 -5 0
-7 -13 -4 -30z"/>
<path d="M9745 300 c19 -8 19 -9 -4 -9 -17 -1 -22 -5 -17 -17 3 -9 6 -18 6
-20 0 -2 10 -4 23 -3 21 0 21 1 -3 11 -25 11 -25 11 -2 15 12 3 22 11 22 19 0
8 -9 14 -22 13 -22 0 -22 -1 -3 -9z"/>
<path d="M9781 275 c1 -20 3 -24 6 -10 3 11 12 25 20 32 13 10 12 12 -6 10
-17 -1 -21 -7 -20 -32z"/>
<path d="M9971 276 c1 -21 3 -25 6 -11 3 11 9 25 14 31 5 7 3 11 -6 11 -10 0
-15 -10 -14 -31z"/>
<path d="M10014 296 c-9 -23 3 -46 23 -45 17 1 17 2 1 6 -25 6 -22 23 3 23 12
0 19 5 17 13 -7 18 -37 21 -44 3z m33 -2 c-3 -3 -12 -4 -19 -1 -8 3 -5 6 6 6
11 1 17 -2 13 -5z"/>
<path d="M10084 301 c18 -7 18 -8 3 -14 -26 -10 -21 -37 6 -35 19 2 22 7 19
30 -3 21 -10 28 -26 27 -20 0 -20 -1 -2 -8z m16 -31 c0 -5 -4 -10 -10 -10 -5
0 -10 5 -10 10 0 6 5 10 10 10 6 0 10 -4 10 -10z"/>
<path d="M2133 263 c-3 -10 -8 -22 -11 -27 -3 -5 0 -6 5 -3 11 7 25 47 17 47
-3 0 -7 -8 -11 -17z"/>
<path d="M4031 264 c0 -11 3 -14 6 -6 3 7 2 16 -1 19 -3 4 -6 -2 -5 -13z"/>
<path d="M4091 264 c0 -11 3 -14 6 -6 3 7 2 16 -1 19 -3 4 -6 -2 -5 -13z"/>
<path d="M558 253 c7 -3 16 -2 19 1 4 3 -2 6 -13 5 -11 0 -14 -3 -6 -6z"/>
<path d="M6498 253 c7 -3 16 -2 19 1 4 3 -2 6 -13 5 -11 0 -14 -3 -6 -6z"/>
<path d="M8798 253 c7 -3 16 -2 19 1 4 3 -2 6 -13 5 -11 0 -14 -3 -6 -6z"/>
<path d="M9588 253 c7 -3 16 -2 19 1 4 3 -2 6 -13 5 -11 0 -14 -3 -6 -6z"/>
</g>
</svg>
