<?xml version="1.0" standalone="no"?>
<!DOCTYPE svg PUBLIC "-//W3C//DTD SVG 20010904//EN"
 "http://www.w3.org/TR/2001/REC-SVG-20010904/DTD/svg10.dtd">
<svg version="1.0" xmlns="http://www.w3.org/2000/svg"
 width="769.000000pt" height="200.000000pt" viewBox="0 0 769.000000 200.000000"
 preserveAspectRatio="xMidYMid meet">

<g transform="translate(0.000000,200.000000) scale(0.100000,-0.100000)"
fill="#000000" stroke="none">
<path d="M5635 1896 c-229 -53 -404 -217 -482 -451 -25 -73 -27 -94 -27 -240
-1 -142 2 -168 22 -229 92 -275 272 -422 568 -465 47 -7 23 -9 -121 -10 -99 0
-630 -4 -1180 -7 -550 -4 -1017 -9 -1039 -13 -24 -4 -44 -15 -54 -29 l-14 -22
2126 0 2126 0 0 35 0 35 -792 1 c-707 1 -785 2 -717 15 144 26 250 83 340 183
56 62 125 193 135 257 l6 41 -172 62 c-95 34 -174 60 -175 59 -1 -2 -7 -26
-13 -55 -43 -196 -191 -294 -333 -220 -91 48 -134 168 -133 372 2 199 42 306
134 353 112 56 243 -2 302 -135 l19 -43 164 0 165 0 0 245 0 245 -160 0 -160
0 0 -40 c0 -22 -2 -40 -6 -40 -3 0 -22 11 -42 25 -20 14 -73 37 -117 51 -100
32 -277 42 -370 20z"/>
<path d="M440 1716 l0 -166 65 0 65 0 0 -350 0 -350 -65 0 -65 0 0 -165 0
-165 395 0 395 0 0 165 0 165 -65 0 -65 0 0 95 0 95 178 0 c272 0 397 23 503
91 62 40 106 89 138 159 23 48 26 68 26 160 0 99 -2 110 -32 171 -58 118 -169
197 -328 235 -59 14 -151 17 -607 21 l-538 5 0 -166z m865 -146 c24 -5 51 -21
68 -40 22 -25 27 -39 27 -86 0 -46 -4 -59 -25 -78 -32 -30 -64 -36 -181 -36
l-94 0 0 125 0 125 83 0 c45 0 100 -5 122 -10z"/>
<path d="M3400 1716 l0 -166 60 0 60 0 0 -355 0 -355 -60 0 -60 0 0 -161 0
-161 548 5 c613 5 661 10 789 72 98 48 156 113 184 207 52 170 -27 331 -202
412 l-70 33 46 17 c64 25 141 88 167 139 34 66 32 183 -5 259 -51 105 -149
170 -295 199 -36 7 -261 13 -609 16 l-553 5 0 -166z m882 -155 c59 -23 86
-113 51 -171 -25 -43 -57 -53 -180 -58 l-113 -4 0 127 0 128 108 -6 c59 -3
119 -10 134 -16z m-6 -482 c64 -16 94 -56 94 -124 0 -102 -57 -135 -234 -135
l-96 0 0 135 0 135 96 0 c52 0 115 -5 140 -11z"/>
<path d="M6692 1718 l3 -163 63 -3 62 -3 0 -349 0 -349 -62 -3 -63 -3 -3 -163
-2 -162 390 0 390 0 -2 163 -3 162 -62 3 -63 3 0 349 0 349 63 3 62 3 3 163 2
162 -390 0 -390 0 2 -162z"/>
<path d="M2020 1310 l0 -150 38 0 37 0 178 -338 c97 -187 177 -344 177 -351 0
-6 -9 -30 -20 -51 l-20 -40 -80 0 -80 0 0 -140 0 -140 208 0 208 0 255 530
254 529 48 1 47 0 0 150 0 150 -240 0 -240 0 0 -145 0 -145 40 0 c25 0 40 -5
40 -12 0 -22 -138 -343 -146 -341 -7 1 -164 338 -164 350 0 2 23 3 50 3 l50 0
0 145 0 145 -320 0 -320 0 0 -150z"/>
<path d="M300 415 l0 -35 530 0 530 0 0 35 0 35 -530 0 -530 0 0 -35z"/>
</g>
</svg>
